<?xml version="1.0" encoding="utf-8" standalone="no"?>
<!DOCTYPE svg PUBLIC "-//W3C//DTD SVG 1.1//EN"
  "http://www.w3.org/Graphics/SVG/1.1/DTD/svg11.dtd">
<!-- Created with matplotlib (http://matplotlib.org/) -->
<svg height="288pt" version="1.1" viewBox="0 0 1224 288" width="1224pt" xmlns="http://www.w3.org/2000/svg" xmlns:xlink="http://www.w3.org/1999/xlink">
 <defs>
  <style type="text/css">
*{stroke-linecap:butt;stroke-linejoin:round;}
  </style>
 </defs>
 <g id="figure_1">
  <g id="patch_1">
   <path d="M 0 288 
L 1224 288 
L 1224 0 
L 0 0 
z
" style="fill:#ffffff;"/>
  </g>
  <g id="axes_1">
   <g id="patch_2">
    <path d="M 153 252 
L 1101.6 252 
L 1101.6 34.56 
L 153 34.56 
z
" style="fill:#eaeaf2;"/>
   </g>
   <g id="matplotlib.axis_1">
    <g id="xtick_1">
     <g id="line2d_1">
      <path clip-path="url(#pb994ddb6a4)" d="M 196.118182 252 
L 196.118182 34.56 
" style="fill:none;stroke:#ffffff;stroke-linecap:round;"/>
     </g>
     <g id="line2d_2"/>
     <g id="text_1">
      <!-- 0.0 -->
      <defs>
       <path d="M 51.703125 34.421875 
Q 51.703125 24.515625 49.828125 17.75 
Q 47.953125 10.984375 44.703125 6.8125 
Q 41.453125 2.640625 37.0625 0.828125 
Q 32.671875 -0.984375 27.6875 -0.984375 
Q 22.65625 -0.984375 18.3125 0.828125 
Q 13.96875 2.640625 10.765625 6.78125 
Q 7.5625 10.9375 5.734375 17.703125 
Q 3.90625 24.46875 3.90625 34.421875 
Q 3.90625 44.828125 5.734375 51.640625 
Q 7.5625 58.453125 10.78125 62.5 
Q 14.015625 66.546875 18.40625 68.1875 
Q 22.796875 69.828125 27.984375 69.828125 
Q 32.90625 69.828125 37.21875 68.1875 
Q 41.546875 66.546875 44.765625 62.5 
Q 48 58.453125 49.84375 51.640625 
Q 51.703125 44.828125 51.703125 34.421875 
M 42.78125 34.421875 
Q 42.78125 42.625 41.796875 48.0625 
Q 40.828125 53.515625 38.921875 56.765625 
Q 37.015625 60.015625 34.25 61.359375 
Q 31.5 62.703125 27.984375 62.703125 
Q 24.265625 62.703125 21.4375 61.328125 
Q 18.609375 59.96875 16.671875 56.71875 
Q 14.75 53.46875 13.765625 48.015625 
Q 12.796875 42.578125 12.796875 34.421875 
Q 12.796875 26.515625 13.796875 21.09375 
Q 14.796875 15.671875 16.71875 12.375 
Q 18.65625 9.078125 21.4375 7.640625 
Q 24.21875 6.203125 27.78125 6.203125 
Q 31.25 6.203125 34.03125 7.640625 
Q 36.8125 9.078125 38.734375 12.375 
Q 40.671875 15.671875 41.71875 21.09375 
Q 42.78125 26.515625 42.78125 34.421875 
" id="LiberationSans-30"/>
       <path d="M 9.125 0 
L 9.125 10.6875 
L 18.65625 10.6875 
L 18.65625 0 
z
" id="LiberationSans-2e"/>
      </defs>
      <g style="fill:#262626;" transform="translate(189.168182 266.246875)scale(0.1 -0.1)">
       <use xlink:href="#LiberationSans-30"/>
       <use x="55.615234" xlink:href="#LiberationSans-2e"/>
       <use x="83.398438" xlink:href="#LiberationSans-30"/>
      </g>
     </g>
    </g>
    <g id="xtick_2">
     <g id="line2d_3">
      <path clip-path="url(#pb994ddb6a4)" d="M 318.710676 252 
L 318.710676 34.56 
" style="fill:none;stroke:#ffffff;stroke-linecap:round;"/>
     </g>
     <g id="line2d_4"/>
     <g id="text_2">
      <!-- 0.5 -->
      <defs>
       <path d="M 51.421875 22.40625 
Q 51.421875 17.234375 49.859375 12.9375 
Q 48.296875 8.640625 45.21875 5.53125 
Q 42.140625 2.4375 37.578125 0.71875 
Q 33.015625 -0.984375 27 -0.984375 
Q 21.578125 -0.984375 17.546875 0.28125 
Q 13.53125 1.5625 10.734375 3.78125 
Q 7.953125 6 6.3125 8.984375 
Q 4.6875 11.96875 4 15.375 
L 12.890625 16.40625 
Q 13.421875 14.453125 14.390625 12.625 
Q 15.375 10.796875 17.0625 9.34375 
Q 18.75 7.90625 21.21875 7.046875 
Q 23.6875 6.203125 27.203125 6.203125 
Q 30.609375 6.203125 33.390625 7.25 
Q 36.1875 8.296875 38.15625 10.34375 
Q 40.140625 12.40625 41.203125 15.375 
Q 42.28125 18.359375 42.28125 22.21875 
Q 42.28125 25.390625 41.25 28.046875 
Q 40.234375 30.71875 38.328125 32.640625 
Q 36.421875 34.578125 33.65625 35.640625 
Q 30.90625 36.71875 27.390625 36.71875 
Q 25.203125 36.71875 23.34375 36.328125 
Q 21.484375 35.9375 19.890625 35.25 
Q 18.3125 34.578125 17.015625 33.671875 
Q 15.71875 32.765625 14.59375 31.78125 
L 6 31.78125 
L 8.296875 68.796875 
L 47.40625 68.796875 
L 47.40625 61.328125 
L 16.3125 61.328125 
L 14.984375 39.5 
Q 17.328125 41.3125 20.84375 42.59375 
Q 24.359375 43.890625 29.203125 43.890625 
Q 34.328125 43.890625 38.421875 42.328125 
Q 42.53125 40.765625 45.40625 37.90625 
Q 48.296875 35.0625 49.859375 31.109375 
Q 51.421875 27.15625 51.421875 22.40625 
" id="LiberationSans-35"/>
      </defs>
      <g style="fill:#262626;" transform="translate(311.760676 266.246875)scale(0.1 -0.1)">
       <use xlink:href="#LiberationSans-30"/>
       <use x="55.615234" xlink:href="#LiberationSans-2e"/>
       <use x="83.398438" xlink:href="#LiberationSans-35"/>
      </g>
     </g>
    </g>
    <g id="xtick_3">
     <g id="line2d_5">
      <path clip-path="url(#pb994ddb6a4)" d="M 441.30317 252 
L 441.30317 34.56 
" style="fill:none;stroke:#ffffff;stroke-linecap:round;"/>
     </g>
     <g id="line2d_6"/>
     <g id="text_3">
      <!-- 1.0 -->
      <defs>
       <path d="M 7.625 0 
L 7.625 7.46875 
L 25.140625 7.46875 
L 25.140625 60.40625 
L 9.625 49.3125 
L 9.625 57.625 
L 25.875 68.796875 
L 33.984375 68.796875 
L 33.984375 7.46875 
L 50.734375 7.46875 
L 50.734375 0 
z
" id="LiberationSans-31"/>
      </defs>
      <g style="fill:#262626;" transform="translate(434.35317 266.246875)scale(0.1 -0.1)">
       <use xlink:href="#LiberationSans-31"/>
       <use x="55.615234" xlink:href="#LiberationSans-2e"/>
       <use x="83.398438" xlink:href="#LiberationSans-30"/>
      </g>
     </g>
    </g>
    <g id="xtick_4">
     <g id="line2d_7">
      <path clip-path="url(#pb994ddb6a4)" d="M 563.895665 252 
L 563.895665 34.56 
" style="fill:none;stroke:#ffffff;stroke-linecap:round;"/>
     </g>
     <g id="line2d_8"/>
     <g id="text_4">
      <!-- 1.5 -->
      <g style="fill:#262626;" transform="translate(556.945665 266.246875)scale(0.1 -0.1)">
       <use xlink:href="#LiberationSans-31"/>
       <use x="55.615234" xlink:href="#LiberationSans-2e"/>
       <use x="83.398438" xlink:href="#LiberationSans-35"/>
      </g>
     </g>
    </g>
    <g id="xtick_5">
     <g id="line2d_9">
      <path clip-path="url(#pb994ddb6a4)" d="M 686.488159 252 
L 686.488159 34.56 
" style="fill:none;stroke:#ffffff;stroke-linecap:round;"/>
     </g>
     <g id="line2d_10"/>
     <g id="text_5">
      <!-- 2.0 -->
      <defs>
       <path d="M 5.03125 0 
L 5.03125 6.203125 
Q 7.515625 11.921875 11.109375 16.28125 
Q 14.703125 20.65625 18.65625 24.1875 
Q 22.609375 27.734375 26.484375 30.765625 
Q 30.375 33.796875 33.5 36.8125 
Q 36.625 39.84375 38.546875 43.15625 
Q 40.484375 46.484375 40.484375 50.6875 
Q 40.484375 53.609375 39.59375 55.828125 
Q 38.71875 58.0625 37.0625 59.5625 
Q 35.40625 61.078125 33.078125 61.828125 
Q 30.765625 62.59375 27.9375 62.59375 
Q 25.296875 62.59375 22.96875 61.859375 
Q 20.65625 61.140625 18.84375 59.671875 
Q 17.046875 58.203125 15.890625 56.03125 
Q 14.75 53.859375 14.40625 50.984375 
L 5.421875 51.8125 
Q 5.859375 55.515625 7.46875 58.78125 
Q 9.078125 62.0625 11.90625 64.53125 
Q 14.75 67 18.71875 68.40625 
Q 22.703125 69.828125 27.9375 69.828125 
Q 33.0625 69.828125 37.0625 68.609375 
Q 41.0625 67.390625 43.8125 64.984375 
Q 46.578125 62.59375 48.046875 59.078125 
Q 49.515625 55.5625 49.515625 50.984375 
Q 49.515625 47.515625 48.265625 44.390625 
Q 47.015625 41.265625 44.9375 38.421875 
Q 42.875 35.59375 40.140625 32.953125 
Q 37.40625 30.328125 34.421875 27.8125 
Q 31.453125 25.296875 28.421875 22.828125 
Q 25.390625 20.359375 22.71875 17.859375 
Q 20.0625 15.375 17.96875 12.8125 
Q 15.875 10.25 14.703125 7.46875 
L 50.59375 7.46875 
L 50.59375 0 
z
" id="LiberationSans-32"/>
      </defs>
      <g style="fill:#262626;" transform="translate(679.538159 266.246875)scale(0.1 -0.1)">
       <use xlink:href="#LiberationSans-32"/>
       <use x="55.615234" xlink:href="#LiberationSans-2e"/>
       <use x="83.398438" xlink:href="#LiberationSans-30"/>
      </g>
     </g>
    </g>
    <g id="xtick_6">
     <g id="line2d_11">
      <path clip-path="url(#pb994ddb6a4)" d="M 809.080653 252 
L 809.080653 34.56 
" style="fill:none;stroke:#ffffff;stroke-linecap:round;"/>
     </g>
     <g id="line2d_12"/>
     <g id="text_6">
      <!-- 2.5 -->
      <g style="fill:#262626;" transform="translate(802.130653 266.246875)scale(0.1 -0.1)">
       <use xlink:href="#LiberationSans-32"/>
       <use x="55.615234" xlink:href="#LiberationSans-2e"/>
       <use x="83.398438" xlink:href="#LiberationSans-35"/>
      </g>
     </g>
    </g>
    <g id="xtick_7">
     <g id="line2d_13">
      <path clip-path="url(#pb994ddb6a4)" d="M 931.673148 252 
L 931.673148 34.56 
" style="fill:none;stroke:#ffffff;stroke-linecap:round;"/>
     </g>
     <g id="line2d_14"/>
     <g id="text_7">
      <!-- 3.0 -->
      <defs>
       <path d="M 51.21875 19 
Q 51.21875 14.265625 49.671875 10.546875 
Q 48.140625 6.84375 45.1875 4.265625 
Q 42.234375 1.703125 37.859375 0.359375 
Q 33.5 -0.984375 27.875 -0.984375 
Q 21.484375 -0.984375 17.109375 0.609375 
Q 12.75 2.203125 9.90625 4.8125 
Q 7.078125 7.421875 5.65625 10.765625 
Q 4.25 14.109375 3.8125 17.671875 
L 12.890625 18.5 
Q 13.28125 15.765625 14.328125 13.515625 
Q 15.375 11.28125 17.1875 9.671875 
Q 19 8.0625 21.625 7.171875 
Q 24.265625 6.296875 27.875 6.296875 
Q 34.515625 6.296875 38.296875 9.5625 
Q 42.09375 12.84375 42.09375 19.28125 
Q 42.09375 23.09375 40.40625 25.40625 
Q 38.71875 27.734375 36.203125 29.03125 
Q 33.6875 30.328125 30.734375 30.765625 
Q 27.78125 31.203125 25.296875 31.203125 
L 20.3125 31.203125 
L 20.3125 38.8125 
L 25.09375 38.8125 
Q 27.59375 38.8125 30.265625 39.328125 
Q 32.953125 39.84375 35.171875 41.1875 
Q 37.40625 42.53125 38.84375 44.828125 
Q 40.28125 47.125 40.28125 50.6875 
Q 40.28125 56.203125 37.03125 59.390625 
Q 33.796875 62.59375 27.390625 62.59375 
Q 21.578125 62.59375 17.984375 59.609375 
Q 14.40625 56.640625 13.8125 51.21875 
L 4.984375 51.90625 
Q 5.515625 56.453125 7.46875 59.8125 
Q 9.421875 63.1875 12.421875 65.40625 
Q 15.4375 67.625 19.28125 68.71875 
Q 23.140625 69.828125 27.484375 69.828125 
Q 33.25 69.828125 37.390625 68.375 
Q 41.546875 66.9375 44.1875 64.46875 
Q 46.828125 62.015625 48.0625 58.6875 
Q 49.3125 55.375 49.3125 51.609375 
Q 49.3125 48.578125 48.484375 45.9375 
Q 47.65625 43.3125 45.890625 41.203125 
Q 44.140625 39.109375 41.421875 37.59375 
Q 38.71875 36.078125 34.90625 35.296875 
L 34.90625 35.109375 
Q 39.0625 34.671875 42.140625 33.21875 
Q 45.21875 31.78125 47.21875 29.625 
Q 49.21875 27.484375 50.21875 24.75 
Q 51.21875 22.015625 51.21875 19 
" id="LiberationSans-33"/>
      </defs>
      <g style="fill:#262626;" transform="translate(924.723148 266.246875)scale(0.1 -0.1)">
       <use xlink:href="#LiberationSans-33"/>
       <use x="55.615234" xlink:href="#LiberationSans-2e"/>
       <use x="83.398438" xlink:href="#LiberationSans-30"/>
      </g>
     </g>
    </g>
    <g id="xtick_8">
     <g id="line2d_15">
      <path clip-path="url(#pb994ddb6a4)" d="M 1054.265642 252 
L 1054.265642 34.56 
" style="fill:none;stroke:#ffffff;stroke-linecap:round;"/>
     </g>
     <g id="line2d_16"/>
     <g id="text_8">
      <!-- 3.5 -->
      <g style="fill:#262626;" transform="translate(1047.315642 266.246875)scale(0.1 -0.1)">
       <use xlink:href="#LiberationSans-33"/>
       <use x="55.615234" xlink:href="#LiberationSans-2e"/>
       <use x="83.398438" xlink:href="#LiberationSans-35"/>
      </g>
     </g>
    </g>
    <g id="text_9">
     <!-- Number of reviews (log10 transformed) -->
     <defs>
      <path d="M 52.828125 0 
L 16.015625 58.59375 
Q 16.109375 56.203125 16.265625 53.859375 
Q 16.359375 51.859375 16.421875 49.625 
Q 16.5 47.40625 16.5 45.703125 
L 16.5 0 
L 8.203125 0 
L 8.203125 68.796875 
L 19.046875 68.796875 
L 56.25 9.8125 
Q 56.109375 12.203125 55.953125 14.59375 
Q 55.859375 16.65625 55.765625 19.0625 
Q 55.671875 21.484375 55.671875 23.6875 
L 55.671875 68.796875 
L 64.0625 68.796875 
L 64.0625 0 
z
" id="LiberationSans-4e"/>
      <path d="M 15.328125 52.828125 
L 15.328125 19.34375 
Q 15.328125 15.484375 15.890625 12.890625 
Q 16.453125 10.296875 17.71875 8.703125 
Q 19 7.125 21.0625 6.46875 
Q 23.140625 5.8125 26.21875 5.8125 
Q 29.34375 5.8125 31.859375 6.90625 
Q 34.375 8.015625 36.15625 10.078125 
Q 37.9375 12.15625 38.90625 15.203125 
Q 39.890625 18.265625 39.890625 22.21875 
L 39.890625 52.828125 
L 48.6875 52.828125 
L 48.6875 11.28125 
Q 48.6875 9.625 48.703125 7.78125 
Q 48.734375 5.953125 48.78125 4.3125 
Q 48.828125 2.6875 48.875 1.515625 
Q 48.921875 0.34375 48.96875 0 
L 40.671875 0 
Q 40.625 0.25 40.578125 1.3125 
Q 40.53125 2.390625 40.453125 3.78125 
Q 40.375 5.171875 40.328125 6.609375 
Q 40.28125 8.0625 40.28125 9.03125 
L 40.140625 9.03125 
Q 38.875 6.734375 37.359375 4.875 
Q 35.84375 3.03125 33.84375 1.734375 
Q 31.84375 0.4375 29.25 -0.265625 
Q 26.65625 -0.984375 23.25 -0.984375 
Q 18.84375 -0.984375 15.671875 0.09375 
Q 12.5 1.171875 10.453125 3.421875 
Q 8.40625 5.671875 7.453125 9.1875 
Q 6.5 12.703125 6.5 17.625 
L 6.5 52.828125 
z
" id="LiberationSans-75"/>
      <path d="M 37.5 0 
L 37.5 33.5 
Q 37.5 37.359375 37.015625 39.9375 
Q 36.53125 42.53125 35.375 44.109375 
Q 34.234375 45.703125 32.375 46.359375 
Q 30.515625 47.015625 27.828125 47.015625 
Q 25.046875 47.015625 22.796875 45.921875 
Q 20.5625 44.828125 18.96875 42.75 
Q 17.390625 40.671875 16.53125 37.625 
Q 15.671875 34.578125 15.671875 30.609375 
L 15.671875 0 
L 6.9375 0 
L 6.9375 41.546875 
Q 6.9375 43.21875 6.90625 45.046875 
Q 6.890625 46.875 6.828125 48.5 
Q 6.78125 50.140625 6.734375 51.3125 
Q 6.6875 52.484375 6.640625 52.828125 
L 14.9375 52.828125 
Q 14.984375 52.59375 15.03125 51.515625 
Q 15.09375 50.4375 15.15625 49.046875 
Q 15.234375 47.65625 15.28125 46.21875 
Q 15.328125 44.78125 15.328125 43.796875 
L 15.484375 43.796875 
Q 16.65625 46.09375 18.015625 47.953125 
Q 19.390625 49.8125 21.21875 51.09375 
Q 23.046875 52.390625 25.40625 53.09375 
Q 27.78125 53.8125 30.90625 53.8125 
Q 36.921875 53.8125 40.40625 51.421875 
Q 43.890625 49.03125 45.265625 43.796875 
L 45.40625 43.796875 
Q 46.578125 46.09375 48.046875 47.953125 
Q 49.515625 49.8125 51.46875 51.09375 
Q 53.421875 52.390625 55.859375 53.09375 
Q 58.296875 53.8125 61.421875 53.8125 
Q 65.4375 53.8125 68.328125 52.734375 
Q 71.234375 51.65625 73.09375 49.40625 
Q 74.953125 47.171875 75.828125 43.625 
Q 76.703125 40.09375 76.703125 35.203125 
L 76.703125 0 
L 68.015625 0 
L 68.015625 33.5 
Q 68.015625 37.359375 67.53125 39.9375 
Q 67.046875 42.53125 65.890625 44.109375 
Q 64.75 45.703125 62.890625 46.359375 
Q 61.03125 47.015625 58.34375 47.015625 
Q 55.5625 47.015625 53.3125 45.96875 
Q 51.078125 44.921875 49.484375 42.875 
Q 47.90625 40.828125 47.046875 37.75 
Q 46.1875 34.671875 46.1875 30.609375 
L 46.1875 0 
z
" id="LiberationSans-6d"/>
      <path d="M 51.421875 26.65625 
Q 51.421875 -0.984375 31.984375 -0.984375 
Q 25.984375 -0.984375 22 1.1875 
Q 18.015625 3.375 15.53125 8.203125 
L 15.4375 8.203125 
Q 15.4375 6.9375 15.359375 5.5625 
Q 15.28125 4.203125 15.203125 3.03125 
Q 15.140625 1.859375 15.0625 1.03125 
Q 14.984375 0.203125 14.9375 0 
L 6.453125 0 
Q 6.5 0.4375 6.546875 1.484375 
Q 6.59375 2.546875 6.640625 4 
Q 6.6875 5.46875 6.703125 7.21875 
Q 6.734375 8.984375 6.734375 10.890625 
L 6.734375 72.46875 
L 15.53125 72.46875 
L 15.53125 51.8125 
Q 15.53125 50.34375 15.5 49 
Q 15.484375 47.65625 15.4375 46.625 
Q 15.375 45.40625 15.328125 44.34375 
L 15.53125 44.34375 
Q 17.96875 49.421875 22 51.609375 
Q 26.03125 53.8125 31.984375 53.8125 
Q 42 53.8125 46.703125 47.0625 
Q 51.421875 40.328125 51.421875 26.65625 
M 42.1875 26.375 
Q 42.1875 31.84375 41.5 35.75 
Q 40.828125 39.65625 39.3125 42.15625 
Q 37.796875 44.671875 35.453125 45.84375 
Q 33.109375 47.015625 29.734375 47.015625 
Q 26.265625 47.015625 23.609375 45.890625 
Q 20.953125 44.78125 19.171875 42.28125 
Q 17.390625 39.796875 16.453125 35.734375 
Q 15.53125 31.6875 15.53125 25.828125 
Q 15.53125 20.171875 16.453125 16.3125 
Q 17.390625 12.453125 19.171875 10.03125 
Q 20.953125 7.625 23.578125 6.5625 
Q 26.21875 5.515625 29.640625 5.515625 
Q 32.859375 5.515625 35.203125 6.640625 
Q 37.546875 7.765625 39.109375 10.25 
Q 40.671875 12.75 41.421875 16.71875 
Q 42.1875 20.703125 42.1875 26.375 
" id="LiberationSans-62"/>
      <path d="M 13.484375 24.5625 
Q 13.484375 20.40625 14.328125 16.90625 
Q 15.1875 13.421875 16.96875 10.90625 
Q 18.75 8.40625 21.53125 7 
Q 24.3125 5.609375 28.21875 5.609375 
Q 33.9375 5.609375 37.375 7.90625 
Q 40.828125 10.203125 42.046875 13.71875 
L 49.75 11.53125 
Q 48.921875 9.328125 47.4375 7.109375 
Q 45.953125 4.890625 43.453125 3.09375 
Q 40.96875 1.3125 37.234375 0.15625 
Q 33.5 -0.984375 28.21875 -0.984375 
Q 16.5 -0.984375 10.375 6 
Q 4.25 12.984375 4.25 26.765625 
Q 4.25 34.1875 6.09375 39.328125 
Q 7.953125 44.484375 11.171875 47.703125 
Q 14.40625 50.921875 18.703125 52.359375 
Q 23 53.8125 27.875 53.8125 
Q 34.515625 53.8125 38.984375 51.65625 
Q 43.453125 49.515625 46.15625 45.71875 
Q 48.875 41.9375 50.015625 36.8125 
Q 51.171875 31.6875 51.171875 25.734375 
L 51.171875 24.5625 
z
M 42.09375 31.296875 
Q 41.359375 39.65625 37.84375 43.484375 
Q 34.328125 47.3125 27.734375 47.3125 
Q 25.53125 47.3125 23.109375 46.609375 
Q 20.703125 45.90625 18.65625 44.09375 
Q 16.609375 42.28125 15.1875 39.171875 
Q 13.765625 36.078125 13.578125 31.296875 
z
" id="LiberationSans-65"/>
      <path d="M 6.9375 0 
L 6.9375 40.53125 
Q 6.9375 42.1875 6.90625 43.921875 
Q 6.890625 45.65625 6.828125 47.265625 
Q 6.78125 48.875 6.734375 50.28125 
Q 6.6875 51.703125 6.640625 52.828125 
L 14.9375 52.828125 
Q 14.984375 51.703125 15.0625 50.265625 
Q 15.140625 48.828125 15.203125 47.3125 
Q 15.28125 45.796875 15.296875 44.40625 
Q 15.328125 43.015625 15.328125 42.046875 
L 15.53125 42.046875 
Q 16.453125 45.0625 17.5 47.28125 
Q 18.5625 49.515625 19.96875 50.953125 
Q 21.390625 52.390625 23.34375 53.09375 
Q 25.296875 53.8125 28.078125 53.8125 
Q 29.15625 53.8125 30.125 53.640625 
Q 31.109375 53.46875 31.640625 53.328125 
L 31.640625 45.265625 
Q 30.765625 45.515625 29.59375 45.625 
Q 28.421875 45.75 26.953125 45.75 
Q 23.921875 45.75 21.796875 44.375 
Q 19.671875 43.015625 18.328125 40.59375 
Q 17 38.1875 16.359375 34.84375 
Q 15.71875 31.5 15.71875 27.546875 
L 15.71875 0 
z
" id="LiberationSans-72"/>
      <path id="LiberationSans-20"/>
      <path d="M 51.421875 26.46875 
Q 51.421875 12.59375 45.3125 5.796875 
Q 39.203125 -0.984375 27.59375 -0.984375 
Q 22.078125 -0.984375 17.71875 0.671875 
Q 13.375 2.34375 10.375 5.765625 
Q 7.375 9.1875 5.78125 14.328125 
Q 4.203125 19.484375 4.203125 26.46875 
Q 4.203125 53.8125 27.875 53.8125 
Q 34.03125 53.8125 38.5 52.09375 
Q 42.96875 50.390625 45.828125 46.96875 
Q 48.6875 43.5625 50.046875 38.421875 
Q 51.421875 33.296875 51.421875 26.46875 
M 42.1875 26.46875 
Q 42.1875 32.625 41.234375 36.625 
Q 40.28125 40.625 38.453125 43.015625 
Q 36.625 45.40625 33.984375 46.359375 
Q 31.34375 47.3125 28.03125 47.3125 
Q 24.65625 47.3125 21.9375 46.3125 
Q 19.234375 45.3125 17.328125 42.890625 
Q 15.4375 40.484375 14.421875 36.46875 
Q 13.421875 32.46875 13.421875 26.46875 
Q 13.421875 20.3125 14.5 16.28125 
Q 15.578125 12.25 17.453125 9.859375 
Q 19.34375 7.46875 21.90625 6.484375 
Q 24.46875 5.515625 27.484375 5.515625 
Q 30.859375 5.515625 33.59375 6.46875 
Q 36.328125 7.421875 38.234375 9.8125 
Q 40.140625 12.203125 41.15625 16.25 
Q 42.1875 20.3125 42.1875 26.46875 
" id="LiberationSans-6f"/>
      <path d="M 17.625 46.4375 
L 17.625 0 
L 8.84375 0 
L 8.84375 46.4375 
L 1.421875 46.4375 
L 1.421875 52.828125 
L 8.84375 52.828125 
L 8.84375 58.796875 
Q 8.84375 61.671875 9.375 64.140625 
Q 9.90625 66.609375 11.34375 68.4375 
Q 12.796875 70.265625 15.28125 71.3125 
Q 17.78125 72.359375 21.734375 72.359375 
Q 23.296875 72.359375 24.96875 72.21875 
Q 26.65625 72.078125 27.9375 71.78125 
L 27.9375 65.09375 
Q 27.09375 65.234375 26 65.359375 
Q 24.90625 65.484375 24.03125 65.484375 
Q 22.078125 65.484375 20.828125 64.9375 
Q 19.578125 64.40625 18.875 63.40625 
Q 18.171875 62.40625 17.890625 60.9375 
Q 17.625 59.46875 17.625 57.5625 
L 17.625 52.828125 
L 27.9375 52.828125 
L 27.9375 46.4375 
z
" id="LiberationSans-66"/>
      <path d="M 29.9375 0 
L 19.53125 0 
L 0.34375 52.828125 
L 9.71875 52.828125 
L 21.34375 18.453125 
Q 21.6875 17.390625 22.140625 15.84375 
Q 22.609375 14.3125 23.09375 12.640625 
Q 23.578125 10.984375 24 9.4375 
Q 24.421875 7.90625 24.703125 6.890625 
Q 25 7.90625 25.453125 9.4375 
Q 25.921875 10.984375 26.40625 12.59375 
Q 26.90625 14.203125 27.421875 15.734375 
Q 27.9375 17.28125 28.328125 18.359375 
L 40.328125 52.828125 
L 49.65625 52.828125 
z
" id="LiberationSans-76"/>
      <path d="M 6.6875 64.0625 
L 6.6875 72.46875 
L 15.484375 72.46875 
L 15.484375 64.0625 
z
M 6.6875 0 
L 6.6875 52.828125 
L 15.484375 52.828125 
L 15.484375 0 
z
" id="LiberationSans-69"/>
      <path d="M 57.328125 0 
L 47.125 0 
L 38.671875 34.078125 
Q 38.28125 35.40625 37.859375 37.359375 
Q 37.453125 39.3125 37.0625 41.15625 
Q 36.578125 43.3125 36.140625 45.609375 
Q 35.6875 43.40625 35.203125 41.265625 
Q 34.8125 39.40625 34.34375 37.40625 
Q 33.890625 35.40625 33.5 33.890625 
L 24.8125 0 
L 14.65625 0 
L -0.140625 52.828125 
L 8.546875 52.828125 
L 17.484375 16.9375 
Q 17.828125 15.828125 18.15625 14.1875 
Q 18.5 12.546875 18.84375 10.984375 
Q 19.1875 9.1875 19.578125 7.28125 
Q 19.96875 9.125 20.40625 10.890625 
Q 20.796875 12.40625 21.1875 13.96875 
Q 21.578125 15.53125 21.875 16.546875 
L 31.453125 52.828125 
L 40.875 52.828125 
L 50.09375 16.546875 
Q 50.4375 15.28125 50.828125 13.671875 
Q 51.21875 12.0625 51.5625 10.640625 
Q 51.953125 8.984375 52.34375 7.28125 
Q 52.734375 9.125 53.125 10.890625 
Q 53.46875 12.40625 53.828125 14.03125 
Q 54.203125 15.671875 54.546875 16.9375 
L 63.875 52.828125 
L 72.46875 52.828125 
z
" id="LiberationSans-77"/>
      <path d="M 46.390625 14.59375 
Q 46.390625 10.890625 44.9375 7.984375 
Q 43.5 5.078125 40.765625 3.09375 
Q 38.03125 1.125 34.046875 0.0625 
Q 30.078125 -0.984375 24.953125 -0.984375 
Q 20.359375 -0.984375 16.671875 -0.265625 
Q 12.984375 0.4375 10.203125 2 
Q 7.421875 3.5625 5.53125 6.125 
Q 3.65625 8.6875 2.78125 12.40625 
L 10.546875 13.921875 
Q 11.671875 9.671875 15.1875 7.6875 
Q 18.703125 5.71875 24.953125 5.71875 
Q 27.78125 5.71875 30.140625 6.109375 
Q 32.515625 6.5 34.21875 7.453125 
Q 35.9375 8.40625 36.890625 9.984375 
Q 37.84375 11.578125 37.84375 13.921875 
Q 37.84375 16.3125 36.71875 17.84375 
Q 35.59375 19.390625 33.59375 20.40625 
Q 31.59375 21.4375 28.734375 22.1875 
Q 25.875 22.953125 22.46875 23.875 
Q 19.28125 24.703125 16.15625 25.734375 
Q 13.03125 26.765625 10.515625 28.4375 
Q 8.015625 30.125 6.453125 32.609375 
Q 4.890625 35.109375 4.890625 38.875 
Q 4.890625 46.09375 10.03125 49.875 
Q 15.1875 53.65625 25.046875 53.65625 
Q 33.796875 53.65625 38.9375 50.578125 
Q 44.09375 47.515625 45.453125 40.71875 
L 37.546875 39.75 
Q 37.109375 41.796875 35.9375 43.1875 
Q 34.765625 44.578125 33.109375 45.4375 
Q 31.453125 46.296875 29.375 46.65625 
Q 27.296875 47.015625 25.046875 47.015625 
Q 19.09375 47.015625 16.25 45.203125 
Q 13.421875 43.40625 13.421875 39.75 
Q 13.421875 37.59375 14.46875 36.203125 
Q 15.53125 34.8125 17.40625 33.859375 
Q 19.28125 32.90625 21.921875 32.203125 
Q 24.5625 31.5 27.734375 30.71875 
Q 29.828125 30.171875 32.03125 29.5625 
Q 34.234375 28.953125 36.296875 28.09375 
Q 38.375 27.25 40.203125 26.09375 
Q 42.046875 24.953125 43.40625 23.34375 
Q 44.78125 21.734375 45.578125 19.578125 
Q 46.390625 17.4375 46.390625 14.59375 
" id="LiberationSans-73"/>
      <path d="M 6.203125 25.984375 
Q 6.203125 32.765625 7.21875 38.96875 
Q 8.25 45.171875 10.4375 50.875 
Q 12.640625 56.59375 16.0625 61.953125 
Q 19.484375 67.328125 24.21875 72.46875 
L 32.71875 72.46875 
Q 28.125 67.328125 24.78125 61.9375 
Q 21.4375 56.546875 19.28125 50.796875 
Q 17.140625 45.0625 16.09375 38.859375 
Q 15.046875 32.671875 15.046875 25.875 
Q 15.046875 19.09375 16.09375 12.890625 
Q 17.140625 6.6875 19.28125 0.921875 
Q 21.4375 -4.828125 24.78125 -10.203125 
Q 28.125 -15.578125 32.71875 -20.703125 
L 24.21875 -20.703125 
Q 19.484375 -15.578125 16.0625 -10.203125 
Q 12.640625 -4.828125 10.4375 0.875 
Q 8.25 6.59375 7.21875 12.765625 
Q 6.203125 18.953125 6.203125 25.78125 
z
" id="LiberationSans-28"/>
      <path d="M 6.734375 0 
L 6.734375 72.46875 
L 15.53125 72.46875 
L 15.53125 0 
z
" id="LiberationSans-6c"/>
      <path d="M 26.765625 -20.75 
Q 22.21875 -20.75 18.703125 -19.8125 
Q 15.1875 -18.890625 12.6875 -17.15625 
Q 10.203125 -15.4375 8.640625 -13.03125 
Q 7.078125 -10.640625 6.390625 -7.71875 
L 15.234375 -6.453125 
Q 16.109375 -10.109375 19.109375 -12.078125 
Q 22.125 -14.0625 27 -14.0625 
Q 29.984375 -14.0625 32.421875 -13.234375 
Q 34.859375 -12.40625 36.5625 -10.5625 
Q 38.28125 -8.734375 39.203125 -5.796875 
Q 40.140625 -2.875 40.140625 1.3125 
L 40.140625 9.8125 
L 40.046875 9.8125 
Q 39.0625 7.8125 37.625 5.984375 
Q 36.1875 4.15625 34.109375 2.734375 
Q 32.03125 1.3125 29.296875 0.453125 
Q 26.5625 -0.390625 23.046875 -0.390625 
Q 18.015625 -0.390625 14.421875 1.296875 
Q 10.84375 2.984375 8.5625 6.34375 
Q 6.296875 9.71875 5.25 14.71875 
Q 4.203125 19.734375 4.203125 26.3125 
Q 4.203125 32.671875 5.25 37.75 
Q 6.296875 42.828125 8.65625 46.359375 
Q 11.03125 49.90625 14.8125 51.78125 
Q 18.609375 53.65625 24.03125 53.65625 
Q 29.640625 53.65625 33.765625 51.09375 
Q 37.890625 48.53125 40.140625 43.796875 
L 40.234375 43.796875 
Q 40.234375 45.015625 40.296875 46.53125 
Q 40.375 48.046875 40.453125 49.390625 
Q 40.53125 50.734375 40.625 51.703125 
Q 40.71875 52.6875 40.828125 52.828125 
L 49.171875 52.828125 
Q 49.125 52.390625 49.078125 51.34375 
Q 49.03125 50.296875 48.96875 48.828125 
Q 48.921875 47.359375 48.890625 45.578125 
Q 48.875 43.796875 48.875 41.890625 
L 48.875 1.515625 
Q 48.875 -9.578125 43.421875 -15.15625 
Q 37.984375 -20.75 26.765625 -20.75 
M 40.140625 26.421875 
Q 40.140625 31.9375 38.9375 35.859375 
Q 37.75 39.796875 35.796875 42.28125 
Q 33.84375 44.78125 31.328125 45.953125 
Q 28.8125 47.125 26.171875 47.125 
Q 22.796875 47.125 20.375 45.953125 
Q 17.96875 44.78125 16.375 42.265625 
Q 14.796875 39.75 14.03125 35.8125 
Q 13.28125 31.890625 13.28125 26.421875 
Q 13.28125 20.703125 14.03125 16.8125 
Q 14.796875 12.9375 16.359375 10.546875 
Q 17.921875 8.15625 20.3125 7.125 
Q 22.703125 6.109375 26.03125 6.109375 
Q 28.65625 6.109375 31.171875 7.21875 
Q 33.6875 8.34375 35.6875 10.78125 
Q 37.703125 13.234375 38.921875 17.09375 
Q 40.140625 20.953125 40.140625 26.421875 
" id="LiberationSans-67"/>
      <path d="M 27.046875 0.390625 
Q 25.046875 -0.140625 22.96875 -0.453125 
Q 20.90625 -0.78125 18.171875 -0.78125 
Q 7.625 -0.78125 7.625 11.1875 
L 7.625 46.4375 
L 1.515625 46.4375 
L 1.515625 52.828125 
L 7.953125 52.828125 
L 10.546875 64.65625 
L 16.40625 64.65625 
L 16.40625 52.828125 
L 26.171875 52.828125 
L 26.171875 46.4375 
L 16.40625 46.4375 
L 16.40625 13.09375 
Q 16.40625 9.28125 17.640625 7.734375 
Q 18.890625 6.203125 21.96875 6.203125 
Q 23.25 6.203125 24.4375 6.390625 
Q 25.640625 6.59375 27.046875 6.890625 
z
" id="LiberationSans-74"/>
      <path d="M 20.21875 -0.984375 
Q 12.25 -0.984375 8.25 3.21875 
Q 4.25 7.421875 4.25 14.75 
Q 4.25 19.96875 6.21875 23.3125 
Q 8.203125 26.65625 11.390625 28.5625 
Q 14.59375 30.46875 18.6875 31.203125 
Q 22.796875 31.9375 27.046875 32.03125 
L 38.921875 32.234375 
L 38.921875 35.109375 
Q 38.921875 38.375 38.234375 40.671875 
Q 37.546875 42.96875 36.125 44.375 
Q 34.71875 45.796875 32.59375 46.453125 
Q 30.46875 47.125 27.59375 47.125 
Q 25.046875 47.125 23 46.75 
Q 20.953125 46.390625 19.4375 45.4375 
Q 17.921875 44.484375 16.984375 42.84375 
Q 16.0625 41.21875 15.765625 38.71875 
L 6.59375 39.546875 
Q 7.078125 42.671875 8.4375 45.28125 
Q 9.8125 47.90625 12.328125 49.796875 
Q 14.84375 51.703125 18.625 52.75 
Q 22.40625 53.8125 27.78125 53.8125 
Q 37.75 53.8125 42.765625 49.234375 
Q 47.796875 44.671875 47.796875 36.03125 
L 47.796875 13.28125 
Q 47.796875 9.375 48.828125 7.390625 
Q 49.859375 5.421875 52.734375 5.421875 
Q 53.46875 5.421875 54.203125 5.515625 
Q 54.9375 5.609375 55.609375 5.765625 
L 55.609375 0.296875 
Q 53.953125 -0.09375 52.3125 -0.28125 
Q 50.6875 -0.484375 48.828125 -0.484375 
Q 46.34375 -0.484375 44.5625 0.171875 
Q 42.78125 0.828125 41.65625 2.171875 
Q 40.53125 3.515625 39.9375 5.484375 
Q 39.359375 7.46875 39.203125 10.109375 
L 38.921875 10.109375 
Q 37.5 7.5625 35.8125 5.515625 
Q 34.125 3.46875 31.875 2.03125 
Q 29.640625 0.59375 26.78125 -0.1875 
Q 23.921875 -0.984375 20.21875 -0.984375 
M 22.21875 5.609375 
Q 26.421875 5.609375 29.5625 7.140625 
Q 32.71875 8.6875 34.78125 11.078125 
Q 36.859375 13.484375 37.890625 16.3125 
Q 38.921875 19.140625 38.921875 21.734375 
L 38.921875 26.078125 
L 29.296875 25.875 
Q 26.078125 25.828125 23.171875 25.40625 
Q 20.265625 25 18.0625 23.78125 
Q 15.875 22.5625 14.578125 20.359375 
Q 13.28125 18.171875 13.28125 14.59375 
Q 13.28125 10.296875 15.59375 7.953125 
Q 17.921875 5.609375 22.21875 5.609375 
" id="LiberationSans-61"/>
      <path d="M 40.28125 0 
L 40.28125 33.5 
Q 40.28125 37.359375 39.71875 39.9375 
Q 39.15625 42.53125 37.890625 44.109375 
Q 36.625 45.703125 34.546875 46.359375 
Q 32.46875 47.015625 29.390625 47.015625 
Q 26.265625 47.015625 23.75 45.921875 
Q 21.234375 44.828125 19.453125 42.75 
Q 17.671875 40.671875 16.6875 37.625 
Q 15.71875 34.578125 15.71875 30.609375 
L 15.71875 0 
L 6.9375 0 
L 6.9375 41.546875 
Q 6.9375 43.21875 6.90625 45.046875 
Q 6.890625 46.875 6.828125 48.5 
Q 6.78125 50.140625 6.734375 51.3125 
Q 6.6875 52.484375 6.640625 52.828125 
L 14.9375 52.828125 
Q 14.984375 52.59375 15.03125 51.515625 
Q 15.09375 50.4375 15.15625 49.046875 
Q 15.234375 47.65625 15.28125 46.21875 
Q 15.328125 44.78125 15.328125 43.796875 
L 15.484375 43.796875 
Q 16.75 46.09375 18.265625 47.953125 
Q 19.78125 49.8125 21.78125 51.09375 
Q 23.78125 52.390625 26.359375 53.09375 
Q 28.953125 53.8125 32.375 53.8125 
Q 36.765625 53.8125 39.9375 52.734375 
Q 43.109375 51.65625 45.15625 49.40625 
Q 47.21875 47.171875 48.171875 43.625 
Q 49.125 40.09375 49.125 35.203125 
L 49.125 0 
z
" id="LiberationSans-6e"/>
      <path d="M 40.09375 8.5 
Q 37.640625 3.421875 33.609375 1.21875 
Q 29.59375 -0.984375 23.640625 -0.984375 
Q 13.625 -0.984375 8.90625 5.75 
Q 4.203125 12.5 4.203125 26.171875 
Q 4.203125 53.8125 23.640625 53.8125 
Q 29.640625 53.8125 33.640625 51.609375 
Q 37.640625 49.421875 40.09375 44.625 
L 40.1875 44.625 
Q 40.1875 45.125 40.15625 46.171875 
Q 40.140625 47.21875 40.109375 48.359375 
Q 40.09375 49.515625 40.09375 50.53125 
Q 40.09375 51.5625 40.09375 52 
L 40.09375 72.46875 
L 48.875 72.46875 
L 48.875 10.890625 
Q 48.875 8.984375 48.890625 7.21875 
Q 48.921875 5.46875 48.96875 4 
Q 49.03125 2.546875 49.078125 1.484375 
Q 49.125 0.4375 49.171875 0 
L 40.765625 0 
Q 40.671875 0.484375 40.59375 1.390625 
Q 40.53125 2.296875 40.453125 3.46875 
Q 40.375 4.640625 40.328125 5.9375 
Q 40.28125 7.234375 40.28125 8.5 
z
M 13.421875 26.46875 
Q 13.421875 21 14.109375 17.09375 
Q 14.796875 13.1875 16.3125 10.671875 
Q 17.828125 8.15625 20.171875 6.984375 
Q 22.515625 5.8125 25.875 5.8125 
Q 29.34375 5.8125 32 6.9375 
Q 34.671875 8.0625 36.453125 10.578125 
Q 38.234375 13.09375 39.15625 17.140625 
Q 40.09375 21.1875 40.09375 27.046875 
Q 40.09375 32.671875 39.15625 36.546875 
Q 38.234375 40.4375 36.421875 42.828125 
Q 34.625 45.21875 32 46.265625 
Q 29.390625 47.3125 25.984375 47.3125 
Q 22.75 47.3125 20.40625 46.1875 
Q 18.0625 45.0625 16.5 42.578125 
Q 14.9375 40.09375 14.171875 36.109375 
Q 13.421875 32.125 13.421875 26.46875 
" id="LiberationSans-64"/>
      <path d="M 27.09375 25.78125 
Q 27.09375 18.953125 26.0625 12.765625 
Q 25.046875 6.59375 22.84375 0.875 
Q 20.65625 -4.828125 17.234375 -10.203125 
Q 13.8125 -15.578125 9.078125 -20.703125 
L 0.59375 -20.703125 
Q 5.171875 -15.578125 8.515625 -10.203125 
Q 11.859375 -4.828125 14 0.921875 
Q 16.15625 6.6875 17.203125 12.890625 
Q 18.265625 19.09375 18.265625 25.875 
Q 18.265625 32.671875 17.203125 38.859375 
Q 16.15625 45.0625 14 50.796875 
Q 11.859375 56.546875 8.515625 61.9375 
Q 5.171875 67.328125 0.59375 72.46875 
L 9.078125 72.46875 
Q 13.8125 67.328125 17.234375 61.953125 
Q 20.65625 56.59375 22.84375 50.875 
Q 25.046875 45.171875 26.0625 38.96875 
Q 27.09375 32.765625 27.09375 25.984375 
z
" id="LiberationSans-29"/>
     </defs>
     <g style="fill:#262626;" transform="translate(505.929844 282.4675)scale(0.14 -0.14)">
      <use xlink:href="#LiberationSans-4e"/>
      <use x="72.216797" xlink:href="#LiberationSans-75"/>
      <use x="127.832031" xlink:href="#LiberationSans-6d"/>
      <use x="211.132812" xlink:href="#LiberationSans-62"/>
      <use x="266.748047" xlink:href="#LiberationSans-65"/>
      <use x="322.363281" xlink:href="#LiberationSans-72"/>
      <use x="355.664062" xlink:href="#LiberationSans-20"/>
      <use x="383.447266" xlink:href="#LiberationSans-6f"/>
      <use x="439.0625" xlink:href="#LiberationSans-66"/>
      <use x="466.845703" xlink:href="#LiberationSans-20"/>
      <use x="494.628906" xlink:href="#LiberationSans-72"/>
      <use x="527.929688" xlink:href="#LiberationSans-65"/>
      <use x="583.544922" xlink:href="#LiberationSans-76"/>
      <use x="633.544922" xlink:href="#LiberationSans-69"/>
      <use x="655.761719" xlink:href="#LiberationSans-65"/>
      <use x="711.376953" xlink:href="#LiberationSans-77"/>
      <use x="783.59375" xlink:href="#LiberationSans-73"/>
      <use x="833.59375" xlink:href="#LiberationSans-20"/>
      <use x="861.376953" xlink:href="#LiberationSans-28"/>
      <use x="894.677734" xlink:href="#LiberationSans-6c"/>
      <use x="916.894531" xlink:href="#LiberationSans-6f"/>
      <use x="972.509766" xlink:href="#LiberationSans-67"/>
      <use x="1028.125" xlink:href="#LiberationSans-31"/>
      <use x="1083.740234" xlink:href="#LiberationSans-30"/>
      <use x="1139.355469" xlink:href="#LiberationSans-20"/>
      <use x="1167.138672" xlink:href="#LiberationSans-74"/>
      <use x="1194.921875" xlink:href="#LiberationSans-72"/>
      <use x="1228.222656" xlink:href="#LiberationSans-61"/>
      <use x="1283.837891" xlink:href="#LiberationSans-6e"/>
      <use x="1339.453125" xlink:href="#LiberationSans-73"/>
      <use x="1389.453125" xlink:href="#LiberationSans-66"/>
      <use x="1417.236328" xlink:href="#LiberationSans-6f"/>
      <use x="1472.851562" xlink:href="#LiberationSans-72"/>
      <use x="1506.152344" xlink:href="#LiberationSans-6d"/>
      <use x="1589.453125" xlink:href="#LiberationSans-65"/>
      <use x="1645.068359" xlink:href="#LiberationSans-64"/>
      <use x="1700.683594" xlink:href="#LiberationSans-29"/>
     </g>
    </g>
   </g>
   <g id="matplotlib.axis_2">
    <g id="ytick_1">
     <g id="line2d_17">
      <path clip-path="url(#pb994ddb6a4)" d="M 153 252 
L 1101.6 252 
" style="fill:none;stroke:#ffffff;stroke-linecap:round;"/>
     </g>
     <g id="line2d_18"/>
     <g id="text_10">
      <!-- 0 -->
      <g style="fill:#262626;" transform="translate(140.439063 255.623437)scale(0.1 -0.1)">
       <use xlink:href="#LiberationSans-30"/>
      </g>
     </g>
    </g>
    <g id="ytick_2">
     <g id="line2d_19">
      <path clip-path="url(#pb994ddb6a4)" d="M 153 208.384643 
L 1101.6 208.384643 
" style="fill:none;stroke:#ffffff;stroke-linecap:round;"/>
     </g>
     <g id="line2d_20"/>
     <g id="text_11">
      <!-- 5000 -->
      <g style="fill:#262626;" transform="translate(123.75625 212.008081)scale(0.1 -0.1)">
       <use xlink:href="#LiberationSans-35"/>
       <use x="55.615234" xlink:href="#LiberationSans-30"/>
       <use x="111.230469" xlink:href="#LiberationSans-30"/>
       <use x="166.845703" xlink:href="#LiberationSans-30"/>
      </g>
     </g>
    </g>
    <g id="ytick_3">
     <g id="line2d_21">
      <path clip-path="url(#pb994ddb6a4)" d="M 153 164.769286 
L 1101.6 164.769286 
" style="fill:none;stroke:#ffffff;stroke-linecap:round;"/>
     </g>
     <g id="line2d_22"/>
     <g id="text_12">
      <!-- 10000 -->
      <g style="fill:#262626;" transform="translate(118.195312 168.392724)scale(0.1 -0.1)">
       <use xlink:href="#LiberationSans-31"/>
       <use x="55.615234" xlink:href="#LiberationSans-30"/>
       <use x="111.230469" xlink:href="#LiberationSans-30"/>
       <use x="166.845703" xlink:href="#LiberationSans-30"/>
       <use x="222.460938" xlink:href="#LiberationSans-30"/>
      </g>
     </g>
    </g>
    <g id="ytick_4">
     <g id="line2d_23">
      <path clip-path="url(#pb994ddb6a4)" d="M 153 121.153929 
L 1101.6 121.153929 
" style="fill:none;stroke:#ffffff;stroke-linecap:round;"/>
     </g>
     <g id="line2d_24"/>
     <g id="text_13">
      <!-- 15000 -->
      <g style="fill:#262626;" transform="translate(118.195312 124.777367)scale(0.1 -0.1)">
       <use xlink:href="#LiberationSans-31"/>
       <use x="55.615234" xlink:href="#LiberationSans-35"/>
       <use x="111.230469" xlink:href="#LiberationSans-30"/>
       <use x="166.845703" xlink:href="#LiberationSans-30"/>
       <use x="222.460938" xlink:href="#LiberationSans-30"/>
      </g>
     </g>
    </g>
    <g id="ytick_5">
     <g id="line2d_25">
      <path clip-path="url(#pb994ddb6a4)" d="M 153 77.538573 
L 1101.6 77.538573 
" style="fill:none;stroke:#ffffff;stroke-linecap:round;"/>
     </g>
     <g id="line2d_26"/>
     <g id="text_14">
      <!-- 20000 -->
      <g style="fill:#262626;" transform="translate(118.195312 81.16201)scale(0.1 -0.1)">
       <use xlink:href="#LiberationSans-32"/>
       <use x="55.615234" xlink:href="#LiberationSans-30"/>
       <use x="111.230469" xlink:href="#LiberationSans-30"/>
       <use x="166.845703" xlink:href="#LiberationSans-30"/>
       <use x="222.460938" xlink:href="#LiberationSans-30"/>
      </g>
     </g>
    </g>
    <g id="text_15">
     <!-- Number of beers -->
     <g style="fill:#262626;" transform="translate(111.290312 195.410313)rotate(-90)scale(0.14 -0.14)">
      <use xlink:href="#LiberationSans-4e"/>
      <use x="72.216797" xlink:href="#LiberationSans-75"/>
      <use x="127.832031" xlink:href="#LiberationSans-6d"/>
      <use x="211.132812" xlink:href="#LiberationSans-62"/>
      <use x="266.748047" xlink:href="#LiberationSans-65"/>
      <use x="322.363281" xlink:href="#LiberationSans-72"/>
      <use x="355.664062" xlink:href="#LiberationSans-20"/>
      <use x="383.447266" xlink:href="#LiberationSans-6f"/>
      <use x="439.0625" xlink:href="#LiberationSans-66"/>
      <use x="466.845703" xlink:href="#LiberationSans-20"/>
      <use x="494.628906" xlink:href="#LiberationSans-62"/>
      <use x="550.244141" xlink:href="#LiberationSans-65"/>
      <use x="605.859375" xlink:href="#LiberationSans-65"/>
      <use x="661.474609" xlink:href="#LiberationSans-72"/>
      <use x="694.775391" xlink:href="#LiberationSans-73"/>
     </g>
    </g>
   </g>
   <g id="patch_3">
    <path clip-path="url(#pb994ddb6a4)" d="M 196.118182 252 
L 213.365455 252 
L 213.365455 44.914286 
L 196.118182 44.914286 
z
" style="fill:#4c72b0;opacity:0.4;"/>
   </g>
   <g id="patch_4">
    <path clip-path="url(#pb994ddb6a4)" d="M 213.365455 252 
L 230.612727 252 
L 230.612727 252 
L 213.365455 252 
z
" style="fill:#4c72b0;opacity:0.4;"/>
   </g>
   <g id="patch_5">
    <path clip-path="url(#pb994ddb6a4)" d="M 230.612727 252 
L 247.86 252 
L 247.86 252 
L 230.612727 252 
z
" style="fill:#4c72b0;opacity:0.4;"/>
   </g>
   <g id="patch_6">
    <path clip-path="url(#pb994ddb6a4)" d="M 247.86 252 
L 265.107273 252 
L 265.107273 252 
L 247.86 252 
z
" style="fill:#4c72b0;opacity:0.4;"/>
   </g>
   <g id="patch_7">
    <path clip-path="url(#pb994ddb6a4)" d="M 265.107273 252 
L 282.354545 252 
L 282.354545 161.227719 
L 265.107273 161.227719 
z
" style="fill:#4c72b0;opacity:0.4;"/>
   </g>
   <g id="patch_8">
    <path clip-path="url(#pb994ddb6a4)" d="M 282.354545 252 
L 299.601818 252 
L 299.601818 252 
L 282.354545 252 
z
" style="fill:#4c72b0;opacity:0.4;"/>
   </g>
   <g id="patch_9">
    <path clip-path="url(#pb994ddb6a4)" d="M 299.601818 252 
L 316.849091 252 
L 316.849091 201.720217 
L 299.601818 201.720217 
z
" style="fill:#4c72b0;opacity:0.4;"/>
   </g>
   <g id="patch_10">
    <path clip-path="url(#pb994ddb6a4)" d="M 316.849091 252 
L 334.096364 252 
L 334.096364 252 
L 316.849091 252 
z
" style="fill:#4c72b0;opacity:0.4;"/>
   </g>
   <g id="patch_11">
    <path clip-path="url(#pb994ddb6a4)" d="M 334.096364 252 
L 351.343636 252 
L 351.343636 219.14019 
L 334.096364 219.14019 
z
" style="fill:#4c72b0;opacity:0.4;"/>
   </g>
   <g id="patch_12">
    <path clip-path="url(#pb994ddb6a4)" d="M 351.343636 252 
L 368.590909 252 
L 368.590909 229.450861 
L 351.343636 229.450861 
z
" style="fill:#4c72b0;opacity:0.4;"/>
   </g>
   <g id="patch_13">
    <path clip-path="url(#pb994ddb6a4)" d="M 368.590909 252 
L 385.838182 252 
L 385.838182 252 
L 368.590909 252 
z
" style="fill:#4c72b0;opacity:0.4;"/>
   </g>
   <g id="patch_14">
    <path clip-path="url(#pb994ddb6a4)" d="M 385.838182 252 
L 403.085455 252 
L 403.085455 235.330211 
L 385.838182 235.330211 
z
" style="fill:#4c72b0;opacity:0.4;"/>
   </g>
   <g id="patch_15">
    <path clip-path="url(#pb994ddb6a4)" d="M 403.085455 252 
L 420.332727 252 
L 420.332727 228.561107 
L 403.085455 228.561107 
z
" style="fill:#4c72b0;opacity:0.4;"/>
   </g>
   <g id="patch_16">
    <path clip-path="url(#pb994ddb6a4)" d="M 420.332727 252 
L 437.58 252 
L 437.58 243.56479 
L 420.332727 243.56479 
z
" style="fill:#4c72b0;opacity:0.4;"/>
   </g>
   <g id="patch_17">
    <path clip-path="url(#pb994ddb6a4)" d="M 437.58 252 
L 454.827273 252 
L 454.827273 238.854331 
L 437.58 238.854331 
z
" style="fill:#4c72b0;opacity:0.4;"/>
   </g>
   <g id="patch_18">
    <path clip-path="url(#pb994ddb6a4)" d="M 454.827273 252 
L 472.074545 252 
L 472.074545 241.532314 
L 454.827273 241.532314 
z
" style="fill:#4c72b0;opacity:0.4;"/>
   </g>
   <g id="patch_19">
    <path clip-path="url(#pb994ddb6a4)" d="M 472.074545 252 
L 489.321818 252 
L 489.321818 243.800313 
L 472.074545 243.800313 
z
" style="fill:#4c72b0;opacity:0.4;"/>
   </g>
   <g id="patch_20">
    <path clip-path="url(#pb994ddb6a4)" d="M 489.321818 252 
L 506.569091 252 
L 506.569091 242.256329 
L 489.321818 242.256329 
z
" style="fill:#4c72b0;opacity:0.4;"/>
   </g>
   <g id="patch_21">
    <path clip-path="url(#pb994ddb6a4)" d="M 506.569091 252 
L 523.816364 252 
L 523.816364 245.300681 
L 506.569091 245.300681 
z
" style="fill:#4c72b0;opacity:0.4;"/>
   </g>
   <g id="patch_22">
    <path clip-path="url(#pb994ddb6a4)" d="M 523.816364 252 
L 541.063636 252 
L 541.063636 244.602835 
L 523.816364 244.602835 
z
" style="fill:#4c72b0;opacity:0.4;"/>
   </g>
   <g id="patch_23">
    <path clip-path="url(#pb994ddb6a4)" d="M 541.063636 252 
L 558.310909 252 
L 558.310909 244.890697 
L 541.063636 244.890697 
z
" style="fill:#4c72b0;opacity:0.4;"/>
   </g>
   <g id="patch_24">
    <path clip-path="url(#pb994ddb6a4)" d="M 558.310909 252 
L 575.558182 252 
L 575.558182 246.495742 
L 558.310909 246.495742 
z
" style="fill:#4c72b0;opacity:0.4;"/>
   </g>
   <g id="patch_25">
    <path clip-path="url(#pb994ddb6a4)" d="M 575.558182 252 
L 592.805455 252 
L 592.805455 246.748711 
L 575.558182 246.748711 
z
" style="fill:#4c72b0;opacity:0.4;"/>
   </g>
   <g id="patch_26">
    <path clip-path="url(#pb994ddb6a4)" d="M 592.805455 252 
L 610.052727 252 
L 610.052727 247.045295 
L 592.805455 247.045295 
z
" style="fill:#4c72b0;opacity:0.4;"/>
   </g>
   <g id="patch_27">
    <path clip-path="url(#pb994ddb6a4)" d="M 610.052727 252 
L 627.3 252 
L 627.3 246.844665 
L 610.052727 246.844665 
z
" style="fill:#4c72b0;opacity:0.4;"/>
   </g>
   <g id="patch_28">
    <path clip-path="url(#pb994ddb6a4)" d="M 627.3 252 
L 644.547273 252 
L 644.547273 247.56868 
L 627.3 247.56868 
z
" style="fill:#4c72b0;opacity:0.4;"/>
   </g>
   <g id="patch_29">
    <path clip-path="url(#pb994ddb6a4)" d="M 644.547273 252 
L 661.794545 252 
L 661.794545 247.699526 
L 644.547273 247.699526 
z
" style="fill:#4c72b0;opacity:0.4;"/>
   </g>
   <g id="patch_30">
    <path clip-path="url(#pb994ddb6a4)" d="M 661.794545 252 
L 679.041818 252 
L 679.041818 248.589279 
L 661.794545 248.589279 
z
" style="fill:#4c72b0;opacity:0.4;"/>
   </g>
   <g id="patch_31">
    <path clip-path="url(#pb994ddb6a4)" d="M 679.041818 252 
L 696.289091 252 
L 696.289091 248.842248 
L 679.041818 248.842248 
z
" style="fill:#4c72b0;opacity:0.4;"/>
   </g>
   <g id="patch_32">
    <path clip-path="url(#pb994ddb6a4)" d="M 696.289091 252 
L 713.536364 252 
L 713.536364 249.147556 
L 696.289091 249.147556 
z
" style="fill:#4c72b0;opacity:0.4;"/>
   </g>
   <g id="patch_33">
    <path clip-path="url(#pb994ddb6a4)" d="M 713.536364 252 
L 730.783636 252 
L 730.783636 248.920756 
L 713.536364 248.920756 
z
" style="fill:#4c72b0;opacity:0.4;"/>
   </g>
   <g id="patch_34">
    <path clip-path="url(#pb994ddb6a4)" d="M 730.783636 252 
L 748.030909 252 
L 748.030909 249.618602 
L 730.783636 249.618602 
z
" style="fill:#4c72b0;opacity:0.4;"/>
   </g>
   <g id="patch_35">
    <path clip-path="url(#pb994ddb6a4)" d="M 748.030909 252 
L 765.278182 252 
L 765.278182 249.618602 
L 748.030909 249.618602 
z
" style="fill:#4c72b0;opacity:0.4;"/>
   </g>
   <g id="patch_36">
    <path clip-path="url(#pb994ddb6a4)" d="M 765.278182 252 
L 782.525455 252 
L 782.525455 250.002417 
L 765.278182 250.002417 
z
" style="fill:#4c72b0;opacity:0.4;"/>
   </g>
   <g id="patch_37">
    <path clip-path="url(#pb994ddb6a4)" d="M 782.525455 252 
L 799.772727 252 
L 799.772727 249.976247 
L 782.525455 249.976247 
z
" style="fill:#4c72b0;opacity:0.4;"/>
   </g>
   <g id="patch_38">
    <path clip-path="url(#pb994ddb6a4)" d="M 799.772727 252 
L 817.02 252 
L 817.02 250.168155 
L 799.772727 250.168155 
z
" style="fill:#4c72b0;opacity:0.4;"/>
   </g>
   <g id="patch_39">
    <path clip-path="url(#pb994ddb6a4)" d="M 817.02 252 
L 834.267273 252 
L 834.267273 250.403678 
L 817.02 250.403678 
z
" style="fill:#4c72b0;opacity:0.4;"/>
   </g>
   <g id="patch_40">
    <path clip-path="url(#pb994ddb6a4)" d="M 834.267273 252 
L 851.514545 252 
L 851.514545 250.560693 
L 834.267273 250.560693 
z
" style="fill:#4c72b0;opacity:0.4;"/>
   </g>
   <g id="patch_41">
    <path clip-path="url(#pb994ddb6a4)" d="M 851.514545 252 
L 868.761818 252 
L 868.761818 250.935785 
L 851.514545 250.935785 
z
" style="fill:#4c72b0;opacity:0.4;"/>
   </g>
   <g id="patch_42">
    <path clip-path="url(#pb994ddb6a4)" d="M 868.761818 252 
L 886.009091 252 
L 886.009091 251.057908 
L 868.761818 251.057908 
z
" style="fill:#4c72b0;opacity:0.4;"/>
   </g>
   <g id="patch_43">
    <path clip-path="url(#pb994ddb6a4)" d="M 886.009091 252 
L 903.256364 252 
L 903.256364 251.066631 
L 886.009091 251.066631 
z
" style="fill:#4c72b0;opacity:0.4;"/>
   </g>
   <g id="patch_44">
    <path clip-path="url(#pb994ddb6a4)" d="M 903.256364 252 
L 920.503636 252 
L 920.503636 251.302154 
L 903.256364 251.302154 
z
" style="fill:#4c72b0;opacity:0.4;"/>
   </g>
   <g id="patch_45">
    <path clip-path="url(#pb994ddb6a4)" d="M 920.503636 252 
L 937.750909 252 
L 937.750909 251.537677 
L 920.503636 251.537677 
z
" style="fill:#4c72b0;opacity:0.4;"/>
   </g>
   <g id="patch_46">
    <path clip-path="url(#pb994ddb6a4)" d="M 937.750909 252 
L 954.998182 252 
L 954.998182 251.5464 
L 937.750909 251.5464 
z
" style="fill:#4c72b0;opacity:0.4;"/>
   </g>
   <g id="patch_47">
    <path clip-path="url(#pb994ddb6a4)" d="M 954.998182 252 
L 972.245455 252 
L 972.245455 251.651077 
L 954.998182 251.651077 
z
" style="fill:#4c72b0;opacity:0.4;"/>
   </g>
   <g id="patch_48">
    <path clip-path="url(#pb994ddb6a4)" d="M 972.245455 252 
L 989.492727 252 
L 989.492727 251.729585 
L 972.245455 251.729585 
z
" style="fill:#4c72b0;opacity:0.4;"/>
   </g>
   <g id="patch_49">
    <path clip-path="url(#pb994ddb6a4)" d="M 989.492727 252 
L 1006.74 252 
L 1006.74 251.816816 
L 989.492727 251.816816 
z
" style="fill:#4c72b0;opacity:0.4;"/>
   </g>
   <g id="patch_50">
    <path clip-path="url(#pb994ddb6a4)" d="M 1006.74 252 
L 1023.987273 252 
L 1023.987273 251.912769 
L 1006.74 251.912769 
z
" style="fill:#4c72b0;opacity:0.4;"/>
   </g>
   <g id="patch_51">
    <path clip-path="url(#pb994ddb6a4)" d="M 1023.987273 252 
L 1041.234545 252 
L 1041.234545 251.869154 
L 1023.987273 251.869154 
z
" style="fill:#4c72b0;opacity:0.4;"/>
   </g>
   <g id="patch_52">
    <path clip-path="url(#pb994ddb6a4)" d="M 1041.234545 252 
L 1058.481818 252 
L 1058.481818 251.973831 
L 1041.234545 251.973831 
z
" style="fill:#4c72b0;opacity:0.4;"/>
   </g>
   <g id="patch_53">
    <path d="M 153 252 
L 153 34.56 
" style="fill:none;"/>
   </g>
   <g id="patch_54">
    <path d="M 1101.6 252 
L 1101.6 34.56 
" style="fill:none;"/>
   </g>
   <g id="patch_55">
    <path d="M 153 252 
L 1101.6 252 
" style="fill:none;"/>
   </g>
   <g id="patch_56">
    <path d="M 153 34.56 
L 1101.6 34.56 
" style="fill:none;"/>
   </g>
  </g>
  <g id="text_16">
   <!-- Distribution of beer reviews -->
   <defs>
    <path d="M 67.4375 35.109375 
Q 67.4375 26.515625 64.84375 19.9375 
Q 62.25 13.375 57.75 8.953125 
Q 53.265625 4.546875 47.140625 2.265625 
Q 41.015625 0 33.9375 0 
L 8.203125 0 
L 8.203125 68.796875 
L 30.953125 68.796875 
Q 38.921875 68.796875 45.625 66.8125 
Q 52.34375 64.84375 57.171875 60.71875 
Q 62.015625 56.59375 64.71875 50.234375 
Q 67.4375 43.890625 67.4375 35.109375 
M 58.0625 35.109375 
Q 58.0625 42.09375 56.046875 47.046875 
Q 54.046875 52 50.4375 55.171875 
Q 46.828125 58.34375 41.796875 59.828125 
Q 36.765625 61.328125 30.765625 61.328125 
L 17.53125 61.328125 
L 17.53125 7.46875 
L 32.859375 7.46875 
Q 38.28125 7.46875 42.890625 9.21875 
Q 47.515625 10.984375 50.875 14.453125 
Q 54.25 17.921875 56.15625 23.09375 
Q 58.0625 28.265625 58.0625 35.109375 
" id="LiberationSans-44"/>
   </defs>
   <g style="fill:#262626;" transform="translate(491.401563 20.25375)scale(0.2 -0.2)">
    <use xlink:href="#LiberationSans-44"/>
    <use x="72.216797" xlink:href="#LiberationSans-69"/>
    <use x="94.433594" xlink:href="#LiberationSans-73"/>
    <use x="144.433594" xlink:href="#LiberationSans-74"/>
    <use x="172.216797" xlink:href="#LiberationSans-72"/>
    <use x="205.517578" xlink:href="#LiberationSans-69"/>
    <use x="227.734375" xlink:href="#LiberationSans-62"/>
    <use x="283.349609" xlink:href="#LiberationSans-75"/>
    <use x="338.964844" xlink:href="#LiberationSans-74"/>
    <use x="366.748047" xlink:href="#LiberationSans-69"/>
    <use x="388.964844" xlink:href="#LiberationSans-6f"/>
    <use x="444.580078" xlink:href="#LiberationSans-6e"/>
    <use x="500.195312" xlink:href="#LiberationSans-20"/>
    <use x="527.978516" xlink:href="#LiberationSans-6f"/>
    <use x="583.59375" xlink:href="#LiberationSans-66"/>
    <use x="611.376953" xlink:href="#LiberationSans-20"/>
    <use x="639.160156" xlink:href="#LiberationSans-62"/>
    <use x="694.775391" xlink:href="#LiberationSans-65"/>
    <use x="750.390625" xlink:href="#LiberationSans-65"/>
    <use x="806.005859" xlink:href="#LiberationSans-72"/>
    <use x="839.306641" xlink:href="#LiberationSans-20"/>
    <use x="867.089844" xlink:href="#LiberationSans-72"/>
    <use x="900.390625" xlink:href="#LiberationSans-65"/>
    <use x="956.005859" xlink:href="#LiberationSans-76"/>
    <use x="1006.005859" xlink:href="#LiberationSans-69"/>
    <use x="1028.222656" xlink:href="#LiberationSans-65"/>
    <use x="1083.837891" xlink:href="#LiberationSans-77"/>
    <use x="1156.054688" xlink:href="#LiberationSans-73"/>
   </g>
  </g>
 </g>
 <defs>
  <clipPath id="pb994ddb6a4">
   <rect height="217.44" width="948.6" x="153" y="34.56"/>
  </clipPath>
 </defs>
</svg>
