<?xml version="1.0" encoding="utf-8" standalone="no"?>
<!DOCTYPE svg PUBLIC "-//W3C//DTD SVG 1.1//EN"
  "http://www.w3.org/Graphics/SVG/1.1/DTD/svg11.dtd">
<!-- Created with matplotlib (http://matplotlib.org/) -->
<svg height="576pt" version="1.1" viewBox="0 0 864 576" width="864pt" xmlns="http://www.w3.org/2000/svg" xmlns:xlink="http://www.w3.org/1999/xlink">
 <defs>
  <style type="text/css">
*{stroke-linecap:butt;stroke-linejoin:round;}
  </style>
 </defs>
 <g id="figure_1">
  <g id="patch_1">
   <path d="M 0 576 
L 864 576 
L 864 0 
L 0 0 
z
" style="fill:#ffffff;"/>
  </g>
  <g id="axes_1">
   <g id="patch_2">
    <path d="M 51.55 258.6 
L 311.566667 258.6 
L 311.566667 24.8 
L 51.55 24.8 
z
" style="fill:#eaeaf2;"/>
   </g>
   <g id="matplotlib.axis_1">
    <g id="xtick_1">
     <g id="line2d_1">
      <path clip-path="url(#p85a4798d50)" d="M 63.368939 258.6 
L 63.368939 24.8 
" style="fill:none;stroke:#ffffff;stroke-linecap:round;"/>
     </g>
     <g id="line2d_2"/>
    </g>
    <g id="xtick_2">
     <g id="line2d_3">
      <path clip-path="url(#p85a4798d50)" d="M 110.644697 258.6 
L 110.644697 24.8 
" style="fill:none;stroke:#ffffff;stroke-linecap:round;"/>
     </g>
     <g id="line2d_4"/>
    </g>
    <g id="xtick_3">
     <g id="line2d_5">
      <path clip-path="url(#p85a4798d50)" d="M 157.920455 258.6 
L 157.920455 24.8 
" style="fill:none;stroke:#ffffff;stroke-linecap:round;"/>
     </g>
     <g id="line2d_6"/>
    </g>
    <g id="xtick_4">
     <g id="line2d_7">
      <path clip-path="url(#p85a4798d50)" d="M 205.196212 258.6 
L 205.196212 24.8 
" style="fill:none;stroke:#ffffff;stroke-linecap:round;"/>
     </g>
     <g id="line2d_8"/>
    </g>
    <g id="xtick_5">
     <g id="line2d_9">
      <path clip-path="url(#p85a4798d50)" d="M 252.47197 258.6 
L 252.47197 24.8 
" style="fill:none;stroke:#ffffff;stroke-linecap:round;"/>
     </g>
     <g id="line2d_10"/>
    </g>
    <g id="xtick_6">
     <g id="line2d_11">
      <path clip-path="url(#p85a4798d50)" d="M 299.747727 258.6 
L 299.747727 24.8 
" style="fill:none;stroke:#ffffff;stroke-linecap:round;"/>
     </g>
     <g id="line2d_12"/>
    </g>
   </g>
   <g id="matplotlib.axis_2">
    <g id="ytick_1">
     <g id="line2d_13">
      <path clip-path="url(#p85a4798d50)" d="M 51.55 258.6 
L 311.566667 258.6 
" style="fill:none;stroke:#ffffff;stroke-linecap:round;"/>
     </g>
     <g id="line2d_14"/>
     <g id="text_1">
      <!-- 0 -->
      <defs>
       <path d="M 51.703125 34.421875 
Q 51.703125 24.515625 49.828125 17.75 
Q 47.953125 10.984375 44.703125 6.8125 
Q 41.453125 2.640625 37.0625 0.828125 
Q 32.671875 -0.984375 27.6875 -0.984375 
Q 22.65625 -0.984375 18.3125 0.828125 
Q 13.96875 2.640625 10.765625 6.78125 
Q 7.5625 10.9375 5.734375 17.703125 
Q 3.90625 24.46875 3.90625 34.421875 
Q 3.90625 44.828125 5.734375 51.640625 
Q 7.5625 58.453125 10.78125 62.5 
Q 14.015625 66.546875 18.40625 68.1875 
Q 22.796875 69.828125 27.984375 69.828125 
Q 32.90625 69.828125 37.21875 68.1875 
Q 41.546875 66.546875 44.765625 62.5 
Q 48 58.453125 49.84375 51.640625 
Q 51.703125 44.828125 51.703125 34.421875 
M 42.78125 34.421875 
Q 42.78125 42.625 41.796875 48.0625 
Q 40.828125 53.515625 38.921875 56.765625 
Q 37.015625 60.015625 34.25 61.359375 
Q 31.5 62.703125 27.984375 62.703125 
Q 24.265625 62.703125 21.4375 61.328125 
Q 18.609375 59.96875 16.671875 56.71875 
Q 14.75 53.46875 13.765625 48.015625 
Q 12.796875 42.578125 12.796875 34.421875 
Q 12.796875 26.515625 13.796875 21.09375 
Q 14.796875 15.671875 16.71875 12.375 
Q 18.65625 9.078125 21.4375 7.640625 
Q 24.21875 6.203125 27.78125 6.203125 
Q 31.25 6.203125 34.03125 7.640625 
Q 36.8125 9.078125 38.734375 12.375 
Q 40.671875 15.671875 41.71875 21.09375 
Q 42.78125 26.515625 42.78125 34.421875 
" id="LiberationSans-30"/>
      </defs>
      <g style="fill:#262626;" transform="translate(38.989063 262.223438)scale(0.1 -0.1)">
       <use xlink:href="#LiberationSans-30"/>
      </g>
     </g>
    </g>
    <g id="ytick_2">
     <g id="line2d_15">
      <path clip-path="url(#p85a4798d50)" d="M 51.55 225.572517 
L 311.566667 225.572517 
" style="fill:none;stroke:#ffffff;stroke-linecap:round;"/>
     </g>
     <g id="line2d_16"/>
     <g id="text_2">
      <!-- 100000 -->
      <defs>
       <path d="M 7.625 0 
L 7.625 7.46875 
L 25.140625 7.46875 
L 25.140625 60.40625 
L 9.625 49.3125 
L 9.625 57.625 
L 25.875 68.796875 
L 33.984375 68.796875 
L 33.984375 7.46875 
L 50.734375 7.46875 
L 50.734375 0 
z
" id="LiberationSans-31"/>
      </defs>
      <g style="fill:#262626;" transform="translate(11.184375 229.195954)scale(0.1 -0.1)">
       <use xlink:href="#LiberationSans-31"/>
       <use x="55.615234" xlink:href="#LiberationSans-30"/>
       <use x="111.230469" xlink:href="#LiberationSans-30"/>
       <use x="166.845703" xlink:href="#LiberationSans-30"/>
       <use x="222.460938" xlink:href="#LiberationSans-30"/>
       <use x="278.076172" xlink:href="#LiberationSans-30"/>
      </g>
     </g>
    </g>
    <g id="ytick_3">
     <g id="line2d_17">
      <path clip-path="url(#p85a4798d50)" d="M 51.55 192.545034 
L 311.566667 192.545034 
" style="fill:none;stroke:#ffffff;stroke-linecap:round;"/>
     </g>
     <g id="line2d_18"/>
     <g id="text_3">
      <!-- 200000 -->
      <defs>
       <path d="M 5.03125 0 
L 5.03125 6.203125 
Q 7.515625 11.921875 11.109375 16.28125 
Q 14.703125 20.65625 18.65625 24.1875 
Q 22.609375 27.734375 26.484375 30.765625 
Q 30.375 33.796875 33.5 36.8125 
Q 36.625 39.84375 38.546875 43.15625 
Q 40.484375 46.484375 40.484375 50.6875 
Q 40.484375 53.609375 39.59375 55.828125 
Q 38.71875 58.0625 37.0625 59.5625 
Q 35.40625 61.078125 33.078125 61.828125 
Q 30.765625 62.59375 27.9375 62.59375 
Q 25.296875 62.59375 22.96875 61.859375 
Q 20.65625 61.140625 18.84375 59.671875 
Q 17.046875 58.203125 15.890625 56.03125 
Q 14.75 53.859375 14.40625 50.984375 
L 5.421875 51.8125 
Q 5.859375 55.515625 7.46875 58.78125 
Q 9.078125 62.0625 11.90625 64.53125 
Q 14.75 67 18.71875 68.40625 
Q 22.703125 69.828125 27.9375 69.828125 
Q 33.0625 69.828125 37.0625 68.609375 
Q 41.0625 67.390625 43.8125 64.984375 
Q 46.578125 62.59375 48.046875 59.078125 
Q 49.515625 55.5625 49.515625 50.984375 
Q 49.515625 47.515625 48.265625 44.390625 
Q 47.015625 41.265625 44.9375 38.421875 
Q 42.875 35.59375 40.140625 32.953125 
Q 37.40625 30.328125 34.421875 27.8125 
Q 31.453125 25.296875 28.421875 22.828125 
Q 25.390625 20.359375 22.71875 17.859375 
Q 20.0625 15.375 17.96875 12.8125 
Q 15.875 10.25 14.703125 7.46875 
L 50.59375 7.46875 
L 50.59375 0 
z
" id="LiberationSans-32"/>
      </defs>
      <g style="fill:#262626;" transform="translate(11.184375 196.168471)scale(0.1 -0.1)">
       <use xlink:href="#LiberationSans-32"/>
       <use x="55.615234" xlink:href="#LiberationSans-30"/>
       <use x="111.230469" xlink:href="#LiberationSans-30"/>
       <use x="166.845703" xlink:href="#LiberationSans-30"/>
       <use x="222.460938" xlink:href="#LiberationSans-30"/>
       <use x="278.076172" xlink:href="#LiberationSans-30"/>
      </g>
     </g>
    </g>
    <g id="ytick_4">
     <g id="line2d_19">
      <path clip-path="url(#p85a4798d50)" d="M 51.55 159.517551 
L 311.566667 159.517551 
" style="fill:none;stroke:#ffffff;stroke-linecap:round;"/>
     </g>
     <g id="line2d_20"/>
     <g id="text_4">
      <!-- 300000 -->
      <defs>
       <path d="M 51.21875 19 
Q 51.21875 14.265625 49.671875 10.546875 
Q 48.140625 6.84375 45.1875 4.265625 
Q 42.234375 1.703125 37.859375 0.359375 
Q 33.5 -0.984375 27.875 -0.984375 
Q 21.484375 -0.984375 17.109375 0.609375 
Q 12.75 2.203125 9.90625 4.8125 
Q 7.078125 7.421875 5.65625 10.765625 
Q 4.25 14.109375 3.8125 17.671875 
L 12.890625 18.5 
Q 13.28125 15.765625 14.328125 13.515625 
Q 15.375 11.28125 17.1875 9.671875 
Q 19 8.0625 21.625 7.171875 
Q 24.265625 6.296875 27.875 6.296875 
Q 34.515625 6.296875 38.296875 9.5625 
Q 42.09375 12.84375 42.09375 19.28125 
Q 42.09375 23.09375 40.40625 25.40625 
Q 38.71875 27.734375 36.203125 29.03125 
Q 33.6875 30.328125 30.734375 30.765625 
Q 27.78125 31.203125 25.296875 31.203125 
L 20.3125 31.203125 
L 20.3125 38.8125 
L 25.09375 38.8125 
Q 27.59375 38.8125 30.265625 39.328125 
Q 32.953125 39.84375 35.171875 41.1875 
Q 37.40625 42.53125 38.84375 44.828125 
Q 40.28125 47.125 40.28125 50.6875 
Q 40.28125 56.203125 37.03125 59.390625 
Q 33.796875 62.59375 27.390625 62.59375 
Q 21.578125 62.59375 17.984375 59.609375 
Q 14.40625 56.640625 13.8125 51.21875 
L 4.984375 51.90625 
Q 5.515625 56.453125 7.46875 59.8125 
Q 9.421875 63.1875 12.421875 65.40625 
Q 15.4375 67.625 19.28125 68.71875 
Q 23.140625 69.828125 27.484375 69.828125 
Q 33.25 69.828125 37.390625 68.375 
Q 41.546875 66.9375 44.1875 64.46875 
Q 46.828125 62.015625 48.0625 58.6875 
Q 49.3125 55.375 49.3125 51.609375 
Q 49.3125 48.578125 48.484375 45.9375 
Q 47.65625 43.3125 45.890625 41.203125 
Q 44.140625 39.109375 41.421875 37.59375 
Q 38.71875 36.078125 34.90625 35.296875 
L 34.90625 35.109375 
Q 39.0625 34.671875 42.140625 33.21875 
Q 45.21875 31.78125 47.21875 29.625 
Q 49.21875 27.484375 50.21875 24.75 
Q 51.21875 22.015625 51.21875 19 
" id="LiberationSans-33"/>
      </defs>
      <g style="fill:#262626;" transform="translate(11.184375 163.140988)scale(0.1 -0.1)">
       <use xlink:href="#LiberationSans-33"/>
       <use x="55.615234" xlink:href="#LiberationSans-30"/>
       <use x="111.230469" xlink:href="#LiberationSans-30"/>
       <use x="166.845703" xlink:href="#LiberationSans-30"/>
       <use x="222.460938" xlink:href="#LiberationSans-30"/>
       <use x="278.076172" xlink:href="#LiberationSans-30"/>
      </g>
     </g>
    </g>
    <g id="ytick_5">
     <g id="line2d_21">
      <path clip-path="url(#p85a4798d50)" d="M 51.55 126.490068 
L 311.566667 126.490068 
" style="fill:none;stroke:#ffffff;stroke-linecap:round;"/>
     </g>
     <g id="line2d_22"/>
     <g id="text_5">
      <!-- 400000 -->
      <defs>
       <path d="M 43.015625 15.578125 
L 43.015625 0 
L 34.71875 0 
L 34.71875 15.578125 
L 2.296875 15.578125 
L 2.296875 22.40625 
L 33.796875 68.796875 
L 43.015625 68.796875 
L 43.015625 22.515625 
L 52.6875 22.515625 
L 52.6875 15.578125 
z
M 34.71875 58.890625 
Q 34.625 58.640625 34.234375 57.9375 
Q 33.84375 57.234375 33.34375 56.34375 
Q 32.859375 55.46875 32.34375 54.5625 
Q 31.84375 53.65625 31.453125 53.078125 
L 13.8125 27.09375 
Q 13.578125 26.703125 13.109375 26.0625 
Q 12.640625 25.4375 12.15625 24.78125 
Q 11.671875 24.125 11.171875 23.484375 
Q 10.6875 22.859375 10.40625 22.515625 
L 34.71875 22.515625 
z
" id="LiberationSans-34"/>
      </defs>
      <g style="fill:#262626;" transform="translate(11.184375 130.113505)scale(0.1 -0.1)">
       <use xlink:href="#LiberationSans-34"/>
       <use x="55.615234" xlink:href="#LiberationSans-30"/>
       <use x="111.230469" xlink:href="#LiberationSans-30"/>
       <use x="166.845703" xlink:href="#LiberationSans-30"/>
       <use x="222.460938" xlink:href="#LiberationSans-30"/>
       <use x="278.076172" xlink:href="#LiberationSans-30"/>
      </g>
     </g>
    </g>
    <g id="ytick_6">
     <g id="line2d_23">
      <path clip-path="url(#p85a4798d50)" d="M 51.55 93.462585 
L 311.566667 93.462585 
" style="fill:none;stroke:#ffffff;stroke-linecap:round;"/>
     </g>
     <g id="line2d_24"/>
     <g id="text_6">
      <!-- 500000 -->
      <defs>
       <path d="M 51.421875 22.40625 
Q 51.421875 17.234375 49.859375 12.9375 
Q 48.296875 8.640625 45.21875 5.53125 
Q 42.140625 2.4375 37.578125 0.71875 
Q 33.015625 -0.984375 27 -0.984375 
Q 21.578125 -0.984375 17.546875 0.28125 
Q 13.53125 1.5625 10.734375 3.78125 
Q 7.953125 6 6.3125 8.984375 
Q 4.6875 11.96875 4 15.375 
L 12.890625 16.40625 
Q 13.421875 14.453125 14.390625 12.625 
Q 15.375 10.796875 17.0625 9.34375 
Q 18.75 7.90625 21.21875 7.046875 
Q 23.6875 6.203125 27.203125 6.203125 
Q 30.609375 6.203125 33.390625 7.25 
Q 36.1875 8.296875 38.15625 10.34375 
Q 40.140625 12.40625 41.203125 15.375 
Q 42.28125 18.359375 42.28125 22.21875 
Q 42.28125 25.390625 41.25 28.046875 
Q 40.234375 30.71875 38.328125 32.640625 
Q 36.421875 34.578125 33.65625 35.640625 
Q 30.90625 36.71875 27.390625 36.71875 
Q 25.203125 36.71875 23.34375 36.328125 
Q 21.484375 35.9375 19.890625 35.25 
Q 18.3125 34.578125 17.015625 33.671875 
Q 15.71875 32.765625 14.59375 31.78125 
L 6 31.78125 
L 8.296875 68.796875 
L 47.40625 68.796875 
L 47.40625 61.328125 
L 16.3125 61.328125 
L 14.984375 39.5 
Q 17.328125 41.3125 20.84375 42.59375 
Q 24.359375 43.890625 29.203125 43.890625 
Q 34.328125 43.890625 38.421875 42.328125 
Q 42.53125 40.765625 45.40625 37.90625 
Q 48.296875 35.0625 49.859375 31.109375 
Q 51.421875 27.15625 51.421875 22.40625 
" id="LiberationSans-35"/>
      </defs>
      <g style="fill:#262626;" transform="translate(11.184375 97.086022)scale(0.1 -0.1)">
       <use xlink:href="#LiberationSans-35"/>
       <use x="55.615234" xlink:href="#LiberationSans-30"/>
       <use x="111.230469" xlink:href="#LiberationSans-30"/>
       <use x="166.845703" xlink:href="#LiberationSans-30"/>
       <use x="222.460938" xlink:href="#LiberationSans-30"/>
       <use x="278.076172" xlink:href="#LiberationSans-30"/>
      </g>
     </g>
    </g>
    <g id="ytick_7">
     <g id="line2d_25">
      <path clip-path="url(#p85a4798d50)" d="M 51.55 60.435102 
L 311.566667 60.435102 
" style="fill:none;stroke:#ffffff;stroke-linecap:round;"/>
     </g>
     <g id="line2d_26"/>
     <g id="text_7">
      <!-- 600000 -->
      <defs>
       <path d="M 51.21875 22.515625 
Q 51.21875 17.328125 49.78125 13 
Q 48.34375 8.6875 45.53125 5.578125 
Q 42.71875 2.484375 38.5625 0.75 
Q 34.421875 -0.984375 29 -0.984375 
Q 23 -0.984375 18.5 1.3125 
Q 14.015625 3.609375 11.03125 7.921875 
Q 8.0625 12.25 6.5625 18.53125 
Q 5.078125 24.8125 5.078125 32.8125 
Q 5.078125 42 6.765625 48.921875 
Q 8.453125 55.859375 11.625 60.5 
Q 14.796875 65.140625 19.359375 67.484375 
Q 23.921875 69.828125 29.6875 69.828125 
Q 33.203125 69.828125 36.28125 69.09375 
Q 39.359375 68.359375 41.875 66.71875 
Q 44.390625 65.09375 46.28125 62.40625 
Q 48.1875 59.71875 49.3125 55.8125 
L 40.921875 54.296875 
Q 39.546875 58.734375 36.546875 60.71875 
Q 33.546875 62.703125 29.59375 62.703125 
Q 25.984375 62.703125 23.046875 60.984375 
Q 20.125 59.28125 18.0625 55.875 
Q 16.015625 52.484375 14.90625 47.359375 
Q 13.8125 42.234375 13.8125 35.40625 
Q 16.21875 39.84375 20.5625 42.15625 
Q 24.90625 44.484375 30.515625 44.484375 
Q 35.203125 44.484375 39.015625 42.96875 
Q 42.828125 41.453125 45.53125 38.59375 
Q 48.25 35.75 49.734375 31.671875 
Q 51.21875 27.59375 51.21875 22.515625 
M 42.28125 22.125 
Q 42.28125 25.6875 41.40625 28.5625 
Q 40.53125 31.453125 38.765625 33.46875 
Q 37.015625 35.5 34.421875 36.59375 
Q 31.84375 37.703125 28.421875 37.703125 
Q 26.03125 37.703125 23.578125 36.984375 
Q 21.140625 36.28125 19.15625 34.6875 
Q 17.1875 33.109375 15.9375 30.515625 
Q 14.703125 27.9375 14.703125 24.21875 
Q 14.703125 20.40625 15.671875 17.109375 
Q 16.65625 13.8125 18.484375 11.375 
Q 20.3125 8.9375 22.890625 7.515625 
Q 25.484375 6.109375 28.71875 6.109375 
Q 31.890625 6.109375 34.40625 7.203125 
Q 36.921875 8.296875 38.671875 10.375 
Q 40.4375 12.453125 41.359375 15.421875 
Q 42.28125 18.40625 42.28125 22.125 
" id="LiberationSans-36"/>
      </defs>
      <g style="fill:#262626;" transform="translate(11.184375 64.058539)scale(0.1 -0.1)">
       <use xlink:href="#LiberationSans-36"/>
       <use x="55.615234" xlink:href="#LiberationSans-30"/>
       <use x="111.230469" xlink:href="#LiberationSans-30"/>
       <use x="166.845703" xlink:href="#LiberationSans-30"/>
       <use x="222.460938" xlink:href="#LiberationSans-30"/>
       <use x="278.076172" xlink:href="#LiberationSans-30"/>
      </g>
     </g>
    </g>
    <g id="ytick_8">
     <g id="line2d_27">
      <path clip-path="url(#p85a4798d50)" d="M 51.55 27.407619 
L 311.566667 27.407619 
" style="fill:none;stroke:#ffffff;stroke-linecap:round;"/>
     </g>
     <g id="line2d_28"/>
     <g id="text_8">
      <!-- 700000 -->
      <defs>
       <path d="M 50.59375 61.671875 
Q 45.40625 53.765625 41.0625 46.453125 
Q 36.71875 39.15625 33.59375 31.75 
Q 30.46875 24.359375 28.734375 16.578125 
Q 27 8.796875 27 0 
L 17.828125 0 
Q 17.828125 8.25 19.78125 16.1875 
Q 21.734375 24.125 25.046875 31.765625 
Q 28.375 39.40625 32.765625 46.78125 
Q 37.15625 54.15625 42.09375 61.328125 
L 5.125 61.328125 
L 5.125 68.796875 
L 50.59375 68.796875 
z
" id="LiberationSans-37"/>
      </defs>
      <g style="fill:#262626;" transform="translate(11.184375 31.031056)scale(0.1 -0.1)">
       <use xlink:href="#LiberationSans-37"/>
       <use x="55.615234" xlink:href="#LiberationSans-30"/>
       <use x="111.230469" xlink:href="#LiberationSans-30"/>
       <use x="166.845703" xlink:href="#LiberationSans-30"/>
       <use x="222.460938" xlink:href="#LiberationSans-30"/>
       <use x="278.076172" xlink:href="#LiberationSans-30"/>
      </g>
     </g>
    </g>
   </g>
   <g id="patch_3">
    <path clip-path="url(#p85a4798d50)" d="M 63.368939 258.6 
L 87.006818 258.6 
L 87.006818 258.597688 
L 63.368939 258.597688 
z
" style="fill:#4c72b0;opacity:0.4;"/>
   </g>
   <g id="patch_4">
    <path clip-path="url(#p85a4798d50)" d="M 87.006818 258.6 
L 110.644697 258.6 
L 110.644697 258.6 
L 87.006818 258.6 
z
" style="fill:#4c72b0;opacity:0.4;"/>
   </g>
   <g id="patch_5">
    <path clip-path="url(#p85a4798d50)" d="M 110.644697 258.6 
L 134.282576 258.6 
L 134.282576 254.98217 
L 110.644697 254.98217 
z
" style="fill:#4c72b0;opacity:0.4;"/>
   </g>
   <g id="patch_6">
    <path clip-path="url(#p85a4798d50)" d="M 134.282576 258.6 
L 157.920455 258.6 
L 157.920455 254.314684 
L 134.282576 254.314684 
z
" style="fill:#4c72b0;opacity:0.4;"/>
   </g>
   <g id="patch_7">
    <path clip-path="url(#p85a4798d50)" d="M 157.920455 258.6 
L 181.558333 258.6 
L 181.558333 245.975245 
L 157.920455 245.975245 
z
" style="fill:#4c72b0;opacity:0.4;"/>
   </g>
   <g id="patch_8">
    <path clip-path="url(#p85a4798d50)" d="M 181.558333 258.6 
L 205.196212 258.6 
L 205.196212 239.271326 
L 181.558333 239.271326 
z
" style="fill:#4c72b0;opacity:0.4;"/>
   </g>
   <g id="patch_9">
    <path clip-path="url(#p85a4798d50)" d="M 205.196212 258.6 
L 228.834091 258.6 
L 228.834091 203.891956 
L 205.196212 203.891956 
z
" style="fill:#4c72b0;opacity:0.4;"/>
   </g>
   <g id="patch_10">
    <path clip-path="url(#p85a4798d50)" d="M 228.834091 258.6 
L 252.47197 258.6 
L 252.47197 158.917442 
L 228.834091 158.917442 
z
" style="fill:#4c72b0;opacity:0.4;"/>
   </g>
   <g id="patch_11">
    <path clip-path="url(#p85a4798d50)" d="M 252.47197 258.6 
L 276.109848 258.6 
L 276.109848 66.127719 
L 252.47197 66.127719 
z
" style="fill:#4c72b0;opacity:0.4;"/>
   </g>
   <g id="patch_12">
    <path clip-path="url(#p85a4798d50)" d="M 276.109848 258.6 
L 299.747727 258.6 
L 299.747727 121.303102 
L 276.109848 121.303102 
z
" style="fill:#4c72b0;opacity:0.4;"/>
   </g>
   <g id="patch_13">
    <path d="M 51.55 258.6 
L 51.55 24.8 
" style="fill:none;"/>
   </g>
   <g id="patch_14">
    <path d="M 51.55 258.6 
L 311.566667 258.6 
" style="fill:none;"/>
   </g>
   <g id="text_9">
    <!-- variable = review_overall -->
    <defs>
     <path d="M 29.9375 0 
L 19.53125 0 
L 0.34375 52.828125 
L 9.71875 52.828125 
L 21.34375 18.453125 
Q 21.6875 17.390625 22.140625 15.84375 
Q 22.609375 14.3125 23.09375 12.640625 
Q 23.578125 10.984375 24 9.4375 
Q 24.421875 7.90625 24.703125 6.890625 
Q 25 7.90625 25.453125 9.4375 
Q 25.921875 10.984375 26.40625 12.59375 
Q 26.90625 14.203125 27.421875 15.734375 
Q 27.9375 17.28125 28.328125 18.359375 
L 40.328125 52.828125 
L 49.65625 52.828125 
z
" id="LiberationSans-76"/>
     <path d="M 20.21875 -0.984375 
Q 12.25 -0.984375 8.25 3.21875 
Q 4.25 7.421875 4.25 14.75 
Q 4.25 19.96875 6.21875 23.3125 
Q 8.203125 26.65625 11.390625 28.5625 
Q 14.59375 30.46875 18.6875 31.203125 
Q 22.796875 31.9375 27.046875 32.03125 
L 38.921875 32.234375 
L 38.921875 35.109375 
Q 38.921875 38.375 38.234375 40.671875 
Q 37.546875 42.96875 36.125 44.375 
Q 34.71875 45.796875 32.59375 46.453125 
Q 30.46875 47.125 27.59375 47.125 
Q 25.046875 47.125 23 46.75 
Q 20.953125 46.390625 19.4375 45.4375 
Q 17.921875 44.484375 16.984375 42.84375 
Q 16.0625 41.21875 15.765625 38.71875 
L 6.59375 39.546875 
Q 7.078125 42.671875 8.4375 45.28125 
Q 9.8125 47.90625 12.328125 49.796875 
Q 14.84375 51.703125 18.625 52.75 
Q 22.40625 53.8125 27.78125 53.8125 
Q 37.75 53.8125 42.765625 49.234375 
Q 47.796875 44.671875 47.796875 36.03125 
L 47.796875 13.28125 
Q 47.796875 9.375 48.828125 7.390625 
Q 49.859375 5.421875 52.734375 5.421875 
Q 53.46875 5.421875 54.203125 5.515625 
Q 54.9375 5.609375 55.609375 5.765625 
L 55.609375 0.296875 
Q 53.953125 -0.09375 52.3125 -0.28125 
Q 50.6875 -0.484375 48.828125 -0.484375 
Q 46.34375 -0.484375 44.5625 0.171875 
Q 42.78125 0.828125 41.65625 2.171875 
Q 40.53125 3.515625 39.9375 5.484375 
Q 39.359375 7.46875 39.203125 10.109375 
L 38.921875 10.109375 
Q 37.5 7.5625 35.8125 5.515625 
Q 34.125 3.46875 31.875 2.03125 
Q 29.640625 0.59375 26.78125 -0.1875 
Q 23.921875 -0.984375 20.21875 -0.984375 
M 22.21875 5.609375 
Q 26.421875 5.609375 29.5625 7.140625 
Q 32.71875 8.6875 34.78125 11.078125 
Q 36.859375 13.484375 37.890625 16.3125 
Q 38.921875 19.140625 38.921875 21.734375 
L 38.921875 26.078125 
L 29.296875 25.875 
Q 26.078125 25.828125 23.171875 25.40625 
Q 20.265625 25 18.0625 23.78125 
Q 15.875 22.5625 14.578125 20.359375 
Q 13.28125 18.171875 13.28125 14.59375 
Q 13.28125 10.296875 15.59375 7.953125 
Q 17.921875 5.609375 22.21875 5.609375 
" id="LiberationSans-61"/>
     <path d="M 6.9375 0 
L 6.9375 40.53125 
Q 6.9375 42.1875 6.90625 43.921875 
Q 6.890625 45.65625 6.828125 47.265625 
Q 6.78125 48.875 6.734375 50.28125 
Q 6.6875 51.703125 6.640625 52.828125 
L 14.9375 52.828125 
Q 14.984375 51.703125 15.0625 50.265625 
Q 15.140625 48.828125 15.203125 47.3125 
Q 15.28125 45.796875 15.296875 44.40625 
Q 15.328125 43.015625 15.328125 42.046875 
L 15.53125 42.046875 
Q 16.453125 45.0625 17.5 47.28125 
Q 18.5625 49.515625 19.96875 50.953125 
Q 21.390625 52.390625 23.34375 53.09375 
Q 25.296875 53.8125 28.078125 53.8125 
Q 29.15625 53.8125 30.125 53.640625 
Q 31.109375 53.46875 31.640625 53.328125 
L 31.640625 45.265625 
Q 30.765625 45.515625 29.59375 45.625 
Q 28.421875 45.75 26.953125 45.75 
Q 23.921875 45.75 21.796875 44.375 
Q 19.671875 43.015625 18.328125 40.59375 
Q 17 38.1875 16.359375 34.84375 
Q 15.71875 31.5 15.71875 27.546875 
L 15.71875 0 
z
" id="LiberationSans-72"/>
     <path d="M 6.6875 64.0625 
L 6.6875 72.46875 
L 15.484375 72.46875 
L 15.484375 64.0625 
z
M 6.6875 0 
L 6.6875 52.828125 
L 15.484375 52.828125 
L 15.484375 0 
z
" id="LiberationSans-69"/>
     <path d="M 51.421875 26.65625 
Q 51.421875 -0.984375 31.984375 -0.984375 
Q 25.984375 -0.984375 22 1.1875 
Q 18.015625 3.375 15.53125 8.203125 
L 15.4375 8.203125 
Q 15.4375 6.9375 15.359375 5.5625 
Q 15.28125 4.203125 15.203125 3.03125 
Q 15.140625 1.859375 15.0625 1.03125 
Q 14.984375 0.203125 14.9375 0 
L 6.453125 0 
Q 6.5 0.4375 6.546875 1.484375 
Q 6.59375 2.546875 6.640625 4 
Q 6.6875 5.46875 6.703125 7.21875 
Q 6.734375 8.984375 6.734375 10.890625 
L 6.734375 72.46875 
L 15.53125 72.46875 
L 15.53125 51.8125 
Q 15.53125 50.34375 15.5 49 
Q 15.484375 47.65625 15.4375 46.625 
Q 15.375 45.40625 15.328125 44.34375 
L 15.53125 44.34375 
Q 17.96875 49.421875 22 51.609375 
Q 26.03125 53.8125 31.984375 53.8125 
Q 42 53.8125 46.703125 47.0625 
Q 51.421875 40.328125 51.421875 26.65625 
M 42.1875 26.375 
Q 42.1875 31.84375 41.5 35.75 
Q 40.828125 39.65625 39.3125 42.15625 
Q 37.796875 44.671875 35.453125 45.84375 
Q 33.109375 47.015625 29.734375 47.015625 
Q 26.265625 47.015625 23.609375 45.890625 
Q 20.953125 44.78125 19.171875 42.28125 
Q 17.390625 39.796875 16.453125 35.734375 
Q 15.53125 31.6875 15.53125 25.828125 
Q 15.53125 20.171875 16.453125 16.3125 
Q 17.390625 12.453125 19.171875 10.03125 
Q 20.953125 7.625 23.578125 6.5625 
Q 26.21875 5.515625 29.640625 5.515625 
Q 32.859375 5.515625 35.203125 6.640625 
Q 37.546875 7.765625 39.109375 10.25 
Q 40.671875 12.75 41.421875 16.71875 
Q 42.1875 20.703125 42.1875 26.375 
" id="LiberationSans-62"/>
     <path d="M 6.734375 0 
L 6.734375 72.46875 
L 15.53125 72.46875 
L 15.53125 0 
z
" id="LiberationSans-6c"/>
     <path d="M 13.484375 24.5625 
Q 13.484375 20.40625 14.328125 16.90625 
Q 15.1875 13.421875 16.96875 10.90625 
Q 18.75 8.40625 21.53125 7 
Q 24.3125 5.609375 28.21875 5.609375 
Q 33.9375 5.609375 37.375 7.90625 
Q 40.828125 10.203125 42.046875 13.71875 
L 49.75 11.53125 
Q 48.921875 9.328125 47.4375 7.109375 
Q 45.953125 4.890625 43.453125 3.09375 
Q 40.96875 1.3125 37.234375 0.15625 
Q 33.5 -0.984375 28.21875 -0.984375 
Q 16.5 -0.984375 10.375 6 
Q 4.25 12.984375 4.25 26.765625 
Q 4.25 34.1875 6.09375 39.328125 
Q 7.953125 44.484375 11.171875 47.703125 
Q 14.40625 50.921875 18.703125 52.359375 
Q 23 53.8125 27.875 53.8125 
Q 34.515625 53.8125 38.984375 51.65625 
Q 43.453125 49.515625 46.15625 45.71875 
Q 48.875 41.9375 50.015625 36.8125 
Q 51.171875 31.6875 51.171875 25.734375 
L 51.171875 24.5625 
z
M 42.09375 31.296875 
Q 41.359375 39.65625 37.84375 43.484375 
Q 34.328125 47.3125 27.734375 47.3125 
Q 25.53125 47.3125 23.109375 46.609375 
Q 20.703125 45.90625 18.65625 44.09375 
Q 16.609375 42.28125 15.1875 39.171875 
Q 13.765625 36.078125 13.578125 31.296875 
z
" id="LiberationSans-65"/>
     <path id="LiberationSans-20"/>
     <path d="M 4.890625 41.796875 
L 4.890625 49.03125 
L 53.46875 49.03125 
L 53.46875 41.796875 
z
M 4.890625 16.796875 
L 4.890625 24.03125 
L 53.46875 24.03125 
L 53.46875 16.796875 
z
" id="LiberationSans-3d"/>
     <path d="M 57.328125 0 
L 47.125 0 
L 38.671875 34.078125 
Q 38.28125 35.40625 37.859375 37.359375 
Q 37.453125 39.3125 37.0625 41.15625 
Q 36.578125 43.3125 36.140625 45.609375 
Q 35.6875 43.40625 35.203125 41.265625 
Q 34.8125 39.40625 34.34375 37.40625 
Q 33.890625 35.40625 33.5 33.890625 
L 24.8125 0 
L 14.65625 0 
L -0.140625 52.828125 
L 8.546875 52.828125 
L 17.484375 16.9375 
Q 17.828125 15.828125 18.15625 14.1875 
Q 18.5 12.546875 18.84375 10.984375 
Q 19.1875 9.1875 19.578125 7.28125 
Q 19.96875 9.125 20.40625 10.890625 
Q 20.796875 12.40625 21.1875 13.96875 
Q 21.578125 15.53125 21.875 16.546875 
L 31.453125 52.828125 
L 40.875 52.828125 
L 50.09375 16.546875 
Q 50.4375 15.28125 50.828125 13.671875 
Q 51.21875 12.0625 51.5625 10.640625 
Q 51.953125 8.984375 52.34375 7.28125 
Q 52.734375 9.125 53.125 10.890625 
Q 53.46875 12.40625 53.828125 14.03125 
Q 54.203125 15.671875 54.546875 16.9375 
L 63.875 52.828125 
L 72.46875 52.828125 
z
" id="LiberationSans-77"/>
     <path d="M -1.515625 -19.875 
L -1.515625 -13.53125 
L 56.734375 -13.53125 
L 56.734375 -19.875 
z
" id="LiberationSans-5f"/>
     <path d="M 51.421875 26.46875 
Q 51.421875 12.59375 45.3125 5.796875 
Q 39.203125 -0.984375 27.59375 -0.984375 
Q 22.078125 -0.984375 17.71875 0.671875 
Q 13.375 2.34375 10.375 5.765625 
Q 7.375 9.1875 5.78125 14.328125 
Q 4.203125 19.484375 4.203125 26.46875 
Q 4.203125 53.8125 27.875 53.8125 
Q 34.03125 53.8125 38.5 52.09375 
Q 42.96875 50.390625 45.828125 46.96875 
Q 48.6875 43.5625 50.046875 38.421875 
Q 51.421875 33.296875 51.421875 26.46875 
M 42.1875 26.46875 
Q 42.1875 32.625 41.234375 36.625 
Q 40.28125 40.625 38.453125 43.015625 
Q 36.625 45.40625 33.984375 46.359375 
Q 31.34375 47.3125 28.03125 47.3125 
Q 24.65625 47.3125 21.9375 46.3125 
Q 19.234375 45.3125 17.328125 42.890625 
Q 15.4375 40.484375 14.421875 36.46875 
Q 13.421875 32.46875 13.421875 26.46875 
Q 13.421875 20.3125 14.5 16.28125 
Q 15.578125 12.25 17.453125 9.859375 
Q 19.34375 7.46875 21.90625 6.484375 
Q 24.46875 5.515625 27.484375 5.515625 
Q 30.859375 5.515625 33.59375 6.46875 
Q 36.328125 7.421875 38.234375 9.8125 
Q 40.140625 12.203125 41.15625 16.25 
Q 42.1875 20.3125 42.1875 26.46875 
" id="LiberationSans-6f"/>
    </defs>
    <g style="fill:#262626;" transform="translate(120.878724 18.8)scale(0.11 -0.11)">
     <use xlink:href="#LiberationSans-76"/>
     <use x="50" xlink:href="#LiberationSans-61"/>
     <use x="105.615234" xlink:href="#LiberationSans-72"/>
     <use x="138.916016" xlink:href="#LiberationSans-69"/>
     <use x="161.132812" xlink:href="#LiberationSans-61"/>
     <use x="216.748047" xlink:href="#LiberationSans-62"/>
     <use x="272.363281" xlink:href="#LiberationSans-6c"/>
     <use x="294.580078" xlink:href="#LiberationSans-65"/>
     <use x="350.195312" xlink:href="#LiberationSans-20"/>
     <use x="377.978516" xlink:href="#LiberationSans-3d"/>
     <use x="436.376953" xlink:href="#LiberationSans-20"/>
     <use x="464.160156" xlink:href="#LiberationSans-72"/>
     <use x="497.460938" xlink:href="#LiberationSans-65"/>
     <use x="553.076172" xlink:href="#LiberationSans-76"/>
     <use x="603.076172" xlink:href="#LiberationSans-69"/>
     <use x="625.292969" xlink:href="#LiberationSans-65"/>
     <use x="680.908203" xlink:href="#LiberationSans-77"/>
     <use x="753.125" xlink:href="#LiberationSans-5f"/>
     <use x="808.740234" xlink:href="#LiberationSans-6f"/>
     <use x="864.355469" xlink:href="#LiberationSans-76"/>
     <use x="914.355469" xlink:href="#LiberationSans-65"/>
     <use x="969.970703" xlink:href="#LiberationSans-72"/>
     <use x="1003.271484" xlink:href="#LiberationSans-61"/>
     <use x="1058.886719" xlink:href="#LiberationSans-6c"/>
     <use x="1081.103516" xlink:href="#LiberationSans-6c"/>
    </g>
   </g>
  </g>
  <g id="axes_2">
   <g id="patch_15">
    <path d="M 322.366667 258.6 
L 582.383333 258.6 
L 582.383333 24.8 
L 322.366667 24.8 
z
" style="fill:#eaeaf2;"/>
   </g>
   <g id="matplotlib.axis_3">
    <g id="xtick_7">
     <g id="line2d_29">
      <path clip-path="url(#pae21ad05c2)" d="M 334.185606 258.6 
L 334.185606 24.8 
" style="fill:none;stroke:#ffffff;stroke-linecap:round;"/>
     </g>
     <g id="line2d_30"/>
    </g>
    <g id="xtick_8">
     <g id="line2d_31">
      <path clip-path="url(#pae21ad05c2)" d="M 381.461364 258.6 
L 381.461364 24.8 
" style="fill:none;stroke:#ffffff;stroke-linecap:round;"/>
     </g>
     <g id="line2d_32"/>
    </g>
    <g id="xtick_9">
     <g id="line2d_33">
      <path clip-path="url(#pae21ad05c2)" d="M 428.737121 258.6 
L 428.737121 24.8 
" style="fill:none;stroke:#ffffff;stroke-linecap:round;"/>
     </g>
     <g id="line2d_34"/>
    </g>
    <g id="xtick_10">
     <g id="line2d_35">
      <path clip-path="url(#pae21ad05c2)" d="M 476.012879 258.6 
L 476.012879 24.8 
" style="fill:none;stroke:#ffffff;stroke-linecap:round;"/>
     </g>
     <g id="line2d_36"/>
    </g>
    <g id="xtick_11">
     <g id="line2d_37">
      <path clip-path="url(#pae21ad05c2)" d="M 523.288636 258.6 
L 523.288636 24.8 
" style="fill:none;stroke:#ffffff;stroke-linecap:round;"/>
     </g>
     <g id="line2d_38"/>
    </g>
    <g id="xtick_12">
     <g id="line2d_39">
      <path clip-path="url(#pae21ad05c2)" d="M 570.564394 258.6 
L 570.564394 24.8 
" style="fill:none;stroke:#ffffff;stroke-linecap:round;"/>
     </g>
     <g id="line2d_40"/>
    </g>
   </g>
   <g id="matplotlib.axis_4">
    <g id="ytick_9">
     <g id="line2d_41">
      <path clip-path="url(#pae21ad05c2)" d="M 322.366667 258.6 
L 582.383333 258.6 
" style="fill:none;stroke:#ffffff;stroke-linecap:round;"/>
     </g>
     <g id="line2d_42"/>
    </g>
    <g id="ytick_10">
     <g id="line2d_43">
      <path clip-path="url(#pae21ad05c2)" d="M 322.366667 225.572517 
L 582.383333 225.572517 
" style="fill:none;stroke:#ffffff;stroke-linecap:round;"/>
     </g>
     <g id="line2d_44"/>
    </g>
    <g id="ytick_11">
     <g id="line2d_45">
      <path clip-path="url(#pae21ad05c2)" d="M 322.366667 192.545034 
L 582.383333 192.545034 
" style="fill:none;stroke:#ffffff;stroke-linecap:round;"/>
     </g>
     <g id="line2d_46"/>
    </g>
    <g id="ytick_12">
     <g id="line2d_47">
      <path clip-path="url(#pae21ad05c2)" d="M 322.366667 159.517551 
L 582.383333 159.517551 
" style="fill:none;stroke:#ffffff;stroke-linecap:round;"/>
     </g>
     <g id="line2d_48"/>
    </g>
    <g id="ytick_13">
     <g id="line2d_49">
      <path clip-path="url(#pae21ad05c2)" d="M 322.366667 126.490068 
L 582.383333 126.490068 
" style="fill:none;stroke:#ffffff;stroke-linecap:round;"/>
     </g>
     <g id="line2d_50"/>
    </g>
    <g id="ytick_14">
     <g id="line2d_51">
      <path clip-path="url(#pae21ad05c2)" d="M 322.366667 93.462585 
L 582.383333 93.462585 
" style="fill:none;stroke:#ffffff;stroke-linecap:round;"/>
     </g>
     <g id="line2d_52"/>
    </g>
    <g id="ytick_15">
     <g id="line2d_53">
      <path clip-path="url(#pae21ad05c2)" d="M 322.366667 60.435102 
L 582.383333 60.435102 
" style="fill:none;stroke:#ffffff;stroke-linecap:round;"/>
     </g>
     <g id="line2d_54"/>
    </g>
    <g id="ytick_16">
     <g id="line2d_55">
      <path clip-path="url(#pae21ad05c2)" d="M 322.366667 27.407619 
L 582.383333 27.407619 
" style="fill:none;stroke:#ffffff;stroke-linecap:round;"/>
     </g>
     <g id="line2d_56"/>
    </g>
   </g>
   <g id="patch_16">
    <path clip-path="url(#pae21ad05c2)" d="M 381.461364 258.6 
L 400.371667 258.6 
L 400.371667 256.330021 
L 381.461364 256.330021 
z
" style="fill:#4c72b0;opacity:0.4;"/>
   </g>
   <g id="patch_17">
    <path clip-path="url(#pae21ad05c2)" d="M 400.371667 258.6 
L 419.28197 258.6 
L 419.28197 254.463638 
L 400.371667 254.463638 
z
" style="fill:#4c72b0;opacity:0.4;"/>
   </g>
   <g id="patch_18">
    <path clip-path="url(#pae21ad05c2)" d="M 419.28197 258.6 
L 438.192273 258.6 
L 438.192273 244.541522 
L 419.28197 244.541522 
z
" style="fill:#4c72b0;opacity:0.4;"/>
   </g>
   <g id="patch_19">
    <path clip-path="url(#pae21ad05c2)" d="M 438.192273 258.6 
L 457.102576 258.6 
L 457.102576 236.683293 
L 438.192273 236.683293 
z
" style="fill:#4c72b0;opacity:0.4;"/>
   </g>
   <g id="patch_20">
    <path clip-path="url(#pae21ad05c2)" d="M 457.102576 258.6 
L 476.012879 258.6 
L 476.012879 258.6 
L 457.102576 258.6 
z
" style="fill:#4c72b0;opacity:0.4;"/>
   </g>
   <g id="patch_21">
    <path clip-path="url(#pae21ad05c2)" d="M 476.012879 258.6 
L 494.923182 258.6 
L 494.923182 192.535126 
L 476.012879 192.535126 
z
" style="fill:#4c72b0;opacity:0.4;"/>
   </g>
   <g id="patch_22">
    <path clip-path="url(#pae21ad05c2)" d="M 494.923182 258.6 
L 513.833485 258.6 
L 513.833485 137.946641 
L 494.923182 137.946641 
z
" style="fill:#4c72b0;opacity:0.4;"/>
   </g>
   <g id="patch_23">
    <path clip-path="url(#pae21ad05c2)" d="M 513.833485 258.6 
L 532.743788 258.6 
L 532.743788 74.510424 
L 513.833485 74.510424 
z
" style="fill:#4c72b0;opacity:0.4;"/>
   </g>
   <g id="patch_24">
    <path clip-path="url(#pae21ad05c2)" d="M 532.743788 258.6 
L 551.654091 258.6 
L 551.654091 168.946897 
L 532.743788 168.946897 
z
" style="fill:#4c72b0;opacity:0.4;"/>
   </g>
   <g id="patch_25">
    <path clip-path="url(#pae21ad05c2)" d="M 551.654091 258.6 
L 570.564394 258.6 
L 570.564394 237.423769 
L 551.654091 237.423769 
z
" style="fill:#4c72b0;opacity:0.4;"/>
   </g>
   <g id="patch_26">
    <path d="M 322.366667 258.6 
L 322.366667 24.8 
" style="fill:none;"/>
   </g>
   <g id="patch_27">
    <path d="M 322.366667 258.6 
L 582.383333 258.6 
" style="fill:none;"/>
   </g>
   <g id="text_10">
    <!-- variable = review_aroma -->
    <defs>
     <path d="M 37.5 0 
L 37.5 33.5 
Q 37.5 37.359375 37.015625 39.9375 
Q 36.53125 42.53125 35.375 44.109375 
Q 34.234375 45.703125 32.375 46.359375 
Q 30.515625 47.015625 27.828125 47.015625 
Q 25.046875 47.015625 22.796875 45.921875 
Q 20.5625 44.828125 18.96875 42.75 
Q 17.390625 40.671875 16.53125 37.625 
Q 15.671875 34.578125 15.671875 30.609375 
L 15.671875 0 
L 6.9375 0 
L 6.9375 41.546875 
Q 6.9375 43.21875 6.90625 45.046875 
Q 6.890625 46.875 6.828125 48.5 
Q 6.78125 50.140625 6.734375 51.3125 
Q 6.6875 52.484375 6.640625 52.828125 
L 14.9375 52.828125 
Q 14.984375 52.59375 15.03125 51.515625 
Q 15.09375 50.4375 15.15625 49.046875 
Q 15.234375 47.65625 15.28125 46.21875 
Q 15.328125 44.78125 15.328125 43.796875 
L 15.484375 43.796875 
Q 16.65625 46.09375 18.015625 47.953125 
Q 19.390625 49.8125 21.21875 51.09375 
Q 23.046875 52.390625 25.40625 53.09375 
Q 27.78125 53.8125 30.90625 53.8125 
Q 36.921875 53.8125 40.40625 51.421875 
Q 43.890625 49.03125 45.265625 43.796875 
L 45.40625 43.796875 
Q 46.578125 46.09375 48.046875 47.953125 
Q 49.515625 49.8125 51.46875 51.09375 
Q 53.421875 52.390625 55.859375 53.09375 
Q 58.296875 53.8125 61.421875 53.8125 
Q 65.4375 53.8125 68.328125 52.734375 
Q 71.234375 51.65625 73.09375 49.40625 
Q 74.953125 47.171875 75.828125 43.625 
Q 76.703125 40.09375 76.703125 35.203125 
L 76.703125 0 
L 68.015625 0 
L 68.015625 33.5 
Q 68.015625 37.359375 67.53125 39.9375 
Q 67.046875 42.53125 65.890625 44.109375 
Q 64.75 45.703125 62.890625 46.359375 
Q 61.03125 47.015625 58.34375 47.015625 
Q 55.5625 47.015625 53.3125 45.96875 
Q 51.078125 44.921875 49.484375 42.875 
Q 47.90625 40.828125 47.046875 37.75 
Q 46.1875 34.671875 46.1875 30.609375 
L 46.1875 0 
z
" id="LiberationSans-6d"/>
    </defs>
    <g style="fill:#262626;" transform="translate(392.308125 18.8)scale(0.11 -0.11)">
     <use xlink:href="#LiberationSans-76"/>
     <use x="50" xlink:href="#LiberationSans-61"/>
     <use x="105.615234" xlink:href="#LiberationSans-72"/>
     <use x="138.916016" xlink:href="#LiberationSans-69"/>
     <use x="161.132812" xlink:href="#LiberationSans-61"/>
     <use x="216.748047" xlink:href="#LiberationSans-62"/>
     <use x="272.363281" xlink:href="#LiberationSans-6c"/>
     <use x="294.580078" xlink:href="#LiberationSans-65"/>
     <use x="350.195312" xlink:href="#LiberationSans-20"/>
     <use x="377.978516" xlink:href="#LiberationSans-3d"/>
     <use x="436.376953" xlink:href="#LiberationSans-20"/>
     <use x="464.160156" xlink:href="#LiberationSans-72"/>
     <use x="497.460938" xlink:href="#LiberationSans-65"/>
     <use x="553.076172" xlink:href="#LiberationSans-76"/>
     <use x="603.076172" xlink:href="#LiberationSans-69"/>
     <use x="625.292969" xlink:href="#LiberationSans-65"/>
     <use x="680.908203" xlink:href="#LiberationSans-77"/>
     <use x="753.125" xlink:href="#LiberationSans-5f"/>
     <use x="808.740234" xlink:href="#LiberationSans-61"/>
     <use x="864.355469" xlink:href="#LiberationSans-72"/>
     <use x="897.65625" xlink:href="#LiberationSans-6f"/>
     <use x="953.271484" xlink:href="#LiberationSans-6d"/>
     <use x="1036.572266" xlink:href="#LiberationSans-61"/>
    </g>
   </g>
  </g>
  <g id="axes_3">
   <g id="patch_28">
    <path d="M 593.183333 258.6 
L 853.2 258.6 
L 853.2 24.8 
L 593.183333 24.8 
z
" style="fill:#eaeaf2;"/>
   </g>
   <g id="matplotlib.axis_5">
    <g id="xtick_13">
     <g id="line2d_57">
      <path clip-path="url(#p756310e9bf)" d="M 605.002273 258.6 
L 605.002273 24.8 
" style="fill:none;stroke:#ffffff;stroke-linecap:round;"/>
     </g>
     <g id="line2d_58"/>
     <g id="text_11">
      <!-- 0 -->
      <g style="fill:#262626;" transform="translate(602.221804 272.846875)scale(0.1 -0.1)">
       <use xlink:href="#LiberationSans-30"/>
      </g>
     </g>
    </g>
    <g id="xtick_14">
     <g id="line2d_59">
      <path clip-path="url(#p756310e9bf)" d="M 652.27803 258.6 
L 652.27803 24.8 
" style="fill:none;stroke:#ffffff;stroke-linecap:round;"/>
     </g>
     <g id="line2d_60"/>
     <g id="text_12">
      <!-- 1 -->
      <g style="fill:#262626;" transform="translate(649.497562 272.846875)scale(0.1 -0.1)">
       <use xlink:href="#LiberationSans-31"/>
      </g>
     </g>
    </g>
    <g id="xtick_15">
     <g id="line2d_61">
      <path clip-path="url(#p756310e9bf)" d="M 699.553788 258.6 
L 699.553788 24.8 
" style="fill:none;stroke:#ffffff;stroke-linecap:round;"/>
     </g>
     <g id="line2d_62"/>
     <g id="text_13">
      <!-- 2 -->
      <g style="fill:#262626;" transform="translate(696.773319 272.846875)scale(0.1 -0.1)">
       <use xlink:href="#LiberationSans-32"/>
      </g>
     </g>
    </g>
    <g id="xtick_16">
     <g id="line2d_63">
      <path clip-path="url(#p756310e9bf)" d="M 746.829545 258.6 
L 746.829545 24.8 
" style="fill:none;stroke:#ffffff;stroke-linecap:round;"/>
     </g>
     <g id="line2d_64"/>
     <g id="text_14">
      <!-- 3 -->
      <g style="fill:#262626;" transform="translate(744.049077 272.846875)scale(0.1 -0.1)">
       <use xlink:href="#LiberationSans-33"/>
      </g>
     </g>
    </g>
    <g id="xtick_17">
     <g id="line2d_65">
      <path clip-path="url(#p756310e9bf)" d="M 794.105303 258.6 
L 794.105303 24.8 
" style="fill:none;stroke:#ffffff;stroke-linecap:round;"/>
     </g>
     <g id="line2d_66"/>
     <g id="text_15">
      <!-- 4 -->
      <g style="fill:#262626;" transform="translate(791.324834 272.846875)scale(0.1 -0.1)">
       <use xlink:href="#LiberationSans-34"/>
      </g>
     </g>
    </g>
    <g id="xtick_18">
     <g id="line2d_67">
      <path clip-path="url(#p756310e9bf)" d="M 841.381061 258.6 
L 841.381061 24.8 
" style="fill:none;stroke:#ffffff;stroke-linecap:round;"/>
     </g>
     <g id="line2d_68"/>
     <g id="text_16">
      <!-- 5 -->
      <g style="fill:#262626;" transform="translate(838.600592 272.846875)scale(0.1 -0.1)">
       <use xlink:href="#LiberationSans-35"/>
      </g>
     </g>
    </g>
    <g id="text_17">
     <!-- value -->
     <defs>
      <path d="M 15.328125 52.828125 
L 15.328125 19.34375 
Q 15.328125 15.484375 15.890625 12.890625 
Q 16.453125 10.296875 17.71875 8.703125 
Q 19 7.125 21.0625 6.46875 
Q 23.140625 5.8125 26.21875 5.8125 
Q 29.34375 5.8125 31.859375 6.90625 
Q 34.375 8.015625 36.15625 10.078125 
Q 37.9375 12.15625 38.90625 15.203125 
Q 39.890625 18.265625 39.890625 22.21875 
L 39.890625 52.828125 
L 48.6875 52.828125 
L 48.6875 11.28125 
Q 48.6875 9.625 48.703125 7.78125 
Q 48.734375 5.953125 48.78125 4.3125 
Q 48.828125 2.6875 48.875 1.515625 
Q 48.921875 0.34375 48.96875 0 
L 40.671875 0 
Q 40.625 0.25 40.578125 1.3125 
Q 40.53125 2.390625 40.453125 3.78125 
Q 40.375 5.171875 40.328125 6.609375 
Q 40.28125 8.0625 40.28125 9.03125 
L 40.140625 9.03125 
Q 38.875 6.734375 37.359375 4.875 
Q 35.84375 3.03125 33.84375 1.734375 
Q 31.84375 0.4375 29.25 -0.265625 
Q 26.65625 -0.984375 23.25 -0.984375 
Q 18.84375 -0.984375 15.671875 0.09375 
Q 12.5 1.171875 10.453125 3.421875 
Q 8.40625 5.671875 7.453125 9.1875 
Q 6.5 12.703125 6.5 17.625 
L 6.5 52.828125 
z
" id="LiberationSans-75"/>
     </defs>
     <g style="fill:#262626;" transform="translate(710.044089 286.893438)scale(0.11 -0.11)">
      <use xlink:href="#LiberationSans-76"/>
      <use x="50" xlink:href="#LiberationSans-61"/>
      <use x="105.615234" xlink:href="#LiberationSans-6c"/>
      <use x="127.832031" xlink:href="#LiberationSans-75"/>
      <use x="183.447266" xlink:href="#LiberationSans-65"/>
     </g>
    </g>
   </g>
   <g id="matplotlib.axis_6">
    <g id="ytick_17">
     <g id="line2d_69">
      <path clip-path="url(#p756310e9bf)" d="M 593.183333 258.6 
L 853.2 258.6 
" style="fill:none;stroke:#ffffff;stroke-linecap:round;"/>
     </g>
     <g id="line2d_70"/>
    </g>
    <g id="ytick_18">
     <g id="line2d_71">
      <path clip-path="url(#p756310e9bf)" d="M 593.183333 225.572517 
L 853.2 225.572517 
" style="fill:none;stroke:#ffffff;stroke-linecap:round;"/>
     </g>
     <g id="line2d_72"/>
    </g>
    <g id="ytick_19">
     <g id="line2d_73">
      <path clip-path="url(#p756310e9bf)" d="M 593.183333 192.545034 
L 853.2 192.545034 
" style="fill:none;stroke:#ffffff;stroke-linecap:round;"/>
     </g>
     <g id="line2d_74"/>
    </g>
    <g id="ytick_20">
     <g id="line2d_75">
      <path clip-path="url(#p756310e9bf)" d="M 593.183333 159.517551 
L 853.2 159.517551 
" style="fill:none;stroke:#ffffff;stroke-linecap:round;"/>
     </g>
     <g id="line2d_76"/>
    </g>
    <g id="ytick_21">
     <g id="line2d_77">
      <path clip-path="url(#p756310e9bf)" d="M 593.183333 126.490068 
L 853.2 126.490068 
" style="fill:none;stroke:#ffffff;stroke-linecap:round;"/>
     </g>
     <g id="line2d_78"/>
    </g>
    <g id="ytick_22">
     <g id="line2d_79">
      <path clip-path="url(#p756310e9bf)" d="M 593.183333 93.462585 
L 853.2 93.462585 
" style="fill:none;stroke:#ffffff;stroke-linecap:round;"/>
     </g>
     <g id="line2d_80"/>
    </g>
    <g id="ytick_23">
     <g id="line2d_81">
      <path clip-path="url(#p756310e9bf)" d="M 593.183333 60.435102 
L 853.2 60.435102 
" style="fill:none;stroke:#ffffff;stroke-linecap:round;"/>
     </g>
     <g id="line2d_82"/>
    </g>
    <g id="ytick_24">
     <g id="line2d_83">
      <path clip-path="url(#p756310e9bf)" d="M 593.183333 27.407619 
L 853.2 27.407619 
" style="fill:none;stroke:#ffffff;stroke-linecap:round;"/>
     </g>
     <g id="line2d_84"/>
    </g>
   </g>
   <g id="patch_29">
    <path clip-path="url(#p756310e9bf)" d="M 605.002273 258.6 
L 628.640152 258.6 
L 628.640152 258.597688 
L 605.002273 258.597688 
z
" style="fill:#4c72b0;opacity:0.4;"/>
   </g>
   <g id="patch_30">
    <path clip-path="url(#p756310e9bf)" d="M 628.640152 258.6 
L 652.27803 258.6 
L 652.27803 258.6 
L 628.640152 258.6 
z
" style="fill:#4c72b0;opacity:0.4;"/>
   </g>
   <g id="patch_31">
    <path clip-path="url(#p756310e9bf)" d="M 652.27803 258.6 
L 675.915909 258.6 
L 675.915909 257.502497 
L 652.27803 257.502497 
z
" style="fill:#4c72b0;opacity:0.4;"/>
   </g>
   <g id="patch_32">
    <path clip-path="url(#p756310e9bf)" d="M 675.915909 258.6 
L 699.553788 258.6 
L 699.553788 256.569801 
L 675.915909 256.569801 
z
" style="fill:#4c72b0;opacity:0.4;"/>
   </g>
   <g id="patch_33">
    <path clip-path="url(#p756310e9bf)" d="M 699.553788 258.6 
L 723.191667 258.6 
L 723.191667 250.206395 
L 699.553788 250.206395 
z
" style="fill:#4c72b0;opacity:0.4;"/>
   </g>
   <g id="patch_34">
    <path clip-path="url(#p756310e9bf)" d="M 723.191667 258.6 
L 746.829545 258.6 
L 746.829545 245.556456 
L 723.191667 245.556456 
z
" style="fill:#4c72b0;opacity:0.4;"/>
   </g>
   <g id="patch_35">
    <path clip-path="url(#p756310e9bf)" d="M 746.829545 258.6 
L 770.467424 258.6 
L 770.467424 203.771406 
L 746.829545 203.771406 
z
" style="fill:#4c72b0;opacity:0.4;"/>
   </g>
   <g id="patch_36">
    <path clip-path="url(#p756310e9bf)" d="M 770.467424 258.6 
L 794.105303 258.6 
L 794.105303 153.397889 
L 770.467424 153.397889 
z
" style="fill:#4c72b0;opacity:0.4;"/>
   </g>
   <g id="patch_37">
    <path clip-path="url(#p756310e9bf)" d="M 794.105303 258.6 
L 817.743182 258.6 
L 817.743182 35.933333 
L 794.105303 35.933333 
z
" style="fill:#4c72b0;opacity:0.4;"/>
   </g>
   <g id="patch_38">
    <path clip-path="url(#p756310e9bf)" d="M 817.743182 258.6 
L 841.381061 258.6 
L 841.381061 141.845866 
L 817.743182 141.845866 
z
" style="fill:#4c72b0;opacity:0.4;"/>
   </g>
   <g id="patch_39">
    <path d="M 593.183333 258.6 
L 593.183333 24.8 
" style="fill:none;"/>
   </g>
   <g id="patch_40">
    <path d="M 593.183333 258.6 
L 853.2 258.6 
" style="fill:none;"/>
   </g>
   <g id="text_18">
    <!-- variable = review_appearance -->
    <defs>
     <path d="M 51.421875 26.65625 
Q 51.421875 20.65625 50.4375 15.578125 
Q 49.46875 10.5 47.1875 6.828125 
Q 44.921875 3.171875 41.1875 1.09375 
Q 37.453125 -0.984375 31.984375 -0.984375 
Q 26.3125 -0.984375 22.0625 1.171875 
Q 17.828125 3.328125 15.578125 8.203125 
L 15.328125 8.203125 
Q 15.375 8.109375 15.40625 7.328125 
Q 15.4375 6.546875 15.453125 5.375 
Q 15.484375 4.203125 15.5 2.75 
Q 15.53125 1.3125 15.53125 -0.09375 
L 15.53125 -20.75 
L 6.734375 -20.75 
L 6.734375 42.046875 
Q 6.734375 43.953125 6.703125 45.703125 
Q 6.6875 47.46875 6.640625 48.90625 
Q 6.59375 50.34375 6.546875 51.359375 
Q 6.5 52.390625 6.453125 52.828125 
L 14.9375 52.828125 
Q 14.984375 52.6875 15.0625 51.796875 
Q 15.140625 50.921875 15.203125 49.671875 
Q 15.28125 48.4375 15.359375 47.015625 
Q 15.4375 45.609375 15.4375 44.34375 
L 15.625 44.34375 
Q 16.84375 46.875 18.40625 48.65625 
Q 19.96875 50.4375 21.96875 51.578125 
Q 23.96875 52.734375 26.4375 53.25 
Q 28.90625 53.765625 31.984375 53.765625 
Q 37.453125 53.765625 41.1875 51.8125 
Q 44.921875 49.859375 47.1875 46.3125 
Q 49.46875 42.78125 50.4375 37.765625 
Q 51.421875 32.765625 51.421875 26.65625 
M 42.1875 26.46875 
Q 42.1875 31.34375 41.59375 35.15625 
Q 41.015625 38.96875 39.578125 41.59375 
Q 38.140625 44.234375 35.734375 45.59375 
Q 33.34375 46.96875 29.734375 46.96875 
Q 26.8125 46.96875 24.21875 46.140625 
Q 21.625 45.3125 19.703125 42.96875 
Q 17.78125 40.625 16.65625 36.5 
Q 15.53125 32.375 15.53125 25.78125 
Q 15.53125 20.171875 16.453125 16.28125 
Q 17.390625 12.40625 19.171875 10.015625 
Q 20.953125 7.625 23.578125 6.5625 
Q 26.21875 5.515625 29.640625 5.515625 
Q 33.296875 5.515625 35.71875 6.921875 
Q 38.140625 8.34375 39.578125 11.03125 
Q 41.015625 13.71875 41.59375 17.59375 
Q 42.1875 21.484375 42.1875 26.46875 
" id="LiberationSans-70"/>
     <path d="M 40.28125 0 
L 40.28125 33.5 
Q 40.28125 37.359375 39.71875 39.9375 
Q 39.15625 42.53125 37.890625 44.109375 
Q 36.625 45.703125 34.546875 46.359375 
Q 32.46875 47.015625 29.390625 47.015625 
Q 26.265625 47.015625 23.75 45.921875 
Q 21.234375 44.828125 19.453125 42.75 
Q 17.671875 40.671875 16.6875 37.625 
Q 15.71875 34.578125 15.71875 30.609375 
L 15.71875 0 
L 6.9375 0 
L 6.9375 41.546875 
Q 6.9375 43.21875 6.90625 45.046875 
Q 6.890625 46.875 6.828125 48.5 
Q 6.78125 50.140625 6.734375 51.3125 
Q 6.6875 52.484375 6.640625 52.828125 
L 14.9375 52.828125 
Q 14.984375 52.59375 15.03125 51.515625 
Q 15.09375 50.4375 15.15625 49.046875 
Q 15.234375 47.65625 15.28125 46.21875 
Q 15.328125 44.78125 15.328125 43.796875 
L 15.484375 43.796875 
Q 16.75 46.09375 18.265625 47.953125 
Q 19.78125 49.8125 21.78125 51.09375 
Q 23.78125 52.390625 26.359375 53.09375 
Q 28.953125 53.8125 32.375 53.8125 
Q 36.765625 53.8125 39.9375 52.734375 
Q 43.109375 51.65625 45.15625 49.40625 
Q 47.21875 47.171875 48.171875 43.625 
Q 49.125 40.09375 49.125 35.203125 
L 49.125 0 
z
" id="LiberationSans-6e"/>
     <path d="M 13.421875 26.65625 
Q 13.421875 22.125 14.078125 18.3125 
Q 14.75 14.5 16.3125 11.734375 
Q 17.875 8.984375 20.4375 7.46875 
Q 23 5.953125 26.765625 5.953125 
Q 31.453125 5.953125 34.59375 8.484375 
Q 37.75 11.03125 38.484375 16.3125 
L 47.359375 15.71875 
Q 46.921875 12.453125 45.453125 9.421875 
Q 44 6.390625 41.484375 4.09375 
Q 38.96875 1.8125 35.34375 0.40625 
Q 31.734375 -0.984375 27 -0.984375 
Q 20.796875 -0.984375 16.453125 1.109375 
Q 12.109375 3.21875 9.390625 6.90625 
Q 6.6875 10.59375 5.46875 15.59375 
Q 4.25 20.609375 4.25 26.46875 
Q 4.25 31.78125 5.125 35.859375 
Q 6 39.9375 7.59375 42.984375 
Q 9.1875 46.046875 11.328125 48.125 
Q 13.484375 50.203125 15.984375 51.4375 
Q 18.5 52.6875 21.28125 53.25 
Q 24.078125 53.8125 26.90625 53.8125 
Q 31.34375 53.8125 34.8125 52.59375 
Q 38.28125 51.375 40.796875 49.25 
Q 43.3125 47.125 44.875 44.234375 
Q 46.4375 41.359375 47.078125 38.03125 
L 38.03125 37.359375 
Q 37.359375 41.75 34.5625 44.328125 
Q 31.78125 46.921875 26.65625 46.921875 
Q 22.90625 46.921875 20.390625 45.671875 
Q 17.875 44.4375 16.3125 41.921875 
Q 14.75 39.40625 14.078125 35.59375 
Q 13.421875 31.78125 13.421875 26.65625 
" id="LiberationSans-63"/>
    </defs>
    <g style="fill:#262626;" transform="translate(649.663542 18.8)scale(0.11 -0.11)">
     <use xlink:href="#LiberationSans-76"/>
     <use x="50" xlink:href="#LiberationSans-61"/>
     <use x="105.615234" xlink:href="#LiberationSans-72"/>
     <use x="138.916016" xlink:href="#LiberationSans-69"/>
     <use x="161.132812" xlink:href="#LiberationSans-61"/>
     <use x="216.748047" xlink:href="#LiberationSans-62"/>
     <use x="272.363281" xlink:href="#LiberationSans-6c"/>
     <use x="294.580078" xlink:href="#LiberationSans-65"/>
     <use x="350.195312" xlink:href="#LiberationSans-20"/>
     <use x="377.978516" xlink:href="#LiberationSans-3d"/>
     <use x="436.376953" xlink:href="#LiberationSans-20"/>
     <use x="464.160156" xlink:href="#LiberationSans-72"/>
     <use x="497.460938" xlink:href="#LiberationSans-65"/>
     <use x="553.076172" xlink:href="#LiberationSans-76"/>
     <use x="603.076172" xlink:href="#LiberationSans-69"/>
     <use x="625.292969" xlink:href="#LiberationSans-65"/>
     <use x="680.908203" xlink:href="#LiberationSans-77"/>
     <use x="753.125" xlink:href="#LiberationSans-5f"/>
     <use x="808.740234" xlink:href="#LiberationSans-61"/>
     <use x="864.355469" xlink:href="#LiberationSans-70"/>
     <use x="919.970703" xlink:href="#LiberationSans-70"/>
     <use x="975.585938" xlink:href="#LiberationSans-65"/>
     <use x="1031.201172" xlink:href="#LiberationSans-61"/>
     <use x="1086.816406" xlink:href="#LiberationSans-72"/>
     <use x="1120.117188" xlink:href="#LiberationSans-61"/>
     <use x="1175.732422" xlink:href="#LiberationSans-6e"/>
     <use x="1231.347656" xlink:href="#LiberationSans-63"/>
     <use x="1281.347656" xlink:href="#LiberationSans-65"/>
    </g>
   </g>
  </g>
  <g id="axes_4">
   <g id="patch_41">
    <path d="M 51.55 534.2 
L 311.566667 534.2 
L 311.566667 300.4 
L 51.55 300.4 
z
" style="fill:#eaeaf2;"/>
   </g>
   <g id="matplotlib.axis_7">
    <g id="xtick_19">
     <g id="line2d_85">
      <path clip-path="url(#p6f8f14ed98)" d="M 63.368939 534.2 
L 63.368939 300.4 
" style="fill:none;stroke:#ffffff;stroke-linecap:round;"/>
     </g>
     <g id="line2d_86"/>
     <g id="text_19">
      <!-- 0 -->
      <g style="fill:#262626;" transform="translate(60.588471 548.446875)scale(0.1 -0.1)">
       <use xlink:href="#LiberationSans-30"/>
      </g>
     </g>
    </g>
    <g id="xtick_20">
     <g id="line2d_87">
      <path clip-path="url(#p6f8f14ed98)" d="M 110.644697 534.2 
L 110.644697 300.4 
" style="fill:none;stroke:#ffffff;stroke-linecap:round;"/>
     </g>
     <g id="line2d_88"/>
     <g id="text_20">
      <!-- 1 -->
      <g style="fill:#262626;" transform="translate(107.864228 548.446875)scale(0.1 -0.1)">
       <use xlink:href="#LiberationSans-31"/>
      </g>
     </g>
    </g>
    <g id="xtick_21">
     <g id="line2d_89">
      <path clip-path="url(#p6f8f14ed98)" d="M 157.920455 534.2 
L 157.920455 300.4 
" style="fill:none;stroke:#ffffff;stroke-linecap:round;"/>
     </g>
     <g id="line2d_90"/>
     <g id="text_21">
      <!-- 2 -->
      <g style="fill:#262626;" transform="translate(155.139986 548.446875)scale(0.1 -0.1)">
       <use xlink:href="#LiberationSans-32"/>
      </g>
     </g>
    </g>
    <g id="xtick_22">
     <g id="line2d_91">
      <path clip-path="url(#p6f8f14ed98)" d="M 205.196212 534.2 
L 205.196212 300.4 
" style="fill:none;stroke:#ffffff;stroke-linecap:round;"/>
     </g>
     <g id="line2d_92"/>
     <g id="text_22">
      <!-- 3 -->
      <g style="fill:#262626;" transform="translate(202.415743 548.446875)scale(0.1 -0.1)">
       <use xlink:href="#LiberationSans-33"/>
      </g>
     </g>
    </g>
    <g id="xtick_23">
     <g id="line2d_93">
      <path clip-path="url(#p6f8f14ed98)" d="M 252.47197 534.2 
L 252.47197 300.4 
" style="fill:none;stroke:#ffffff;stroke-linecap:round;"/>
     </g>
     <g id="line2d_94"/>
     <g id="text_23">
      <!-- 4 -->
      <g style="fill:#262626;" transform="translate(249.691501 548.446875)scale(0.1 -0.1)">
       <use xlink:href="#LiberationSans-34"/>
      </g>
     </g>
    </g>
    <g id="xtick_24">
     <g id="line2d_95">
      <path clip-path="url(#p6f8f14ed98)" d="M 299.747727 534.2 
L 299.747727 300.4 
" style="fill:none;stroke:#ffffff;stroke-linecap:round;"/>
     </g>
     <g id="line2d_96"/>
     <g id="text_24">
      <!-- 5 -->
      <g style="fill:#262626;" transform="translate(296.967259 548.446875)scale(0.1 -0.1)">
       <use xlink:href="#LiberationSans-35"/>
      </g>
     </g>
    </g>
    <g id="text_25">
     <!-- value -->
     <g style="fill:#262626;" transform="translate(168.410755 562.493438)scale(0.11 -0.11)">
      <use xlink:href="#LiberationSans-76"/>
      <use x="50" xlink:href="#LiberationSans-61"/>
      <use x="105.615234" xlink:href="#LiberationSans-6c"/>
      <use x="127.832031" xlink:href="#LiberationSans-75"/>
      <use x="183.447266" xlink:href="#LiberationSans-65"/>
     </g>
    </g>
   </g>
   <g id="matplotlib.axis_8">
    <g id="ytick_25">
     <g id="line2d_97">
      <path clip-path="url(#p6f8f14ed98)" d="M 51.55 534.2 
L 311.566667 534.2 
" style="fill:none;stroke:#ffffff;stroke-linecap:round;"/>
     </g>
     <g id="line2d_98"/>
     <g id="text_26">
      <!-- 0 -->
      <g style="fill:#262626;" transform="translate(38.989063 537.823437)scale(0.1 -0.1)">
       <use xlink:href="#LiberationSans-30"/>
      </g>
     </g>
    </g>
    <g id="ytick_26">
     <g id="line2d_99">
      <path clip-path="url(#p6f8f14ed98)" d="M 51.55 501.172517 
L 311.566667 501.172517 
" style="fill:none;stroke:#ffffff;stroke-linecap:round;"/>
     </g>
     <g id="line2d_100"/>
     <g id="text_27">
      <!-- 100000 -->
      <g style="fill:#262626;" transform="translate(11.184375 504.795954)scale(0.1 -0.1)">
       <use xlink:href="#LiberationSans-31"/>
       <use x="55.615234" xlink:href="#LiberationSans-30"/>
       <use x="111.230469" xlink:href="#LiberationSans-30"/>
       <use x="166.845703" xlink:href="#LiberationSans-30"/>
       <use x="222.460938" xlink:href="#LiberationSans-30"/>
       <use x="278.076172" xlink:href="#LiberationSans-30"/>
      </g>
     </g>
    </g>
    <g id="ytick_27">
     <g id="line2d_101">
      <path clip-path="url(#p6f8f14ed98)" d="M 51.55 468.145034 
L 311.566667 468.145034 
" style="fill:none;stroke:#ffffff;stroke-linecap:round;"/>
     </g>
     <g id="line2d_102"/>
     <g id="text_28">
      <!-- 200000 -->
      <g style="fill:#262626;" transform="translate(11.184375 471.768471)scale(0.1 -0.1)">
       <use xlink:href="#LiberationSans-32"/>
       <use x="55.615234" xlink:href="#LiberationSans-30"/>
       <use x="111.230469" xlink:href="#LiberationSans-30"/>
       <use x="166.845703" xlink:href="#LiberationSans-30"/>
       <use x="222.460938" xlink:href="#LiberationSans-30"/>
       <use x="278.076172" xlink:href="#LiberationSans-30"/>
      </g>
     </g>
    </g>
    <g id="ytick_28">
     <g id="line2d_103">
      <path clip-path="url(#p6f8f14ed98)" d="M 51.55 435.117551 
L 311.566667 435.117551 
" style="fill:none;stroke:#ffffff;stroke-linecap:round;"/>
     </g>
     <g id="line2d_104"/>
     <g id="text_29">
      <!-- 300000 -->
      <g style="fill:#262626;" transform="translate(11.184375 438.740988)scale(0.1 -0.1)">
       <use xlink:href="#LiberationSans-33"/>
       <use x="55.615234" xlink:href="#LiberationSans-30"/>
       <use x="111.230469" xlink:href="#LiberationSans-30"/>
       <use x="166.845703" xlink:href="#LiberationSans-30"/>
       <use x="222.460938" xlink:href="#LiberationSans-30"/>
       <use x="278.076172" xlink:href="#LiberationSans-30"/>
      </g>
     </g>
    </g>
    <g id="ytick_29">
     <g id="line2d_105">
      <path clip-path="url(#p6f8f14ed98)" d="M 51.55 402.090068 
L 311.566667 402.090068 
" style="fill:none;stroke:#ffffff;stroke-linecap:round;"/>
     </g>
     <g id="line2d_106"/>
     <g id="text_30">
      <!-- 400000 -->
      <g style="fill:#262626;" transform="translate(11.184375 405.713505)scale(0.1 -0.1)">
       <use xlink:href="#LiberationSans-34"/>
       <use x="55.615234" xlink:href="#LiberationSans-30"/>
       <use x="111.230469" xlink:href="#LiberationSans-30"/>
       <use x="166.845703" xlink:href="#LiberationSans-30"/>
       <use x="222.460938" xlink:href="#LiberationSans-30"/>
       <use x="278.076172" xlink:href="#LiberationSans-30"/>
      </g>
     </g>
    </g>
    <g id="ytick_30">
     <g id="line2d_107">
      <path clip-path="url(#p6f8f14ed98)" d="M 51.55 369.062585 
L 311.566667 369.062585 
" style="fill:none;stroke:#ffffff;stroke-linecap:round;"/>
     </g>
     <g id="line2d_108"/>
     <g id="text_31">
      <!-- 500000 -->
      <g style="fill:#262626;" transform="translate(11.184375 372.686022)scale(0.1 -0.1)">
       <use xlink:href="#LiberationSans-35"/>
       <use x="55.615234" xlink:href="#LiberationSans-30"/>
       <use x="111.230469" xlink:href="#LiberationSans-30"/>
       <use x="166.845703" xlink:href="#LiberationSans-30"/>
       <use x="222.460938" xlink:href="#LiberationSans-30"/>
       <use x="278.076172" xlink:href="#LiberationSans-30"/>
      </g>
     </g>
    </g>
    <g id="ytick_31">
     <g id="line2d_109">
      <path clip-path="url(#p6f8f14ed98)" d="M 51.55 336.035102 
L 311.566667 336.035102 
" style="fill:none;stroke:#ffffff;stroke-linecap:round;"/>
     </g>
     <g id="line2d_110"/>
     <g id="text_32">
      <!-- 600000 -->
      <g style="fill:#262626;" transform="translate(11.184375 339.658539)scale(0.1 -0.1)">
       <use xlink:href="#LiberationSans-36"/>
       <use x="55.615234" xlink:href="#LiberationSans-30"/>
       <use x="111.230469" xlink:href="#LiberationSans-30"/>
       <use x="166.845703" xlink:href="#LiberationSans-30"/>
       <use x="222.460938" xlink:href="#LiberationSans-30"/>
       <use x="278.076172" xlink:href="#LiberationSans-30"/>
      </g>
     </g>
    </g>
    <g id="ytick_32">
     <g id="line2d_111">
      <path clip-path="url(#p6f8f14ed98)" d="M 51.55 303.007619 
L 311.566667 303.007619 
" style="fill:none;stroke:#ffffff;stroke-linecap:round;"/>
     </g>
     <g id="line2d_112"/>
     <g id="text_33">
      <!-- 700000 -->
      <g style="fill:#262626;" transform="translate(11.184375 306.631056)scale(0.1 -0.1)">
       <use xlink:href="#LiberationSans-37"/>
       <use x="55.615234" xlink:href="#LiberationSans-30"/>
       <use x="111.230469" xlink:href="#LiberationSans-30"/>
       <use x="166.845703" xlink:href="#LiberationSans-30"/>
       <use x="222.460938" xlink:href="#LiberationSans-30"/>
       <use x="278.076172" xlink:href="#LiberationSans-30"/>
      </g>
     </g>
    </g>
   </g>
   <g id="patch_42">
    <path clip-path="url(#p6f8f14ed98)" d="M 110.644697 534.2 
L 129.555 534.2 
L 129.555 531.929691 
L 110.644697 531.929691 
z
" style="fill:#4c72b0;opacity:0.4;"/>
   </g>
   <g id="patch_43">
    <path clip-path="url(#p6f8f14ed98)" d="M 129.555 534.2 
L 148.465303 534.2 
L 148.465303 530.552115 
L 129.555 530.552115 
z
" style="fill:#4c72b0;opacity:0.4;"/>
   </g>
   <g id="patch_44">
    <path clip-path="url(#p6f8f14ed98)" d="M 148.465303 534.2 
L 167.375606 534.2 
L 167.375606 521.539575 
L 148.465303 521.539575 
z
" style="fill:#4c72b0;opacity:0.4;"/>
   </g>
   <g id="patch_45">
    <path clip-path="url(#p6f8f14ed98)" d="M 167.375606 534.2 
L 186.285909 534.2 
L 186.285909 513.444869 
L 167.375606 513.444869 
z
" style="fill:#4c72b0;opacity:0.4;"/>
   </g>
   <g id="patch_46">
    <path clip-path="url(#p6f8f14ed98)" d="M 186.285909 534.2 
L 205.196212 534.2 
L 205.196212 534.2 
L 186.285909 534.2 
z
" style="fill:#4c72b0;opacity:0.4;"/>
   </g>
   <g id="patch_47">
    <path clip-path="url(#p6f8f14ed98)" d="M 205.196212 534.2 
L 224.106515 534.2 
L 224.106515 465.855569 
L 205.196212 465.855569 
z
" style="fill:#4c72b0;opacity:0.4;"/>
   </g>
   <g id="patch_48">
    <path clip-path="url(#p6f8f14ed98)" d="M 224.106515 534.2 
L 243.016818 534.2 
L 243.016818 422.373897 
L 224.106515 422.373897 
z
" style="fill:#4c72b0;opacity:0.4;"/>
   </g>
   <g id="patch_49">
    <path clip-path="url(#p6f8f14ed98)" d="M 243.016818 534.2 
L 261.927121 534.2 
L 261.927121 333.818628 
L 243.016818 333.818628 
z
" style="fill:#4c72b0;opacity:0.4;"/>
   </g>
   <g id="patch_50">
    <path clip-path="url(#p6f8f14ed98)" d="M 261.927121 534.2 
L 280.837424 534.2 
L 280.837424 450.60678 
L 261.927121 450.60678 
z
" style="fill:#4c72b0;opacity:0.4;"/>
   </g>
   <g id="patch_51">
    <path clip-path="url(#p6f8f14ed98)" d="M 280.837424 534.2 
L 299.747727 534.2 
L 299.747727 513.660208 
L 280.837424 513.660208 
z
" style="fill:#4c72b0;opacity:0.4;"/>
   </g>
   <g id="patch_52">
    <path d="M 51.55 534.2 
L 51.55 300.4 
" style="fill:none;"/>
   </g>
   <g id="patch_53">
    <path d="M 51.55 534.2 
L 311.566667 534.2 
" style="fill:none;"/>
   </g>
   <g id="text_34">
    <!-- variable = review_palate -->
    <defs>
     <path d="M 27.046875 0.390625 
Q 25.046875 -0.140625 22.96875 -0.453125 
Q 20.90625 -0.78125 18.171875 -0.78125 
Q 7.625 -0.78125 7.625 11.1875 
L 7.625 46.4375 
L 1.515625 46.4375 
L 1.515625 52.828125 
L 7.953125 52.828125 
L 10.546875 64.65625 
L 16.40625 64.65625 
L 16.40625 52.828125 
L 26.171875 52.828125 
L 26.171875 46.4375 
L 16.40625 46.4375 
L 16.40625 13.09375 
Q 16.40625 9.28125 17.640625 7.734375 
Q 18.890625 6.203125 21.96875 6.203125 
Q 23.25 6.203125 24.4375 6.390625 
Q 25.640625 6.59375 27.046875 6.890625 
z
" id="LiberationSans-74"/>
    </defs>
    <g style="fill:#262626;" transform="translate(122.095599 294.4)scale(0.11 -0.11)">
     <use xlink:href="#LiberationSans-76"/>
     <use x="50" xlink:href="#LiberationSans-61"/>
     <use x="105.615234" xlink:href="#LiberationSans-72"/>
     <use x="138.916016" xlink:href="#LiberationSans-69"/>
     <use x="161.132812" xlink:href="#LiberationSans-61"/>
     <use x="216.748047" xlink:href="#LiberationSans-62"/>
     <use x="272.363281" xlink:href="#LiberationSans-6c"/>
     <use x="294.580078" xlink:href="#LiberationSans-65"/>
     <use x="350.195312" xlink:href="#LiberationSans-20"/>
     <use x="377.978516" xlink:href="#LiberationSans-3d"/>
     <use x="436.376953" xlink:href="#LiberationSans-20"/>
     <use x="464.160156" xlink:href="#LiberationSans-72"/>
     <use x="497.460938" xlink:href="#LiberationSans-65"/>
     <use x="553.076172" xlink:href="#LiberationSans-76"/>
     <use x="603.076172" xlink:href="#LiberationSans-69"/>
     <use x="625.292969" xlink:href="#LiberationSans-65"/>
     <use x="680.908203" xlink:href="#LiberationSans-77"/>
     <use x="753.125" xlink:href="#LiberationSans-5f"/>
     <use x="808.740234" xlink:href="#LiberationSans-70"/>
     <use x="864.355469" xlink:href="#LiberationSans-61"/>
     <use x="919.970703" xlink:href="#LiberationSans-6c"/>
     <use x="942.1875" xlink:href="#LiberationSans-61"/>
     <use x="997.802734" xlink:href="#LiberationSans-74"/>
     <use x="1025.585938" xlink:href="#LiberationSans-65"/>
    </g>
   </g>
  </g>
  <g id="axes_5">
   <g id="patch_54">
    <path d="M 322.366667 534.2 
L 582.383333 534.2 
L 582.383333 300.4 
L 322.366667 300.4 
z
" style="fill:#eaeaf2;"/>
   </g>
   <g id="matplotlib.axis_9">
    <g id="xtick_25">
     <g id="line2d_113">
      <path clip-path="url(#p460398d0b7)" d="M 334.185606 534.2 
L 334.185606 300.4 
" style="fill:none;stroke:#ffffff;stroke-linecap:round;"/>
     </g>
     <g id="line2d_114"/>
     <g id="text_35">
      <!-- 0 -->
      <g style="fill:#262626;" transform="translate(331.405137 548.446875)scale(0.1 -0.1)">
       <use xlink:href="#LiberationSans-30"/>
      </g>
     </g>
    </g>
    <g id="xtick_26">
     <g id="line2d_115">
      <path clip-path="url(#p460398d0b7)" d="M 381.461364 534.2 
L 381.461364 300.4 
" style="fill:none;stroke:#ffffff;stroke-linecap:round;"/>
     </g>
     <g id="line2d_116"/>
     <g id="text_36">
      <!-- 1 -->
      <g style="fill:#262626;" transform="translate(378.680895 548.446875)scale(0.1 -0.1)">
       <use xlink:href="#LiberationSans-31"/>
      </g>
     </g>
    </g>
    <g id="xtick_27">
     <g id="line2d_117">
      <path clip-path="url(#p460398d0b7)" d="M 428.737121 534.2 
L 428.737121 300.4 
" style="fill:none;stroke:#ffffff;stroke-linecap:round;"/>
     </g>
     <g id="line2d_118"/>
     <g id="text_37">
      <!-- 2 -->
      <g style="fill:#262626;" transform="translate(425.956652 548.446875)scale(0.1 -0.1)">
       <use xlink:href="#LiberationSans-32"/>
      </g>
     </g>
    </g>
    <g id="xtick_28">
     <g id="line2d_119">
      <path clip-path="url(#p460398d0b7)" d="M 476.012879 534.2 
L 476.012879 300.4 
" style="fill:none;stroke:#ffffff;stroke-linecap:round;"/>
     </g>
     <g id="line2d_120"/>
     <g id="text_38">
      <!-- 3 -->
      <g style="fill:#262626;" transform="translate(473.23241 548.446875)scale(0.1 -0.1)">
       <use xlink:href="#LiberationSans-33"/>
      </g>
     </g>
    </g>
    <g id="xtick_29">
     <g id="line2d_121">
      <path clip-path="url(#p460398d0b7)" d="M 523.288636 534.2 
L 523.288636 300.4 
" style="fill:none;stroke:#ffffff;stroke-linecap:round;"/>
     </g>
     <g id="line2d_122"/>
     <g id="text_39">
      <!-- 4 -->
      <g style="fill:#262626;" transform="translate(520.508168 548.446875)scale(0.1 -0.1)">
       <use xlink:href="#LiberationSans-34"/>
      </g>
     </g>
    </g>
    <g id="xtick_30">
     <g id="line2d_123">
      <path clip-path="url(#p460398d0b7)" d="M 570.564394 534.2 
L 570.564394 300.4 
" style="fill:none;stroke:#ffffff;stroke-linecap:round;"/>
     </g>
     <g id="line2d_124"/>
     <g id="text_40">
      <!-- 5 -->
      <g style="fill:#262626;" transform="translate(567.783925 548.446875)scale(0.1 -0.1)">
       <use xlink:href="#LiberationSans-35"/>
      </g>
     </g>
    </g>
    <g id="text_41">
     <!-- value -->
     <g style="fill:#262626;" transform="translate(439.227422 562.493438)scale(0.11 -0.11)">
      <use xlink:href="#LiberationSans-76"/>
      <use x="50" xlink:href="#LiberationSans-61"/>
      <use x="105.615234" xlink:href="#LiberationSans-6c"/>
      <use x="127.832031" xlink:href="#LiberationSans-75"/>
      <use x="183.447266" xlink:href="#LiberationSans-65"/>
     </g>
    </g>
   </g>
   <g id="matplotlib.axis_10">
    <g id="ytick_33">
     <g id="line2d_125">
      <path clip-path="url(#p460398d0b7)" d="M 322.366667 534.2 
L 582.383333 534.2 
" style="fill:none;stroke:#ffffff;stroke-linecap:round;"/>
     </g>
     <g id="line2d_126"/>
    </g>
    <g id="ytick_34">
     <g id="line2d_127">
      <path clip-path="url(#p460398d0b7)" d="M 322.366667 501.172517 
L 582.383333 501.172517 
" style="fill:none;stroke:#ffffff;stroke-linecap:round;"/>
     </g>
     <g id="line2d_128"/>
    </g>
    <g id="ytick_35">
     <g id="line2d_129">
      <path clip-path="url(#p460398d0b7)" d="M 322.366667 468.145034 
L 582.383333 468.145034 
" style="fill:none;stroke:#ffffff;stroke-linecap:round;"/>
     </g>
     <g id="line2d_130"/>
    </g>
    <g id="ytick_36">
     <g id="line2d_131">
      <path clip-path="url(#p460398d0b7)" d="M 322.366667 435.117551 
L 582.383333 435.117551 
" style="fill:none;stroke:#ffffff;stroke-linecap:round;"/>
     </g>
     <g id="line2d_132"/>
    </g>
    <g id="ytick_37">
     <g id="line2d_133">
      <path clip-path="url(#p460398d0b7)" d="M 322.366667 402.090068 
L 582.383333 402.090068 
" style="fill:none;stroke:#ffffff;stroke-linecap:round;"/>
     </g>
     <g id="line2d_134"/>
    </g>
    <g id="ytick_38">
     <g id="line2d_135">
      <path clip-path="url(#p460398d0b7)" d="M 322.366667 369.062585 
L 582.383333 369.062585 
" style="fill:none;stroke:#ffffff;stroke-linecap:round;"/>
     </g>
     <g id="line2d_136"/>
    </g>
    <g id="ytick_39">
     <g id="line2d_137">
      <path clip-path="url(#p460398d0b7)" d="M 322.366667 336.035102 
L 582.383333 336.035102 
" style="fill:none;stroke:#ffffff;stroke-linecap:round;"/>
     </g>
     <g id="line2d_138"/>
    </g>
    <g id="ytick_40">
     <g id="line2d_139">
      <path clip-path="url(#p460398d0b7)" d="M 322.366667 303.007619 
L 582.383333 303.007619 
" style="fill:none;stroke:#ffffff;stroke-linecap:round;"/>
     </g>
     <g id="line2d_140"/>
    </g>
   </g>
   <g id="patch_55">
    <path clip-path="url(#p460398d0b7)" d="M 381.461364 534.2 
L 400.371667 534.2 
L 400.371667 530.900224 
L 381.461364 530.900224 
z
" style="fill:#4c72b0;opacity:0.4;"/>
   </g>
   <g id="patch_56">
    <path clip-path="url(#p460398d0b7)" d="M 400.371667 534.2 
L 419.28197 534.2 
L 419.28197 529.203602 
L 400.371667 529.203602 
z
" style="fill:#4c72b0;opacity:0.4;"/>
   </g>
   <g id="patch_57">
    <path clip-path="url(#p460398d0b7)" d="M 419.28197 534.2 
L 438.192273 534.2 
L 438.192273 520.331099 
L 419.28197 520.331099 
z
" style="fill:#4c72b0;opacity:0.4;"/>
   </g>
   <g id="patch_58">
    <path clip-path="url(#p460398d0b7)" d="M 438.192273 534.2 
L 457.102576 534.2 
L 457.102576 512.225494 
L 438.192273 512.225494 
z
" style="fill:#4c72b0;opacity:0.4;"/>
   </g>
   <g id="patch_59">
    <path clip-path="url(#p460398d0b7)" d="M 457.102576 534.2 
L 476.012879 534.2 
L 476.012879 534.2 
L 457.102576 534.2 
z
" style="fill:#4c72b0;opacity:0.4;"/>
   </g>
   <g id="patch_60">
    <path clip-path="url(#p460398d0b7)" d="M 476.012879 534.2 
L 494.923182 534.2 
L 494.923182 479.090342 
L 476.012879 479.090342 
z
" style="fill:#4c72b0;opacity:0.4;"/>
   </g>
   <g id="patch_61">
    <path clip-path="url(#p460398d0b7)" d="M 494.923182 534.2 
L 513.833485 534.2 
L 513.833485 427.012276 
L 494.923182 427.012276 
z
" style="fill:#4c72b0;opacity:0.4;"/>
   </g>
   <g id="patch_62">
    <path clip-path="url(#p460398d0b7)" d="M 513.833485 534.2 
L 532.743788 534.2 
L 532.743788 355.379629 
L 513.833485 355.379629 
z
" style="fill:#4c72b0;opacity:0.4;"/>
   </g>
   <g id="patch_63">
    <path clip-path="url(#p460398d0b7)" d="M 532.743788 534.2 
L 551.654091 534.2 
L 551.654091 423.174153 
L 532.743788 423.174153 
z
" style="fill:#4c72b0;opacity:0.4;"/>
   </g>
   <g id="patch_64">
    <path clip-path="url(#p460398d0b7)" d="M 551.654091 534.2 
L 570.564394 534.2 
L 570.564394 506.464511 
L 551.654091 506.464511 
z
" style="fill:#4c72b0;opacity:0.4;"/>
   </g>
   <g id="patch_65">
    <path d="M 322.366667 534.2 
L 322.366667 300.4 
" style="fill:none;"/>
   </g>
   <g id="patch_66">
    <path d="M 322.366667 534.2 
L 582.383333 534.2 
" style="fill:none;"/>
   </g>
   <g id="text_42">
    <!-- variable = review_taste -->
    <defs>
     <path d="M 46.390625 14.59375 
Q 46.390625 10.890625 44.9375 7.984375 
Q 43.5 5.078125 40.765625 3.09375 
Q 38.03125 1.125 34.046875 0.0625 
Q 30.078125 -0.984375 24.953125 -0.984375 
Q 20.359375 -0.984375 16.671875 -0.265625 
Q 12.984375 0.4375 10.203125 2 
Q 7.421875 3.5625 5.53125 6.125 
Q 3.65625 8.6875 2.78125 12.40625 
L 10.546875 13.921875 
Q 11.671875 9.671875 15.1875 7.6875 
Q 18.703125 5.71875 24.953125 5.71875 
Q 27.78125 5.71875 30.140625 6.109375 
Q 32.515625 6.5 34.21875 7.453125 
Q 35.9375 8.40625 36.890625 9.984375 
Q 37.84375 11.578125 37.84375 13.921875 
Q 37.84375 16.3125 36.71875 17.84375 
Q 35.59375 19.390625 33.59375 20.40625 
Q 31.59375 21.4375 28.734375 22.1875 
Q 25.875 22.953125 22.46875 23.875 
Q 19.28125 24.703125 16.15625 25.734375 
Q 13.03125 26.765625 10.515625 28.4375 
Q 8.015625 30.125 6.453125 32.609375 
Q 4.890625 35.109375 4.890625 38.875 
Q 4.890625 46.09375 10.03125 49.875 
Q 15.1875 53.65625 25.046875 53.65625 
Q 33.796875 53.65625 38.9375 50.578125 
Q 44.09375 47.515625 45.453125 40.71875 
L 37.546875 39.75 
Q 37.109375 41.796875 35.9375 43.1875 
Q 34.765625 44.578125 33.109375 45.4375 
Q 31.453125 46.296875 29.375 46.65625 
Q 27.296875 47.015625 25.046875 47.015625 
Q 19.09375 47.015625 16.25 45.203125 
Q 13.421875 43.40625 13.421875 39.75 
Q 13.421875 37.59375 14.46875 36.203125 
Q 15.53125 34.8125 17.40625 33.859375 
Q 19.28125 32.90625 21.921875 32.203125 
Q 24.5625 31.5 27.734375 30.71875 
Q 29.828125 30.171875 32.03125 29.5625 
Q 34.234375 28.953125 36.296875 28.09375 
Q 38.375 27.25 40.203125 26.09375 
Q 42.046875 24.953125 43.40625 23.34375 
Q 44.78125 21.734375 45.578125 19.578125 
Q 46.390625 17.4375 46.390625 14.59375 
" id="LiberationSans-73"/>
    </defs>
    <g style="fill:#262626;" transform="translate(395.973359 294.4)scale(0.11 -0.11)">
     <use xlink:href="#LiberationSans-76"/>
     <use x="50" xlink:href="#LiberationSans-61"/>
     <use x="105.615234" xlink:href="#LiberationSans-72"/>
     <use x="138.916016" xlink:href="#LiberationSans-69"/>
     <use x="161.132812" xlink:href="#LiberationSans-61"/>
     <use x="216.748047" xlink:href="#LiberationSans-62"/>
     <use x="272.363281" xlink:href="#LiberationSans-6c"/>
     <use x="294.580078" xlink:href="#LiberationSans-65"/>
     <use x="350.195312" xlink:href="#LiberationSans-20"/>
     <use x="377.978516" xlink:href="#LiberationSans-3d"/>
     <use x="436.376953" xlink:href="#LiberationSans-20"/>
     <use x="464.160156" xlink:href="#LiberationSans-72"/>
     <use x="497.460938" xlink:href="#LiberationSans-65"/>
     <use x="553.076172" xlink:href="#LiberationSans-76"/>
     <use x="603.076172" xlink:href="#LiberationSans-69"/>
     <use x="625.292969" xlink:href="#LiberationSans-65"/>
     <use x="680.908203" xlink:href="#LiberationSans-77"/>
     <use x="753.125" xlink:href="#LiberationSans-5f"/>
     <use x="808.740234" xlink:href="#LiberationSans-74"/>
     <use x="836.523438" xlink:href="#LiberationSans-61"/>
     <use x="892.138672" xlink:href="#LiberationSans-73"/>
     <use x="942.138672" xlink:href="#LiberationSans-74"/>
     <use x="969.921875" xlink:href="#LiberationSans-65"/>
    </g>
   </g>
  </g>
 </g>
 <defs>
  <clipPath id="p85a4798d50">
   <rect height="233.8" width="260.016667" x="51.55" y="24.8"/>
  </clipPath>
  <clipPath id="pae21ad05c2">
   <rect height="233.8" width="260.016667" x="322.366667" y="24.8"/>
  </clipPath>
  <clipPath id="p756310e9bf">
   <rect height="233.8" width="260.016667" x="593.183333" y="24.8"/>
  </clipPath>
  <clipPath id="p6f8f14ed98">
   <rect height="233.8" width="260.016667" x="51.55" y="300.4"/>
  </clipPath>
  <clipPath id="p460398d0b7">
   <rect height="233.8" width="260.016667" x="322.366667" y="300.4"/>
  </clipPath>
 </defs>
</svg>
