<?xml version="1.0" encoding="utf-8" standalone="no"?>
<!DOCTYPE svg PUBLIC "-//W3C//DTD SVG 1.1//EN"
  "http://www.w3.org/Graphics/SVG/1.1/DTD/svg11.dtd">
<!-- Created with matplotlib (http://matplotlib.org/) -->
<svg height="288pt" version="1.1" viewBox="0 0 1224 288" width="1224pt" xmlns="http://www.w3.org/2000/svg" xmlns:xlink="http://www.w3.org/1999/xlink">
 <defs>
  <style type="text/css">
*{stroke-linecap:butt;stroke-linejoin:round;}
  </style>
 </defs>
 <g id="figure_1">
  <g id="patch_1">
   <path d="M 0 288 
L 1224 288 
L 1224 0 
L 0 0 
z
" style="fill:#ffffff;"/>
  </g>
  <g id="axes_1">
   <g id="patch_2">
    <path d="M 153 252 
L 1101.6 252 
L 1101.6 34.56 
L 153 34.56 
z
" style="fill:#eaeaf2;"/>
   </g>
   <g id="matplotlib.axis_1">
    <g id="xtick_1">
     <g id="line2d_1">
      <path clip-path="url(#p882b35b059)" d="M 208.225044 252 
L 208.225044 34.56 
" style="fill:none;stroke:#ffffff;stroke-linecap:round;"/>
     </g>
     <g id="line2d_2"/>
     <g id="text_1">
      <!-- −10 -->
      <defs>
       <path d="M 4.9375 29.6875 
L 4.9375 36.8125 
L 53.515625 36.8125 
L 53.515625 29.6875 
z
" id="LiberationSans-2212"/>
       <path d="M 7.625 0 
L 7.625 7.46875 
L 25.140625 7.46875 
L 25.140625 60.40625 
L 9.625 49.3125 
L 9.625 57.625 
L 25.875 68.796875 
L 33.984375 68.796875 
L 33.984375 7.46875 
L 50.734375 7.46875 
L 50.734375 0 
z
" id="LiberationSans-31"/>
       <path d="M 51.703125 34.421875 
Q 51.703125 24.515625 49.828125 17.75 
Q 47.953125 10.984375 44.703125 6.8125 
Q 41.453125 2.640625 37.0625 0.828125 
Q 32.671875 -0.984375 27.6875 -0.984375 
Q 22.65625 -0.984375 18.3125 0.828125 
Q 13.96875 2.640625 10.765625 6.78125 
Q 7.5625 10.9375 5.734375 17.703125 
Q 3.90625 24.46875 3.90625 34.421875 
Q 3.90625 44.828125 5.734375 51.640625 
Q 7.5625 58.453125 10.78125 62.5 
Q 14.015625 66.546875 18.40625 68.1875 
Q 22.796875 69.828125 27.984375 69.828125 
Q 32.90625 69.828125 37.21875 68.1875 
Q 41.546875 66.546875 44.765625 62.5 
Q 48 58.453125 49.84375 51.640625 
Q 51.703125 44.828125 51.703125 34.421875 
M 42.78125 34.421875 
Q 42.78125 42.625 41.796875 48.0625 
Q 40.828125 53.515625 38.921875 56.765625 
Q 37.015625 60.015625 34.25 61.359375 
Q 31.5 62.703125 27.984375 62.703125 
Q 24.265625 62.703125 21.4375 61.328125 
Q 18.609375 59.96875 16.671875 56.71875 
Q 14.75 53.46875 13.765625 48.015625 
Q 12.796875 42.578125 12.796875 34.421875 
Q 12.796875 26.515625 13.796875 21.09375 
Q 14.796875 15.671875 16.71875 12.375 
Q 18.65625 9.078125 21.4375 7.640625 
Q 24.21875 6.203125 27.78125 6.203125 
Q 31.25 6.203125 34.03125 7.640625 
Q 36.8125 9.078125 38.734375 12.375 
Q 40.671875 15.671875 41.71875 21.09375 
Q 42.78125 26.515625 42.78125 34.421875 
" id="LiberationSans-30"/>
      </defs>
      <g style="fill:#262626;" transform="translate(199.743794 266.246875)scale(0.1 -0.1)">
       <use xlink:href="#LiberationSans-2212"/>
       <use x="58.398438" xlink:href="#LiberationSans-31"/>
       <use x="114.013672" xlink:href="#LiberationSans-30"/>
      </g>
     </g>
    </g>
    <g id="xtick_2">
     <g id="line2d_3">
      <path clip-path="url(#p882b35b059)" d="M 417.487473 252 
L 417.487473 34.56 
" style="fill:none;stroke:#ffffff;stroke-linecap:round;"/>
     </g>
     <g id="line2d_4"/>
     <g id="text_2">
      <!-- 0 -->
      <g style="fill:#262626;" transform="translate(414.707004 266.246875)scale(0.1 -0.1)">
       <use xlink:href="#LiberationSans-30"/>
      </g>
     </g>
    </g>
    <g id="xtick_3">
     <g id="line2d_5">
      <path clip-path="url(#p882b35b059)" d="M 626.749902 252 
L 626.749902 34.56 
" style="fill:none;stroke:#ffffff;stroke-linecap:round;"/>
     </g>
     <g id="line2d_6"/>
     <g id="text_3">
      <!-- 10 -->
      <g style="fill:#262626;" transform="translate(621.188964 266.246875)scale(0.1 -0.1)">
       <use xlink:href="#LiberationSans-31"/>
       <use x="55.615234" xlink:href="#LiberationSans-30"/>
      </g>
     </g>
    </g>
    <g id="xtick_4">
     <g id="line2d_7">
      <path clip-path="url(#p882b35b059)" d="M 836.012331 252 
L 836.012331 34.56 
" style="fill:none;stroke:#ffffff;stroke-linecap:round;"/>
     </g>
     <g id="line2d_8"/>
     <g id="text_4">
      <!-- 20 -->
      <defs>
       <path d="M 5.03125 0 
L 5.03125 6.203125 
Q 7.515625 11.921875 11.109375 16.28125 
Q 14.703125 20.65625 18.65625 24.1875 
Q 22.609375 27.734375 26.484375 30.765625 
Q 30.375 33.796875 33.5 36.8125 
Q 36.625 39.84375 38.546875 43.15625 
Q 40.484375 46.484375 40.484375 50.6875 
Q 40.484375 53.609375 39.59375 55.828125 
Q 38.71875 58.0625 37.0625 59.5625 
Q 35.40625 61.078125 33.078125 61.828125 
Q 30.765625 62.59375 27.9375 62.59375 
Q 25.296875 62.59375 22.96875 61.859375 
Q 20.65625 61.140625 18.84375 59.671875 
Q 17.046875 58.203125 15.890625 56.03125 
Q 14.75 53.859375 14.40625 50.984375 
L 5.421875 51.8125 
Q 5.859375 55.515625 7.46875 58.78125 
Q 9.078125 62.0625 11.90625 64.53125 
Q 14.75 67 18.71875 68.40625 
Q 22.703125 69.828125 27.9375 69.828125 
Q 33.0625 69.828125 37.0625 68.609375 
Q 41.0625 67.390625 43.8125 64.984375 
Q 46.578125 62.59375 48.046875 59.078125 
Q 49.515625 55.5625 49.515625 50.984375 
Q 49.515625 47.515625 48.265625 44.390625 
Q 47.015625 41.265625 44.9375 38.421875 
Q 42.875 35.59375 40.140625 32.953125 
Q 37.40625 30.328125 34.421875 27.8125 
Q 31.453125 25.296875 28.421875 22.828125 
Q 25.390625 20.359375 22.71875 17.859375 
Q 20.0625 15.375 17.96875 12.8125 
Q 15.875 10.25 14.703125 7.46875 
L 50.59375 7.46875 
L 50.59375 0 
z
" id="LiberationSans-32"/>
      </defs>
      <g style="fill:#262626;" transform="translate(830.451393 266.246875)scale(0.1 -0.1)">
       <use xlink:href="#LiberationSans-32"/>
       <use x="55.615234" xlink:href="#LiberationSans-30"/>
      </g>
     </g>
    </g>
    <g id="xtick_5">
     <g id="line2d_9">
      <path clip-path="url(#p882b35b059)" d="M 1045.274759 252 
L 1045.274759 34.56 
" style="fill:none;stroke:#ffffff;stroke-linecap:round;"/>
     </g>
     <g id="line2d_10"/>
     <g id="text_5">
      <!-- 30 -->
      <defs>
       <path d="M 51.21875 19 
Q 51.21875 14.265625 49.671875 10.546875 
Q 48.140625 6.84375 45.1875 4.265625 
Q 42.234375 1.703125 37.859375 0.359375 
Q 33.5 -0.984375 27.875 -0.984375 
Q 21.484375 -0.984375 17.109375 0.609375 
Q 12.75 2.203125 9.90625 4.8125 
Q 7.078125 7.421875 5.65625 10.765625 
Q 4.25 14.109375 3.8125 17.671875 
L 12.890625 18.5 
Q 13.28125 15.765625 14.328125 13.515625 
Q 15.375 11.28125 17.1875 9.671875 
Q 19 8.0625 21.625 7.171875 
Q 24.265625 6.296875 27.875 6.296875 
Q 34.515625 6.296875 38.296875 9.5625 
Q 42.09375 12.84375 42.09375 19.28125 
Q 42.09375 23.09375 40.40625 25.40625 
Q 38.71875 27.734375 36.203125 29.03125 
Q 33.6875 30.328125 30.734375 30.765625 
Q 27.78125 31.203125 25.296875 31.203125 
L 20.3125 31.203125 
L 20.3125 38.8125 
L 25.09375 38.8125 
Q 27.59375 38.8125 30.265625 39.328125 
Q 32.953125 39.84375 35.171875 41.1875 
Q 37.40625 42.53125 38.84375 44.828125 
Q 40.28125 47.125 40.28125 50.6875 
Q 40.28125 56.203125 37.03125 59.390625 
Q 33.796875 62.59375 27.390625 62.59375 
Q 21.578125 62.59375 17.984375 59.609375 
Q 14.40625 56.640625 13.8125 51.21875 
L 4.984375 51.90625 
Q 5.515625 56.453125 7.46875 59.8125 
Q 9.421875 63.1875 12.421875 65.40625 
Q 15.4375 67.625 19.28125 68.71875 
Q 23.140625 69.828125 27.484375 69.828125 
Q 33.25 69.828125 37.390625 68.375 
Q 41.546875 66.9375 44.1875 64.46875 
Q 46.828125 62.015625 48.0625 58.6875 
Q 49.3125 55.375 49.3125 51.609375 
Q 49.3125 48.578125 48.484375 45.9375 
Q 47.65625 43.3125 45.890625 41.203125 
Q 44.140625 39.109375 41.421875 37.59375 
Q 38.71875 36.078125 34.90625 35.296875 
L 34.90625 35.109375 
Q 39.0625 34.671875 42.140625 33.21875 
Q 45.21875 31.78125 47.21875 29.625 
Q 49.21875 27.484375 50.21875 24.75 
Q 51.21875 22.015625 51.21875 19 
" id="LiberationSans-33"/>
      </defs>
      <g style="fill:#262626;" transform="translate(1039.713822 266.246875)scale(0.1 -0.1)">
       <use xlink:href="#LiberationSans-33"/>
       <use x="55.615234" xlink:href="#LiberationSans-30"/>
      </g>
     </g>
    </g>
   </g>
   <g id="matplotlib.axis_2">
    <g id="ytick_1">
     <g id="line2d_11">
      <path clip-path="url(#p882b35b059)" d="M 153 252 
L 1101.6 252 
" style="fill:none;stroke:#ffffff;stroke-linecap:round;"/>
     </g>
     <g id="line2d_12"/>
     <g id="text_6">
      <!-- 0.00 -->
      <defs>
       <path d="M 9.125 0 
L 9.125 10.6875 
L 18.65625 10.6875 
L 18.65625 0 
z
" id="LiberationSans-2e"/>
      </defs>
      <g style="fill:#262626;" transform="translate(126.539062 255.623437)scale(0.1 -0.1)">
       <use xlink:href="#LiberationSans-30"/>
       <use x="55.615234" xlink:href="#LiberationSans-2e"/>
       <use x="83.398438" xlink:href="#LiberationSans-30"/>
       <use x="139.013672" xlink:href="#LiberationSans-30"/>
      </g>
     </g>
    </g>
    <g id="ytick_2">
     <g id="line2d_13">
      <path clip-path="url(#p882b35b059)" d="M 153 219.85712 
L 1101.6 219.85712 
" style="fill:none;stroke:#ffffff;stroke-linecap:round;"/>
     </g>
     <g id="line2d_14"/>
     <g id="text_7">
      <!-- 0.02 -->
      <g style="fill:#262626;" transform="translate(126.539062 223.480557)scale(0.1 -0.1)">
       <use xlink:href="#LiberationSans-30"/>
       <use x="55.615234" xlink:href="#LiberationSans-2e"/>
       <use x="83.398438" xlink:href="#LiberationSans-30"/>
       <use x="139.013672" xlink:href="#LiberationSans-32"/>
      </g>
     </g>
    </g>
    <g id="ytick_3">
     <g id="line2d_15">
      <path clip-path="url(#p882b35b059)" d="M 153 187.71424 
L 1101.6 187.71424 
" style="fill:none;stroke:#ffffff;stroke-linecap:round;"/>
     </g>
     <g id="line2d_16"/>
     <g id="text_8">
      <!-- 0.04 -->
      <defs>
       <path d="M 43.015625 15.578125 
L 43.015625 0 
L 34.71875 0 
L 34.71875 15.578125 
L 2.296875 15.578125 
L 2.296875 22.40625 
L 33.796875 68.796875 
L 43.015625 68.796875 
L 43.015625 22.515625 
L 52.6875 22.515625 
L 52.6875 15.578125 
z
M 34.71875 58.890625 
Q 34.625 58.640625 34.234375 57.9375 
Q 33.84375 57.234375 33.34375 56.34375 
Q 32.859375 55.46875 32.34375 54.5625 
Q 31.84375 53.65625 31.453125 53.078125 
L 13.8125 27.09375 
Q 13.578125 26.703125 13.109375 26.0625 
Q 12.640625 25.4375 12.15625 24.78125 
Q 11.671875 24.125 11.171875 23.484375 
Q 10.6875 22.859375 10.40625 22.515625 
L 34.71875 22.515625 
z
" id="LiberationSans-34"/>
      </defs>
      <g style="fill:#262626;" transform="translate(126.539062 191.337677)scale(0.1 -0.1)">
       <use xlink:href="#LiberationSans-30"/>
       <use x="55.615234" xlink:href="#LiberationSans-2e"/>
       <use x="83.398438" xlink:href="#LiberationSans-30"/>
       <use x="139.013672" xlink:href="#LiberationSans-34"/>
      </g>
     </g>
    </g>
    <g id="ytick_4">
     <g id="line2d_17">
      <path clip-path="url(#p882b35b059)" d="M 153 155.57136 
L 1101.6 155.57136 
" style="fill:none;stroke:#ffffff;stroke-linecap:round;"/>
     </g>
     <g id="line2d_18"/>
     <g id="text_9">
      <!-- 0.06 -->
      <defs>
       <path d="M 51.21875 22.515625 
Q 51.21875 17.328125 49.78125 13 
Q 48.34375 8.6875 45.53125 5.578125 
Q 42.71875 2.484375 38.5625 0.75 
Q 34.421875 -0.984375 29 -0.984375 
Q 23 -0.984375 18.5 1.3125 
Q 14.015625 3.609375 11.03125 7.921875 
Q 8.0625 12.25 6.5625 18.53125 
Q 5.078125 24.8125 5.078125 32.8125 
Q 5.078125 42 6.765625 48.921875 
Q 8.453125 55.859375 11.625 60.5 
Q 14.796875 65.140625 19.359375 67.484375 
Q 23.921875 69.828125 29.6875 69.828125 
Q 33.203125 69.828125 36.28125 69.09375 
Q 39.359375 68.359375 41.875 66.71875 
Q 44.390625 65.09375 46.28125 62.40625 
Q 48.1875 59.71875 49.3125 55.8125 
L 40.921875 54.296875 
Q 39.546875 58.734375 36.546875 60.71875 
Q 33.546875 62.703125 29.59375 62.703125 
Q 25.984375 62.703125 23.046875 60.984375 
Q 20.125 59.28125 18.0625 55.875 
Q 16.015625 52.484375 14.90625 47.359375 
Q 13.8125 42.234375 13.8125 35.40625 
Q 16.21875 39.84375 20.5625 42.15625 
Q 24.90625 44.484375 30.515625 44.484375 
Q 35.203125 44.484375 39.015625 42.96875 
Q 42.828125 41.453125 45.53125 38.59375 
Q 48.25 35.75 49.734375 31.671875 
Q 51.21875 27.59375 51.21875 22.515625 
M 42.28125 22.125 
Q 42.28125 25.6875 41.40625 28.5625 
Q 40.53125 31.453125 38.765625 33.46875 
Q 37.015625 35.5 34.421875 36.59375 
Q 31.84375 37.703125 28.421875 37.703125 
Q 26.03125 37.703125 23.578125 36.984375 
Q 21.140625 36.28125 19.15625 34.6875 
Q 17.1875 33.109375 15.9375 30.515625 
Q 14.703125 27.9375 14.703125 24.21875 
Q 14.703125 20.40625 15.671875 17.109375 
Q 16.65625 13.8125 18.484375 11.375 
Q 20.3125 8.9375 22.890625 7.515625 
Q 25.484375 6.109375 28.71875 6.109375 
Q 31.890625 6.109375 34.40625 7.203125 
Q 36.921875 8.296875 38.671875 10.375 
Q 40.4375 12.453125 41.359375 15.421875 
Q 42.28125 18.40625 42.28125 22.125 
" id="LiberationSans-36"/>
      </defs>
      <g style="fill:#262626;" transform="translate(126.539062 159.194797)scale(0.1 -0.1)">
       <use xlink:href="#LiberationSans-30"/>
       <use x="55.615234" xlink:href="#LiberationSans-2e"/>
       <use x="83.398438" xlink:href="#LiberationSans-30"/>
       <use x="139.013672" xlink:href="#LiberationSans-36"/>
      </g>
     </g>
    </g>
    <g id="ytick_5">
     <g id="line2d_19">
      <path clip-path="url(#p882b35b059)" d="M 153 123.42848 
L 1101.6 123.42848 
" style="fill:none;stroke:#ffffff;stroke-linecap:round;"/>
     </g>
     <g id="line2d_20"/>
     <g id="text_10">
      <!-- 0.08 -->
      <defs>
       <path d="M 51.265625 19.1875 
Q 51.265625 14.796875 49.875 11.109375 
Q 48.484375 7.421875 45.625 4.734375 
Q 42.78125 2.046875 38.328125 0.53125 
Q 33.890625 -0.984375 27.828125 -0.984375 
Q 21.78125 -0.984375 17.359375 0.53125 
Q 12.9375 2.046875 10.03125 4.703125 
Q 7.125 7.375 5.734375 11.0625 
Q 4.34375 14.75 4.34375 19.09375 
Q 4.34375 22.859375 5.484375 25.78125 
Q 6.640625 28.71875 8.5625 30.828125 
Q 10.5 32.953125 12.96875 34.25 
Q 15.4375 35.546875 18.0625 35.984375 
L 18.0625 36.1875 
Q 15.1875 36.859375 12.90625 38.375 
Q 10.640625 39.890625 9.09375 42.015625 
Q 7.5625 44.140625 6.75 46.71875 
Q 5.953125 49.3125 5.953125 52.203125 
Q 5.953125 55.8125 7.34375 59 
Q 8.734375 62.203125 11.46875 64.625 
Q 14.203125 67.046875 18.25 68.4375 
Q 22.3125 69.828125 27.640625 69.828125 
Q 33.25 69.828125 37.375 68.40625 
Q 41.5 67 44.203125 64.578125 
Q 46.921875 62.15625 48.234375 58.9375 
Q 49.5625 55.71875 49.5625 52.09375 
Q 49.5625 49.265625 48.75 46.671875 
Q 47.953125 44.09375 46.40625 41.96875 
Q 44.875 39.84375 42.59375 38.34375 
Q 40.328125 36.859375 37.359375 36.28125 
L 37.359375 36.078125 
Q 40.328125 35.59375 42.859375 34.296875 
Q 45.40625 33.015625 47.265625 30.890625 
Q 49.125 28.765625 50.1875 25.828125 
Q 51.265625 22.90625 51.265625 19.1875 
M 40.4375 51.609375 
Q 40.4375 54.203125 39.765625 56.34375 
Q 39.109375 58.5 37.59375 60.03125 
Q 36.078125 61.578125 33.640625 62.421875 
Q 31.203125 63.28125 27.640625 63.28125 
Q 24.171875 63.28125 21.78125 62.421875 
Q 19.390625 61.578125 17.84375 60.03125 
Q 16.3125 58.5 15.625 56.34375 
Q 14.9375 54.203125 14.9375 51.609375 
Q 14.9375 49.5625 15.46875 47.40625 
Q 16.015625 45.265625 17.421875 43.5 
Q 18.84375 41.75 21.328125 40.625 
Q 23.828125 39.5 27.734375 39.5 
Q 31.890625 39.5 34.40625 40.625 
Q 36.921875 41.75 38.25 43.5 
Q 39.59375 45.265625 40.015625 47.40625 
Q 40.4375 49.5625 40.4375 51.609375 
M 42.140625 20.015625 
Q 42.140625 22.515625 41.453125 24.828125 
Q 40.765625 27.15625 39.109375 28.9375 
Q 37.453125 30.71875 34.640625 31.8125 
Q 31.84375 32.90625 27.640625 32.90625 
Q 23.78125 32.90625 21.0625 31.8125 
Q 18.359375 30.71875 16.671875 28.90625 
Q 14.984375 27.09375 14.203125 24.71875 
Q 13.421875 22.359375 13.421875 19.828125 
Q 13.421875 16.65625 14.203125 14.03125 
Q 14.984375 11.421875 16.6875 9.546875 
Q 18.40625 7.671875 21.1875 6.640625 
Q 23.96875 5.609375 27.9375 5.609375 
Q 31.9375 5.609375 34.671875 6.640625 
Q 37.40625 7.671875 39.0625 9.546875 
Q 40.71875 11.421875 41.421875 14.078125 
Q 42.140625 16.75 42.140625 20.015625 
" id="LiberationSans-38"/>
      </defs>
      <g style="fill:#262626;" transform="translate(126.539062 127.051917)scale(0.1 -0.1)">
       <use xlink:href="#LiberationSans-30"/>
       <use x="55.615234" xlink:href="#LiberationSans-2e"/>
       <use x="83.398438" xlink:href="#LiberationSans-30"/>
       <use x="139.013672" xlink:href="#LiberationSans-38"/>
      </g>
     </g>
    </g>
    <g id="ytick_6">
     <g id="line2d_21">
      <path clip-path="url(#p882b35b059)" d="M 153 91.285599 
L 1101.6 91.285599 
" style="fill:none;stroke:#ffffff;stroke-linecap:round;"/>
     </g>
     <g id="line2d_22"/>
     <g id="text_11">
      <!-- 0.10 -->
      <g style="fill:#262626;" transform="translate(126.539062 94.909037)scale(0.1 -0.1)">
       <use xlink:href="#LiberationSans-30"/>
       <use x="55.615234" xlink:href="#LiberationSans-2e"/>
       <use x="83.398438" xlink:href="#LiberationSans-31"/>
       <use x="139.013672" xlink:href="#LiberationSans-30"/>
      </g>
     </g>
    </g>
    <g id="ytick_7">
     <g id="line2d_23">
      <path clip-path="url(#p882b35b059)" d="M 153 59.142719 
L 1101.6 59.142719 
" style="fill:none;stroke:#ffffff;stroke-linecap:round;"/>
     </g>
     <g id="line2d_24"/>
     <g id="text_12">
      <!-- 0.12 -->
      <g style="fill:#262626;" transform="translate(126.539062 62.766157)scale(0.1 -0.1)">
       <use xlink:href="#LiberationSans-30"/>
       <use x="55.615234" xlink:href="#LiberationSans-2e"/>
       <use x="83.398438" xlink:href="#LiberationSans-31"/>
       <use x="139.013672" xlink:href="#LiberationSans-32"/>
      </g>
     </g>
    </g>
   </g>
   <g id="patch_3">
    <path clip-path="url(#p882b35b059)" d="M 196.118182 252 
L 204.741818 252 
L 204.741818 251.610008 
L 196.118182 251.610008 
z
" style="fill:#55a868;opacity:0.5;"/>
   </g>
   <g id="patch_4">
    <path clip-path="url(#p882b35b059)" d="M 204.741818 252 
L 213.365455 252 
L 213.365455 252 
L 204.741818 252 
z
" style="fill:#55a868;opacity:0.5;"/>
   </g>
   <g id="patch_5">
    <path clip-path="url(#p882b35b059)" d="M 213.365455 252 
L 221.989091 252 
L 221.989091 251.610008 
L 213.365455 251.610008 
z
" style="fill:#55a868;opacity:0.5;"/>
   </g>
   <g id="patch_6">
    <path clip-path="url(#p882b35b059)" d="M 221.989091 252 
L 230.612727 252 
L 230.612727 252 
L 221.989091 252 
z
" style="fill:#55a868;opacity:0.5;"/>
   </g>
   <g id="patch_7">
    <path clip-path="url(#p882b35b059)" d="M 230.612727 252 
L 239.236364 252 
L 239.236364 252 
L 230.612727 252 
z
" style="fill:#55a868;opacity:0.5;"/>
   </g>
   <g id="patch_8">
    <path clip-path="url(#p882b35b059)" d="M 239.236364 252 
L 247.86 252 
L 247.86 251.610008 
L 239.236364 251.610008 
z
" style="fill:#55a868;opacity:0.5;"/>
   </g>
   <g id="patch_9">
    <path clip-path="url(#p882b35b059)" d="M 247.86 252 
L 256.483636 252 
L 256.483636 251.610008 
L 247.86 251.610008 
z
" style="fill:#55a868;opacity:0.5;"/>
   </g>
   <g id="patch_10">
    <path clip-path="url(#p882b35b059)" d="M 256.483636 252 
L 265.107273 252 
L 265.107273 252 
L 256.483636 252 
z
" style="fill:#55a868;opacity:0.5;"/>
   </g>
   <g id="patch_11">
    <path clip-path="url(#p882b35b059)" d="M 265.107273 252 
L 273.730909 252 
L 273.730909 251.610008 
L 265.107273 251.610008 
z
" style="fill:#55a868;opacity:0.5;"/>
   </g>
   <g id="patch_12">
    <path clip-path="url(#p882b35b059)" d="M 273.730909 252 
L 282.354545 252 
L 282.354545 252 
L 273.730909 252 
z
" style="fill:#55a868;opacity:0.5;"/>
   </g>
   <g id="patch_13">
    <path clip-path="url(#p882b35b059)" d="M 282.354545 252 
L 290.978182 252 
L 290.978182 252 
L 282.354545 252 
z
" style="fill:#55a868;opacity:0.5;"/>
   </g>
   <g id="patch_14">
    <path clip-path="url(#p882b35b059)" d="M 290.978182 252 
L 299.601818 252 
L 299.601818 251.610008 
L 290.978182 251.610008 
z
" style="fill:#55a868;opacity:0.5;"/>
   </g>
   <g id="patch_15">
    <path clip-path="url(#p882b35b059)" d="M 299.601818 252 
L 308.225455 252 
L 308.225455 251.610008 
L 299.601818 251.610008 
z
" style="fill:#55a868;opacity:0.5;"/>
   </g>
   <g id="patch_16">
    <path clip-path="url(#p882b35b059)" d="M 308.225455 252 
L 316.849091 252 
L 316.849091 252 
L 308.225455 252 
z
" style="fill:#55a868;opacity:0.5;"/>
   </g>
   <g id="patch_17">
    <path clip-path="url(#p882b35b059)" d="M 316.849091 252 
L 325.472727 252 
L 325.472727 251.220016 
L 316.849091 251.220016 
z
" style="fill:#55a868;opacity:0.5;"/>
   </g>
   <g id="patch_18">
    <path clip-path="url(#p882b35b059)" d="M 325.472727 252 
L 334.096364 252 
L 334.096364 250.440032 
L 325.472727 250.440032 
z
" style="fill:#55a868;opacity:0.5;"/>
   </g>
   <g id="patch_19">
    <path clip-path="url(#p882b35b059)" d="M 334.096364 252 
L 342.72 252 
L 342.72 252 
L 334.096364 252 
z
" style="fill:#55a868;opacity:0.5;"/>
   </g>
   <g id="patch_20">
    <path clip-path="url(#p882b35b059)" d="M 342.72 252 
L 351.343636 252 
L 351.343636 250.440032 
L 342.72 250.440032 
z
" style="fill:#55a868;opacity:0.5;"/>
   </g>
   <g id="patch_21">
    <path clip-path="url(#p882b35b059)" d="M 351.343636 252 
L 359.967273 252 
L 359.967273 250.830024 
L 351.343636 250.830024 
z
" style="fill:#55a868;opacity:0.5;"/>
   </g>
   <g id="patch_22">
    <path clip-path="url(#p882b35b059)" d="M 359.967273 252 
L 368.590909 252 
L 368.590909 250.830024 
L 359.967273 250.830024 
z
" style="fill:#55a868;opacity:0.5;"/>
   </g>
   <g id="patch_23">
    <path clip-path="url(#p882b35b059)" d="M 368.590909 252 
L 377.214545 252 
L 377.214545 251.220016 
L 368.590909 251.220016 
z
" style="fill:#55a868;opacity:0.5;"/>
   </g>
   <g id="patch_24">
    <path clip-path="url(#p882b35b059)" d="M 377.214545 252 
L 385.838182 252 
L 385.838182 251.610008 
L 377.214545 251.610008 
z
" style="fill:#55a868;opacity:0.5;"/>
   </g>
   <g id="patch_25">
    <path clip-path="url(#p882b35b059)" d="M 385.838182 252 
L 394.461818 252 
L 394.461818 251.220016 
L 385.838182 251.220016 
z
" style="fill:#55a868;opacity:0.5;"/>
   </g>
   <g id="patch_26">
    <path clip-path="url(#p882b35b059)" d="M 394.461818 252 
L 403.085455 252 
L 403.085455 249.660048 
L 394.461818 249.660048 
z
" style="fill:#55a868;opacity:0.5;"/>
   </g>
   <g id="patch_27">
    <path clip-path="url(#p882b35b059)" d="M 403.085455 252 
L 411.709091 252 
L 411.709091 244.590153 
L 403.085455 244.590153 
z
" style="fill:#55a868;opacity:0.5;"/>
   </g>
   <g id="patch_28">
    <path clip-path="url(#p882b35b059)" d="M 411.709091 252 
L 420.332727 252 
L 420.332727 246.150121 
L 411.709091 246.150121 
z
" style="fill:#55a868;opacity:0.5;"/>
   </g>
   <g id="patch_29">
    <path clip-path="url(#p882b35b059)" d="M 420.332727 252 
L 428.956364 252 
L 428.956364 247.710089 
L 420.332727 247.710089 
z
" style="fill:#55a868;opacity:0.5;"/>
   </g>
   <g id="patch_30">
    <path clip-path="url(#p882b35b059)" d="M 428.956364 252 
L 437.58 252 
L 437.58 244.200161 
L 428.956364 244.200161 
z
" style="fill:#55a868;opacity:0.5;"/>
   </g>
   <g id="patch_31">
    <path clip-path="url(#p882b35b059)" d="M 437.58 252 
L 446.203636 252 
L 446.203636 242.640194 
L 437.58 242.640194 
z
" style="fill:#55a868;opacity:0.5;"/>
   </g>
   <g id="patch_32">
    <path clip-path="url(#p882b35b059)" d="M 446.203636 252 
L 454.827273 252 
L 454.827273 242.640194 
L 446.203636 242.640194 
z
" style="fill:#55a868;opacity:0.5;"/>
   </g>
   <g id="patch_33">
    <path clip-path="url(#p882b35b059)" d="M 454.827273 252 
L 463.450909 252 
L 463.450909 239.520258 
L 454.827273 239.520258 
z
" style="fill:#55a868;opacity:0.5;"/>
   </g>
   <g id="patch_34">
    <path clip-path="url(#p882b35b059)" d="M 463.450909 252 
L 472.074545 252 
L 472.074545 234.450363 
L 463.450909 234.450363 
z
" style="fill:#55a868;opacity:0.5;"/>
   </g>
   <g id="patch_35">
    <path clip-path="url(#p882b35b059)" d="M 472.074545 252 
L 480.698182 252 
L 480.698182 229.380468 
L 472.074545 229.380468 
z
" style="fill:#55a868;opacity:0.5;"/>
   </g>
   <g id="patch_36">
    <path clip-path="url(#p882b35b059)" d="M 480.698182 252 
L 489.321818 252 
L 489.321818 230.940436 
L 480.698182 230.940436 
z
" style="fill:#55a868;opacity:0.5;"/>
   </g>
   <g id="patch_37">
    <path clip-path="url(#p882b35b059)" d="M 489.321818 252 
L 497.945455 252 
L 497.945455 220.410654 
L 489.321818 220.410654 
z
" style="fill:#55a868;opacity:0.5;"/>
   </g>
   <g id="patch_38">
    <path clip-path="url(#p882b35b059)" d="M 497.945455 252 
L 506.569091 252 
L 506.569091 213.000807 
L 497.945455 213.000807 
z
" style="fill:#55a868;opacity:0.5;"/>
   </g>
   <g id="patch_39">
    <path clip-path="url(#p882b35b059)" d="M 506.569091 252 
L 515.192727 252 
L 515.192727 212.220823 
L 506.569091 212.220823 
z
" style="fill:#55a868;opacity:0.5;"/>
   </g>
   <g id="patch_40">
    <path clip-path="url(#p882b35b059)" d="M 515.192727 252 
L 523.816364 252 
L 523.816364 195.841162 
L 515.192727 195.841162 
z
" style="fill:#55a868;opacity:0.5;"/>
   </g>
   <g id="patch_41">
    <path clip-path="url(#p882b35b059)" d="M 523.816364 252 
L 532.44 252 
L 532.44 184.531396 
L 523.816364 184.531396 
z
" style="fill:#55a868;opacity:0.5;"/>
   </g>
   <g id="patch_42">
    <path clip-path="url(#p882b35b059)" d="M 532.44 252 
L 541.063636 252 
L 541.063636 174.781598 
L 532.44 174.781598 
z
" style="fill:#55a868;opacity:0.5;"/>
   </g>
   <g id="patch_43">
    <path clip-path="url(#p882b35b059)" d="M 541.063636 252 
L 549.687273 252 
L 549.687273 165.421792 
L 541.063636 165.421792 
z
" style="fill:#55a868;opacity:0.5;"/>
   </g>
   <g id="patch_44">
    <path clip-path="url(#p882b35b059)" d="M 549.687273 252 
L 558.310909 252 
L 558.310909 145.532203 
L 549.687273 145.532203 
z
" style="fill:#55a868;opacity:0.5;"/>
   </g>
   <g id="patch_45">
    <path clip-path="url(#p882b35b059)" d="M 558.310909 252 
L 566.934545 252 
L 566.934545 119.792736 
L 558.310909 119.792736 
z
" style="fill:#55a868;opacity:0.5;"/>
   </g>
   <g id="patch_46">
    <path clip-path="url(#p882b35b059)" d="M 566.934545 252 
L 575.558182 252 
L 575.558182 128.76255 
L 566.934545 128.76255 
z
" style="fill:#55a868;opacity:0.5;"/>
   </g>
   <g id="patch_47">
    <path clip-path="url(#p882b35b059)" d="M 575.558182 252 
L 584.181818 252 
L 584.181818 96.783212 
L 575.558182 96.783212 
z
" style="fill:#55a868;opacity:0.5;"/>
   </g>
   <g id="patch_48">
    <path clip-path="url(#p882b35b059)" d="M 584.181818 252 
L 592.805455 252 
L 592.805455 72.213721 
L 584.181818 72.213721 
z
" style="fill:#55a868;opacity:0.5;"/>
   </g>
   <g id="patch_49">
    <path clip-path="url(#p882b35b059)" d="M 592.805455 252 
L 601.429091 252 
L 601.429091 69.483777 
L 592.805455 69.483777 
z
" style="fill:#55a868;opacity:0.5;"/>
   </g>
   <g id="patch_50">
    <path clip-path="url(#p882b35b059)" d="M 601.429091 252 
L 610.052727 252 
L 610.052727 71.043745 
L 601.429091 71.043745 
z
" style="fill:#55a868;opacity:0.5;"/>
   </g>
   <g id="patch_51">
    <path clip-path="url(#p882b35b059)" d="M 610.052727 252 
L 618.676364 252 
L 618.676364 45.69427 
L 610.052727 45.69427 
z
" style="fill:#55a868;opacity:0.5;"/>
   </g>
   <g id="patch_52">
    <path clip-path="url(#p882b35b059)" d="M 618.676364 252 
L 627.3 252 
L 627.3 52.714124 
L 618.676364 52.714124 
z
" style="fill:#55a868;opacity:0.5;"/>
   </g>
   <g id="patch_53">
    <path clip-path="url(#p882b35b059)" d="M 627.3 252 
L 635.923636 252 
L 635.923636 63.633898 
L 627.3 63.633898 
z
" style="fill:#55a868;opacity:0.5;"/>
   </g>
   <g id="patch_54">
    <path clip-path="url(#p882b35b059)" d="M 635.923636 252 
L 644.547273 252 
L 644.547273 44.914286 
L 635.923636 44.914286 
z
" style="fill:#55a868;opacity:0.5;"/>
   </g>
   <g id="patch_55">
    <path clip-path="url(#p882b35b059)" d="M 644.547273 252 
L 653.170909 252 
L 653.170909 55.054076 
L 644.547273 55.054076 
z
" style="fill:#55a868;opacity:0.5;"/>
   </g>
   <g id="patch_56">
    <path clip-path="url(#p882b35b059)" d="M 653.170909 252 
L 661.794545 252 
L 661.794545 80.793543 
L 653.170909 80.793543 
z
" style="fill:#55a868;opacity:0.5;"/>
   </g>
   <g id="patch_57">
    <path clip-path="url(#p882b35b059)" d="M 661.794545 252 
L 670.418182 252 
L 670.418182 95.613236 
L 661.794545 95.613236 
z
" style="fill:#55a868;opacity:0.5;"/>
   </g>
   <g id="patch_58">
    <path clip-path="url(#p882b35b059)" d="M 670.418182 252 
L 679.041818 252 
L 679.041818 109.262954 
L 670.418182 109.262954 
z
" style="fill:#55a868;opacity:0.5;"/>
   </g>
   <g id="patch_59">
    <path clip-path="url(#p882b35b059)" d="M 679.041818 252 
L 687.665455 252 
L 687.665455 126.812591 
L 679.041818 126.812591 
z
" style="fill:#55a868;opacity:0.5;"/>
   </g>
   <g id="patch_60">
    <path clip-path="url(#p882b35b059)" d="M 687.665455 252 
L 696.289091 252 
L 696.289091 137.342373 
L 687.665455 137.342373 
z
" style="fill:#55a868;opacity:0.5;"/>
   </g>
   <g id="patch_61">
    <path clip-path="url(#p882b35b059)" d="M 696.289091 252 
L 704.912727 252 
L 704.912727 164.641808 
L 696.289091 164.641808 
z
" style="fill:#55a868;opacity:0.5;"/>
   </g>
   <g id="patch_62">
    <path clip-path="url(#p882b35b059)" d="M 704.912727 252 
L 713.536364 252 
L 713.536364 166.591768 
L 704.912727 166.591768 
z
" style="fill:#55a868;opacity:0.5;"/>
   </g>
   <g id="patch_63">
    <path clip-path="url(#p882b35b059)" d="M 713.536364 252 
L 722.16 252 
L 722.16 174.001614 
L 713.536364 174.001614 
z
" style="fill:#55a868;opacity:0.5;"/>
   </g>
   <g id="patch_64">
    <path clip-path="url(#p882b35b059)" d="M 722.16 252 
L 730.783636 252 
L 730.783636 187.26134 
L 722.16 187.26134 
z
" style="fill:#55a868;opacity:0.5;"/>
   </g>
   <g id="patch_65">
    <path clip-path="url(#p882b35b059)" d="M 730.783636 252 
L 739.407273 252 
L 739.407273 199.741082 
L 730.783636 199.741082 
z
" style="fill:#55a868;opacity:0.5;"/>
   </g>
   <g id="patch_66">
    <path clip-path="url(#p882b35b059)" d="M 739.407273 252 
L 748.030909 252 
L 748.030909 205.59096 
L 739.407273 205.59096 
z
" style="fill:#55a868;opacity:0.5;"/>
   </g>
   <g id="patch_67">
    <path clip-path="url(#p882b35b059)" d="M 748.030909 252 
L 756.654545 252 
L 756.654545 217.68071 
L 748.030909 217.68071 
z
" style="fill:#55a868;opacity:0.5;"/>
   </g>
   <g id="patch_68">
    <path clip-path="url(#p882b35b059)" d="M 756.654545 252 
L 765.278182 252 
L 765.278182 218.460694 
L 756.654545 218.460694 
z
" style="fill:#55a868;opacity:0.5;"/>
   </g>
   <g id="patch_69">
    <path clip-path="url(#p882b35b059)" d="M 765.278182 252 
L 773.901818 252 
L 773.901818 229.380468 
L 765.278182 229.380468 
z
" style="fill:#55a868;opacity:0.5;"/>
   </g>
   <g id="patch_70">
    <path clip-path="url(#p882b35b059)" d="M 773.901818 252 
L 782.525455 252 
L 782.525455 231.330428 
L 773.901818 231.330428 
z
" style="fill:#55a868;opacity:0.5;"/>
   </g>
   <g id="patch_71">
    <path clip-path="url(#p882b35b059)" d="M 782.525455 252 
L 791.149091 252 
L 791.149091 240.690234 
L 782.525455 240.690234 
z
" style="fill:#55a868;opacity:0.5;"/>
   </g>
   <g id="patch_72">
    <path clip-path="url(#p882b35b059)" d="M 791.149091 252 
L 799.772727 252 
L 799.772727 238.350282 
L 791.149091 238.350282 
z
" style="fill:#55a868;opacity:0.5;"/>
   </g>
   <g id="patch_73">
    <path clip-path="url(#p882b35b059)" d="M 799.772727 252 
L 808.396364 252 
L 808.396364 237.570299 
L 799.772727 237.570299 
z
" style="fill:#55a868;opacity:0.5;"/>
   </g>
   <g id="patch_74">
    <path clip-path="url(#p882b35b059)" d="M 808.396364 252 
L 817.02 252 
L 817.02 246.540113 
L 808.396364 246.540113 
z
" style="fill:#55a868;opacity:0.5;"/>
   </g>
   <g id="patch_75">
    <path clip-path="url(#p882b35b059)" d="M 817.02 252 
L 825.643636 252 
L 825.643636 248.100081 
L 817.02 248.100081 
z
" style="fill:#55a868;opacity:0.5;"/>
   </g>
   <g id="patch_76">
    <path clip-path="url(#p882b35b059)" d="M 825.643636 252 
L 834.267273 252 
L 834.267273 246.540113 
L 825.643636 246.540113 
z
" style="fill:#55a868;opacity:0.5;"/>
   </g>
   <g id="patch_77">
    <path clip-path="url(#p882b35b059)" d="M 834.267273 252 
L 842.890909 252 
L 842.890909 248.490073 
L 834.267273 248.490073 
z
" style="fill:#55a868;opacity:0.5;"/>
   </g>
   <g id="patch_78">
    <path clip-path="url(#p882b35b059)" d="M 842.890909 252 
L 851.514545 252 
L 851.514545 247.320097 
L 842.890909 247.320097 
z
" style="fill:#55a868;opacity:0.5;"/>
   </g>
   <g id="patch_79">
    <path clip-path="url(#p882b35b059)" d="M 851.514545 252 
L 860.138182 252 
L 860.138182 247.320097 
L 851.514545 247.320097 
z
" style="fill:#55a868;opacity:0.5;"/>
   </g>
   <g id="patch_80">
    <path clip-path="url(#p882b35b059)" d="M 860.138182 252 
L 868.761818 252 
L 868.761818 250.830024 
L 860.138182 250.830024 
z
" style="fill:#55a868;opacity:0.5;"/>
   </g>
   <g id="patch_81">
    <path clip-path="url(#p882b35b059)" d="M 868.761818 252 
L 877.385455 252 
L 877.385455 250.05004 
L 868.761818 250.05004 
z
" style="fill:#55a868;opacity:0.5;"/>
   </g>
   <g id="patch_82">
    <path clip-path="url(#p882b35b059)" d="M 877.385455 252 
L 886.009091 252 
L 886.009091 250.830024 
L 877.385455 250.830024 
z
" style="fill:#55a868;opacity:0.5;"/>
   </g>
   <g id="patch_83">
    <path clip-path="url(#p882b35b059)" d="M 886.009091 252 
L 894.632727 252 
L 894.632727 250.05004 
L 886.009091 250.05004 
z
" style="fill:#55a868;opacity:0.5;"/>
   </g>
   <g id="patch_84">
    <path clip-path="url(#p882b35b059)" d="M 894.632727 252 
L 903.256364 252 
L 903.256364 251.220016 
L 894.632727 251.220016 
z
" style="fill:#55a868;opacity:0.5;"/>
   </g>
   <g id="patch_85">
    <path clip-path="url(#p882b35b059)" d="M 903.256364 252 
L 911.88 252 
L 911.88 250.830024 
L 903.256364 250.830024 
z
" style="fill:#55a868;opacity:0.5;"/>
   </g>
   <g id="patch_86">
    <path clip-path="url(#p882b35b059)" d="M 911.88 252 
L 920.503636 252 
L 920.503636 251.610008 
L 911.88 251.610008 
z
" style="fill:#55a868;opacity:0.5;"/>
   </g>
   <g id="patch_87">
    <path clip-path="url(#p882b35b059)" d="M 920.503636 252 
L 929.127273 252 
L 929.127273 252 
L 920.503636 252 
z
" style="fill:#55a868;opacity:0.5;"/>
   </g>
   <g id="patch_88">
    <path clip-path="url(#p882b35b059)" d="M 929.127273 252 
L 937.750909 252 
L 937.750909 251.220016 
L 929.127273 251.220016 
z
" style="fill:#55a868;opacity:0.5;"/>
   </g>
   <g id="patch_89">
    <path clip-path="url(#p882b35b059)" d="M 937.750909 252 
L 946.374545 252 
L 946.374545 252 
L 937.750909 252 
z
" style="fill:#55a868;opacity:0.5;"/>
   </g>
   <g id="patch_90">
    <path clip-path="url(#p882b35b059)" d="M 946.374545 252 
L 954.998182 252 
L 954.998182 252 
L 946.374545 252 
z
" style="fill:#55a868;opacity:0.5;"/>
   </g>
   <g id="patch_91">
    <path clip-path="url(#p882b35b059)" d="M 954.998182 252 
L 963.621818 252 
L 963.621818 252 
L 954.998182 252 
z
" style="fill:#55a868;opacity:0.5;"/>
   </g>
   <g id="patch_92">
    <path clip-path="url(#p882b35b059)" d="M 963.621818 252 
L 972.245455 252 
L 972.245455 252 
L 963.621818 252 
z
" style="fill:#55a868;opacity:0.5;"/>
   </g>
   <g id="patch_93">
    <path clip-path="url(#p882b35b059)" d="M 972.245455 252 
L 980.869091 252 
L 980.869091 252 
L 972.245455 252 
z
" style="fill:#55a868;opacity:0.5;"/>
   </g>
   <g id="patch_94">
    <path clip-path="url(#p882b35b059)" d="M 980.869091 252 
L 989.492727 252 
L 989.492727 251.610008 
L 980.869091 251.610008 
z
" style="fill:#55a868;opacity:0.5;"/>
   </g>
   <g id="patch_95">
    <path clip-path="url(#p882b35b059)" d="M 989.492727 252 
L 998.116364 252 
L 998.116364 252 
L 989.492727 252 
z
" style="fill:#55a868;opacity:0.5;"/>
   </g>
   <g id="patch_96">
    <path clip-path="url(#p882b35b059)" d="M 998.116364 252 
L 1006.74 252 
L 1006.74 252 
L 998.116364 252 
z
" style="fill:#55a868;opacity:0.5;"/>
   </g>
   <g id="patch_97">
    <path clip-path="url(#p882b35b059)" d="M 1006.74 252 
L 1015.363636 252 
L 1015.363636 252 
L 1006.74 252 
z
" style="fill:#55a868;opacity:0.5;"/>
   </g>
   <g id="patch_98">
    <path clip-path="url(#p882b35b059)" d="M 1015.363636 252 
L 1023.987273 252 
L 1023.987273 252 
L 1015.363636 252 
z
" style="fill:#55a868;opacity:0.5;"/>
   </g>
   <g id="patch_99">
    <path clip-path="url(#p882b35b059)" d="M 1023.987273 252 
L 1032.610909 252 
L 1032.610909 252 
L 1023.987273 252 
z
" style="fill:#55a868;opacity:0.5;"/>
   </g>
   <g id="patch_100">
    <path clip-path="url(#p882b35b059)" d="M 1032.610909 252 
L 1041.234545 252 
L 1041.234545 252 
L 1032.610909 252 
z
" style="fill:#55a868;opacity:0.5;"/>
   </g>
   <g id="patch_101">
    <path clip-path="url(#p882b35b059)" d="M 1041.234545 252 
L 1049.858182 252 
L 1049.858182 252 
L 1041.234545 252 
z
" style="fill:#55a868;opacity:0.5;"/>
   </g>
   <g id="patch_102">
    <path clip-path="url(#p882b35b059)" d="M 1049.858182 252 
L 1058.481818 252 
L 1058.481818 251.610008 
L 1049.858182 251.610008 
z
" style="fill:#55a868;opacity:0.5;"/>
   </g>
   <g id="line2d_25">
    <path clip-path="url(#p882b35b059)" d="M 434.432714 244.044637 
L 441.510694 242.613413 
L 448.0886 241.059943 
L 454.281833 239.370819 
L 460.12886 237.546565 
L 465.668149 235.586471 
L 470.938167 233.487726 
L 476.015848 231.226467 
L 480.901193 228.807196 
L 485.632669 226.215201 
L 490.210276 223.454407 
L 494.672481 220.50472 
L 499.057752 217.339209 
L 503.366087 213.954686 
L 507.635956 210.315703 
L 511.867357 206.414829 
L 516.060291 202.246396 
L 520.253225 197.764275 
L 524.484627 192.912847 
L 528.754495 187.675464 
L 533.101298 181.986667 
L 537.525036 175.827654 
L 542.102643 169.068834 
L 546.872586 161.625312 
L 551.950268 153.28417 
L 557.566491 143.617888 
L 564.182864 131.764898 
L 575.684582 110.595975 
L 583.454973 96.540649 
L 588.648057 87.591235 
L 592.956393 80.595622 
L 596.726187 74.887503 
L 600.111308 70.154387 
L 603.227158 66.172574 
L 606.112204 62.840571 
L 608.804914 60.064413 
L 611.343755 57.761558 
L 613.728726 55.891049 
L 615.998296 54.385313 
L 618.190931 53.192861 
L 620.306632 52.292664 
L 622.345398 51.662207 
L 624.345697 51.27264 
L 626.307528 51.11261 
L 628.26936 51.173182 
L 630.231191 51.454089 
L 632.23149 51.966081 
L 634.270256 52.719895 
L 636.347489 53.725132 
L 638.501657 55.015292 
L 640.771227 56.640108 
L 643.117731 58.596822 
L 645.618105 60.978519 
L 648.272348 63.824273 
L 651.080459 67.168101 
L 654.119375 71.142049 
L 657.427561 75.846541 
L 661.081953 81.444573 
L 665.197953 88.172078 
L 670.04483 96.540649 
L 676.314998 107.843465 
L 697.087331 145.63785 
L 702.818957 155.407411 
L 708.01204 163.827049 
L 712.858918 171.268994 
L 717.513459 178.011944 
L 722.014132 184.143245 
L 726.399402 189.745462 
L 730.707738 194.893531 
L 734.977606 199.653405 
L 739.247475 204.081599 
L 743.517344 208.189644 
L 747.787212 211.990965 
L 752.095548 215.530664 
L 756.442351 218.817054 
L 760.866089 221.885278 
L 765.405228 224.762604 
L 770.05977 227.448169 
L 774.829713 229.943128 
L 779.753525 232.267691 
L 784.869674 234.436542 
L 790.216627 236.459755 
L 795.794383 238.331547 
L 801.679877 240.070524 
L 807.911578 241.677868 
L 814.566418 243.161533 
L 819.06709 244.044637 
L 819.06709 244.044637 
" style="fill:none;opacity:0.8;stroke:#4c72b0;stroke-linecap:round;stroke-width:3;"/>
   </g>
   <g id="patch_103">
    <path d="M 153 252 
L 153 34.56 
" style="fill:none;"/>
   </g>
   <g id="patch_104">
    <path d="M 1101.6 252 
L 1101.6 34.56 
" style="fill:none;"/>
   </g>
   <g id="patch_105">
    <path d="M 153 252 
L 1101.6 252 
" style="fill:none;"/>
   </g>
   <g id="patch_106">
    <path d="M 153 34.56 
L 1101.6 34.56 
" style="fill:none;"/>
   </g>
   <g id="legend_1">
    <g id="line2d_26">
     <path d="M 1017.35625 47.306875 
L 1037.35625 47.306875 
" style="fill:none;opacity:0.8;stroke:#4c72b0;stroke-linecap:round;stroke-width:3;"/>
    </g>
    <g id="line2d_27"/>
    <g id="text_13">
     <!-- logistic pdf -->
     <defs>
      <path d="M 6.734375 0 
L 6.734375 72.46875 
L 15.53125 72.46875 
L 15.53125 0 
z
" id="LiberationSans-6c"/>
      <path d="M 51.421875 26.46875 
Q 51.421875 12.59375 45.3125 5.796875 
Q 39.203125 -0.984375 27.59375 -0.984375 
Q 22.078125 -0.984375 17.71875 0.671875 
Q 13.375 2.34375 10.375 5.765625 
Q 7.375 9.1875 5.78125 14.328125 
Q 4.203125 19.484375 4.203125 26.46875 
Q 4.203125 53.8125 27.875 53.8125 
Q 34.03125 53.8125 38.5 52.09375 
Q 42.96875 50.390625 45.828125 46.96875 
Q 48.6875 43.5625 50.046875 38.421875 
Q 51.421875 33.296875 51.421875 26.46875 
M 42.1875 26.46875 
Q 42.1875 32.625 41.234375 36.625 
Q 40.28125 40.625 38.453125 43.015625 
Q 36.625 45.40625 33.984375 46.359375 
Q 31.34375 47.3125 28.03125 47.3125 
Q 24.65625 47.3125 21.9375 46.3125 
Q 19.234375 45.3125 17.328125 42.890625 
Q 15.4375 40.484375 14.421875 36.46875 
Q 13.421875 32.46875 13.421875 26.46875 
Q 13.421875 20.3125 14.5 16.28125 
Q 15.578125 12.25 17.453125 9.859375 
Q 19.34375 7.46875 21.90625 6.484375 
Q 24.46875 5.515625 27.484375 5.515625 
Q 30.859375 5.515625 33.59375 6.46875 
Q 36.328125 7.421875 38.234375 9.8125 
Q 40.140625 12.203125 41.15625 16.25 
Q 42.1875 20.3125 42.1875 26.46875 
" id="LiberationSans-6f"/>
      <path d="M 26.765625 -20.75 
Q 22.21875 -20.75 18.703125 -19.8125 
Q 15.1875 -18.890625 12.6875 -17.15625 
Q 10.203125 -15.4375 8.640625 -13.03125 
Q 7.078125 -10.640625 6.390625 -7.71875 
L 15.234375 -6.453125 
Q 16.109375 -10.109375 19.109375 -12.078125 
Q 22.125 -14.0625 27 -14.0625 
Q 29.984375 -14.0625 32.421875 -13.234375 
Q 34.859375 -12.40625 36.5625 -10.5625 
Q 38.28125 -8.734375 39.203125 -5.796875 
Q 40.140625 -2.875 40.140625 1.3125 
L 40.140625 9.8125 
L 40.046875 9.8125 
Q 39.0625 7.8125 37.625 5.984375 
Q 36.1875 4.15625 34.109375 2.734375 
Q 32.03125 1.3125 29.296875 0.453125 
Q 26.5625 -0.390625 23.046875 -0.390625 
Q 18.015625 -0.390625 14.421875 1.296875 
Q 10.84375 2.984375 8.5625 6.34375 
Q 6.296875 9.71875 5.25 14.71875 
Q 4.203125 19.734375 4.203125 26.3125 
Q 4.203125 32.671875 5.25 37.75 
Q 6.296875 42.828125 8.65625 46.359375 
Q 11.03125 49.90625 14.8125 51.78125 
Q 18.609375 53.65625 24.03125 53.65625 
Q 29.640625 53.65625 33.765625 51.09375 
Q 37.890625 48.53125 40.140625 43.796875 
L 40.234375 43.796875 
Q 40.234375 45.015625 40.296875 46.53125 
Q 40.375 48.046875 40.453125 49.390625 
Q 40.53125 50.734375 40.625 51.703125 
Q 40.71875 52.6875 40.828125 52.828125 
L 49.171875 52.828125 
Q 49.125 52.390625 49.078125 51.34375 
Q 49.03125 50.296875 48.96875 48.828125 
Q 48.921875 47.359375 48.890625 45.578125 
Q 48.875 43.796875 48.875 41.890625 
L 48.875 1.515625 
Q 48.875 -9.578125 43.421875 -15.15625 
Q 37.984375 -20.75 26.765625 -20.75 
M 40.140625 26.421875 
Q 40.140625 31.9375 38.9375 35.859375 
Q 37.75 39.796875 35.796875 42.28125 
Q 33.84375 44.78125 31.328125 45.953125 
Q 28.8125 47.125 26.171875 47.125 
Q 22.796875 47.125 20.375 45.953125 
Q 17.96875 44.78125 16.375 42.265625 
Q 14.796875 39.75 14.03125 35.8125 
Q 13.28125 31.890625 13.28125 26.421875 
Q 13.28125 20.703125 14.03125 16.8125 
Q 14.796875 12.9375 16.359375 10.546875 
Q 17.921875 8.15625 20.3125 7.125 
Q 22.703125 6.109375 26.03125 6.109375 
Q 28.65625 6.109375 31.171875 7.21875 
Q 33.6875 8.34375 35.6875 10.78125 
Q 37.703125 13.234375 38.921875 17.09375 
Q 40.140625 20.953125 40.140625 26.421875 
" id="LiberationSans-67"/>
      <path d="M 6.6875 64.0625 
L 6.6875 72.46875 
L 15.484375 72.46875 
L 15.484375 64.0625 
z
M 6.6875 0 
L 6.6875 52.828125 
L 15.484375 52.828125 
L 15.484375 0 
z
" id="LiberationSans-69"/>
      <path d="M 46.390625 14.59375 
Q 46.390625 10.890625 44.9375 7.984375 
Q 43.5 5.078125 40.765625 3.09375 
Q 38.03125 1.125 34.046875 0.0625 
Q 30.078125 -0.984375 24.953125 -0.984375 
Q 20.359375 -0.984375 16.671875 -0.265625 
Q 12.984375 0.4375 10.203125 2 
Q 7.421875 3.5625 5.53125 6.125 
Q 3.65625 8.6875 2.78125 12.40625 
L 10.546875 13.921875 
Q 11.671875 9.671875 15.1875 7.6875 
Q 18.703125 5.71875 24.953125 5.71875 
Q 27.78125 5.71875 30.140625 6.109375 
Q 32.515625 6.5 34.21875 7.453125 
Q 35.9375 8.40625 36.890625 9.984375 
Q 37.84375 11.578125 37.84375 13.921875 
Q 37.84375 16.3125 36.71875 17.84375 
Q 35.59375 19.390625 33.59375 20.40625 
Q 31.59375 21.4375 28.734375 22.1875 
Q 25.875 22.953125 22.46875 23.875 
Q 19.28125 24.703125 16.15625 25.734375 
Q 13.03125 26.765625 10.515625 28.4375 
Q 8.015625 30.125 6.453125 32.609375 
Q 4.890625 35.109375 4.890625 38.875 
Q 4.890625 46.09375 10.03125 49.875 
Q 15.1875 53.65625 25.046875 53.65625 
Q 33.796875 53.65625 38.9375 50.578125 
Q 44.09375 47.515625 45.453125 40.71875 
L 37.546875 39.75 
Q 37.109375 41.796875 35.9375 43.1875 
Q 34.765625 44.578125 33.109375 45.4375 
Q 31.453125 46.296875 29.375 46.65625 
Q 27.296875 47.015625 25.046875 47.015625 
Q 19.09375 47.015625 16.25 45.203125 
Q 13.421875 43.40625 13.421875 39.75 
Q 13.421875 37.59375 14.46875 36.203125 
Q 15.53125 34.8125 17.40625 33.859375 
Q 19.28125 32.90625 21.921875 32.203125 
Q 24.5625 31.5 27.734375 30.71875 
Q 29.828125 30.171875 32.03125 29.5625 
Q 34.234375 28.953125 36.296875 28.09375 
Q 38.375 27.25 40.203125 26.09375 
Q 42.046875 24.953125 43.40625 23.34375 
Q 44.78125 21.734375 45.578125 19.578125 
Q 46.390625 17.4375 46.390625 14.59375 
" id="LiberationSans-73"/>
      <path d="M 27.046875 0.390625 
Q 25.046875 -0.140625 22.96875 -0.453125 
Q 20.90625 -0.78125 18.171875 -0.78125 
Q 7.625 -0.78125 7.625 11.1875 
L 7.625 46.4375 
L 1.515625 46.4375 
L 1.515625 52.828125 
L 7.953125 52.828125 
L 10.546875 64.65625 
L 16.40625 64.65625 
L 16.40625 52.828125 
L 26.171875 52.828125 
L 26.171875 46.4375 
L 16.40625 46.4375 
L 16.40625 13.09375 
Q 16.40625 9.28125 17.640625 7.734375 
Q 18.890625 6.203125 21.96875 6.203125 
Q 23.25 6.203125 24.4375 6.390625 
Q 25.640625 6.59375 27.046875 6.890625 
z
" id="LiberationSans-74"/>
      <path d="M 13.421875 26.65625 
Q 13.421875 22.125 14.078125 18.3125 
Q 14.75 14.5 16.3125 11.734375 
Q 17.875 8.984375 20.4375 7.46875 
Q 23 5.953125 26.765625 5.953125 
Q 31.453125 5.953125 34.59375 8.484375 
Q 37.75 11.03125 38.484375 16.3125 
L 47.359375 15.71875 
Q 46.921875 12.453125 45.453125 9.421875 
Q 44 6.390625 41.484375 4.09375 
Q 38.96875 1.8125 35.34375 0.40625 
Q 31.734375 -0.984375 27 -0.984375 
Q 20.796875 -0.984375 16.453125 1.109375 
Q 12.109375 3.21875 9.390625 6.90625 
Q 6.6875 10.59375 5.46875 15.59375 
Q 4.25 20.609375 4.25 26.46875 
Q 4.25 31.78125 5.125 35.859375 
Q 6 39.9375 7.59375 42.984375 
Q 9.1875 46.046875 11.328125 48.125 
Q 13.484375 50.203125 15.984375 51.4375 
Q 18.5 52.6875 21.28125 53.25 
Q 24.078125 53.8125 26.90625 53.8125 
Q 31.34375 53.8125 34.8125 52.59375 
Q 38.28125 51.375 40.796875 49.25 
Q 43.3125 47.125 44.875 44.234375 
Q 46.4375 41.359375 47.078125 38.03125 
L 38.03125 37.359375 
Q 37.359375 41.75 34.5625 44.328125 
Q 31.78125 46.921875 26.65625 46.921875 
Q 22.90625 46.921875 20.390625 45.671875 
Q 17.875 44.4375 16.3125 41.921875 
Q 14.75 39.40625 14.078125 35.59375 
Q 13.421875 31.78125 13.421875 26.65625 
" id="LiberationSans-63"/>
      <path id="LiberationSans-20"/>
      <path d="M 51.421875 26.65625 
Q 51.421875 20.65625 50.4375 15.578125 
Q 49.46875 10.5 47.1875 6.828125 
Q 44.921875 3.171875 41.1875 1.09375 
Q 37.453125 -0.984375 31.984375 -0.984375 
Q 26.3125 -0.984375 22.0625 1.171875 
Q 17.828125 3.328125 15.578125 8.203125 
L 15.328125 8.203125 
Q 15.375 8.109375 15.40625 7.328125 
Q 15.4375 6.546875 15.453125 5.375 
Q 15.484375 4.203125 15.5 2.75 
Q 15.53125 1.3125 15.53125 -0.09375 
L 15.53125 -20.75 
L 6.734375 -20.75 
L 6.734375 42.046875 
Q 6.734375 43.953125 6.703125 45.703125 
Q 6.6875 47.46875 6.640625 48.90625 
Q 6.59375 50.34375 6.546875 51.359375 
Q 6.5 52.390625 6.453125 52.828125 
L 14.9375 52.828125 
Q 14.984375 52.6875 15.0625 51.796875 
Q 15.140625 50.921875 15.203125 49.671875 
Q 15.28125 48.4375 15.359375 47.015625 
Q 15.4375 45.609375 15.4375 44.34375 
L 15.625 44.34375 
Q 16.84375 46.875 18.40625 48.65625 
Q 19.96875 50.4375 21.96875 51.578125 
Q 23.96875 52.734375 26.4375 53.25 
Q 28.90625 53.765625 31.984375 53.765625 
Q 37.453125 53.765625 41.1875 51.8125 
Q 44.921875 49.859375 47.1875 46.3125 
Q 49.46875 42.78125 50.4375 37.765625 
Q 51.421875 32.765625 51.421875 26.65625 
M 42.1875 26.46875 
Q 42.1875 31.34375 41.59375 35.15625 
Q 41.015625 38.96875 39.578125 41.59375 
Q 38.140625 44.234375 35.734375 45.59375 
Q 33.34375 46.96875 29.734375 46.96875 
Q 26.8125 46.96875 24.21875 46.140625 
Q 21.625 45.3125 19.703125 42.96875 
Q 17.78125 40.625 16.65625 36.5 
Q 15.53125 32.375 15.53125 25.78125 
Q 15.53125 20.171875 16.453125 16.28125 
Q 17.390625 12.40625 19.171875 10.015625 
Q 20.953125 7.625 23.578125 6.5625 
Q 26.21875 5.515625 29.640625 5.515625 
Q 33.296875 5.515625 35.71875 6.921875 
Q 38.140625 8.34375 39.578125 11.03125 
Q 41.015625 13.71875 41.59375 17.59375 
Q 42.1875 21.484375 42.1875 26.46875 
" id="LiberationSans-70"/>
      <path d="M 40.09375 8.5 
Q 37.640625 3.421875 33.609375 1.21875 
Q 29.59375 -0.984375 23.640625 -0.984375 
Q 13.625 -0.984375 8.90625 5.75 
Q 4.203125 12.5 4.203125 26.171875 
Q 4.203125 53.8125 23.640625 53.8125 
Q 29.640625 53.8125 33.640625 51.609375 
Q 37.640625 49.421875 40.09375 44.625 
L 40.1875 44.625 
Q 40.1875 45.125 40.15625 46.171875 
Q 40.140625 47.21875 40.109375 48.359375 
Q 40.09375 49.515625 40.09375 50.53125 
Q 40.09375 51.5625 40.09375 52 
L 40.09375 72.46875 
L 48.875 72.46875 
L 48.875 10.890625 
Q 48.875 8.984375 48.890625 7.21875 
Q 48.921875 5.46875 48.96875 4 
Q 49.03125 2.546875 49.078125 1.484375 
Q 49.125 0.4375 49.171875 0 
L 40.765625 0 
Q 40.671875 0.484375 40.59375 1.390625 
Q 40.53125 2.296875 40.453125 3.46875 
Q 40.375 4.640625 40.328125 5.9375 
Q 40.28125 7.234375 40.28125 8.5 
z
M 13.421875 26.46875 
Q 13.421875 21 14.109375 17.09375 
Q 14.796875 13.1875 16.3125 10.671875 
Q 17.828125 8.15625 20.171875 6.984375 
Q 22.515625 5.8125 25.875 5.8125 
Q 29.34375 5.8125 32 6.9375 
Q 34.671875 8.0625 36.453125 10.578125 
Q 38.234375 13.09375 39.15625 17.140625 
Q 40.09375 21.1875 40.09375 27.046875 
Q 40.09375 32.671875 39.15625 36.546875 
Q 38.234375 40.4375 36.421875 42.828125 
Q 34.625 45.21875 32 46.265625 
Q 29.390625 47.3125 25.984375 47.3125 
Q 22.75 47.3125 20.40625 46.1875 
Q 18.0625 45.0625 16.5 42.578125 
Q 14.9375 40.09375 14.171875 36.109375 
Q 13.421875 32.125 13.421875 26.46875 
" id="LiberationSans-64"/>
      <path d="M 17.625 46.4375 
L 17.625 0 
L 8.84375 0 
L 8.84375 46.4375 
L 1.421875 46.4375 
L 1.421875 52.828125 
L 8.84375 52.828125 
L 8.84375 58.796875 
Q 8.84375 61.671875 9.375 64.140625 
Q 9.90625 66.609375 11.34375 68.4375 
Q 12.796875 70.265625 15.28125 71.3125 
Q 17.78125 72.359375 21.734375 72.359375 
Q 23.296875 72.359375 24.96875 72.21875 
Q 26.65625 72.078125 27.9375 71.78125 
L 27.9375 65.09375 
Q 27.09375 65.234375 26 65.359375 
Q 24.90625 65.484375 24.03125 65.484375 
Q 22.078125 65.484375 20.828125 64.9375 
Q 19.578125 64.40625 18.875 63.40625 
Q 18.171875 62.40625 17.890625 60.9375 
Q 17.625 59.46875 17.625 57.5625 
L 17.625 52.828125 
L 27.9375 52.828125 
L 27.9375 46.4375 
z
" id="LiberationSans-66"/>
     </defs>
     <g style="fill:#262626;" transform="translate(1045.35625 50.806875)scale(0.1 -0.1)">
      <use xlink:href="#LiberationSans-6c"/>
      <use x="22.216797" xlink:href="#LiberationSans-6f"/>
      <use x="77.832031" xlink:href="#LiberationSans-67"/>
      <use x="133.447266" xlink:href="#LiberationSans-69"/>
      <use x="155.664062" xlink:href="#LiberationSans-73"/>
      <use x="205.664062" xlink:href="#LiberationSans-74"/>
      <use x="233.447266" xlink:href="#LiberationSans-69"/>
      <use x="255.664062" xlink:href="#LiberationSans-63"/>
      <use x="305.664062" xlink:href="#LiberationSans-20"/>
      <use x="333.447266" xlink:href="#LiberationSans-70"/>
      <use x="389.0625" xlink:href="#LiberationSans-64"/>
      <use x="444.677734" xlink:href="#LiberationSans-66"/>
     </g>
    </g>
    <g id="patch_107">
     <path d="M 1017.35625 65.12875 
L 1037.35625 65.12875 
L 1037.35625 58.12875 
L 1017.35625 58.12875 
z
" style="fill:#55a868;opacity:0.5;"/>
    </g>
    <g id="text_14">
     <!-- sample -->
     <defs>
      <path d="M 20.21875 -0.984375 
Q 12.25 -0.984375 8.25 3.21875 
Q 4.25 7.421875 4.25 14.75 
Q 4.25 19.96875 6.21875 23.3125 
Q 8.203125 26.65625 11.390625 28.5625 
Q 14.59375 30.46875 18.6875 31.203125 
Q 22.796875 31.9375 27.046875 32.03125 
L 38.921875 32.234375 
L 38.921875 35.109375 
Q 38.921875 38.375 38.234375 40.671875 
Q 37.546875 42.96875 36.125 44.375 
Q 34.71875 45.796875 32.59375 46.453125 
Q 30.46875 47.125 27.59375 47.125 
Q 25.046875 47.125 23 46.75 
Q 20.953125 46.390625 19.4375 45.4375 
Q 17.921875 44.484375 16.984375 42.84375 
Q 16.0625 41.21875 15.765625 38.71875 
L 6.59375 39.546875 
Q 7.078125 42.671875 8.4375 45.28125 
Q 9.8125 47.90625 12.328125 49.796875 
Q 14.84375 51.703125 18.625 52.75 
Q 22.40625 53.8125 27.78125 53.8125 
Q 37.75 53.8125 42.765625 49.234375 
Q 47.796875 44.671875 47.796875 36.03125 
L 47.796875 13.28125 
Q 47.796875 9.375 48.828125 7.390625 
Q 49.859375 5.421875 52.734375 5.421875 
Q 53.46875 5.421875 54.203125 5.515625 
Q 54.9375 5.609375 55.609375 5.765625 
L 55.609375 0.296875 
Q 53.953125 -0.09375 52.3125 -0.28125 
Q 50.6875 -0.484375 48.828125 -0.484375 
Q 46.34375 -0.484375 44.5625 0.171875 
Q 42.78125 0.828125 41.65625 2.171875 
Q 40.53125 3.515625 39.9375 5.484375 
Q 39.359375 7.46875 39.203125 10.109375 
L 38.921875 10.109375 
Q 37.5 7.5625 35.8125 5.515625 
Q 34.125 3.46875 31.875 2.03125 
Q 29.640625 0.59375 26.78125 -0.1875 
Q 23.921875 -0.984375 20.21875 -0.984375 
M 22.21875 5.609375 
Q 26.421875 5.609375 29.5625 7.140625 
Q 32.71875 8.6875 34.78125 11.078125 
Q 36.859375 13.484375 37.890625 16.3125 
Q 38.921875 19.140625 38.921875 21.734375 
L 38.921875 26.078125 
L 29.296875 25.875 
Q 26.078125 25.828125 23.171875 25.40625 
Q 20.265625 25 18.0625 23.78125 
Q 15.875 22.5625 14.578125 20.359375 
Q 13.28125 18.171875 13.28125 14.59375 
Q 13.28125 10.296875 15.59375 7.953125 
Q 17.921875 5.609375 22.21875 5.609375 
" id="LiberationSans-61"/>
      <path d="M 37.5 0 
L 37.5 33.5 
Q 37.5 37.359375 37.015625 39.9375 
Q 36.53125 42.53125 35.375 44.109375 
Q 34.234375 45.703125 32.375 46.359375 
Q 30.515625 47.015625 27.828125 47.015625 
Q 25.046875 47.015625 22.796875 45.921875 
Q 20.5625 44.828125 18.96875 42.75 
Q 17.390625 40.671875 16.53125 37.625 
Q 15.671875 34.578125 15.671875 30.609375 
L 15.671875 0 
L 6.9375 0 
L 6.9375 41.546875 
Q 6.9375 43.21875 6.90625 45.046875 
Q 6.890625 46.875 6.828125 48.5 
Q 6.78125 50.140625 6.734375 51.3125 
Q 6.6875 52.484375 6.640625 52.828125 
L 14.9375 52.828125 
Q 14.984375 52.59375 15.03125 51.515625 
Q 15.09375 50.4375 15.15625 49.046875 
Q 15.234375 47.65625 15.28125 46.21875 
Q 15.328125 44.78125 15.328125 43.796875 
L 15.484375 43.796875 
Q 16.65625 46.09375 18.015625 47.953125 
Q 19.390625 49.8125 21.21875 51.09375 
Q 23.046875 52.390625 25.40625 53.09375 
Q 27.78125 53.8125 30.90625 53.8125 
Q 36.921875 53.8125 40.40625 51.421875 
Q 43.890625 49.03125 45.265625 43.796875 
L 45.40625 43.796875 
Q 46.578125 46.09375 48.046875 47.953125 
Q 49.515625 49.8125 51.46875 51.09375 
Q 53.421875 52.390625 55.859375 53.09375 
Q 58.296875 53.8125 61.421875 53.8125 
Q 65.4375 53.8125 68.328125 52.734375 
Q 71.234375 51.65625 73.09375 49.40625 
Q 74.953125 47.171875 75.828125 43.625 
Q 76.703125 40.09375 76.703125 35.203125 
L 76.703125 0 
L 68.015625 0 
L 68.015625 33.5 
Q 68.015625 37.359375 67.53125 39.9375 
Q 67.046875 42.53125 65.890625 44.109375 
Q 64.75 45.703125 62.890625 46.359375 
Q 61.03125 47.015625 58.34375 47.015625 
Q 55.5625 47.015625 53.3125 45.96875 
Q 51.078125 44.921875 49.484375 42.875 
Q 47.90625 40.828125 47.046875 37.75 
Q 46.1875 34.671875 46.1875 30.609375 
L 46.1875 0 
z
" id="LiberationSans-6d"/>
      <path d="M 13.484375 24.5625 
Q 13.484375 20.40625 14.328125 16.90625 
Q 15.1875 13.421875 16.96875 10.90625 
Q 18.75 8.40625 21.53125 7 
Q 24.3125 5.609375 28.21875 5.609375 
Q 33.9375 5.609375 37.375 7.90625 
Q 40.828125 10.203125 42.046875 13.71875 
L 49.75 11.53125 
Q 48.921875 9.328125 47.4375 7.109375 
Q 45.953125 4.890625 43.453125 3.09375 
Q 40.96875 1.3125 37.234375 0.15625 
Q 33.5 -0.984375 28.21875 -0.984375 
Q 16.5 -0.984375 10.375 6 
Q 4.25 12.984375 4.25 26.765625 
Q 4.25 34.1875 6.09375 39.328125 
Q 7.953125 44.484375 11.171875 47.703125 
Q 14.40625 50.921875 18.703125 52.359375 
Q 23 53.8125 27.875 53.8125 
Q 34.515625 53.8125 38.984375 51.65625 
Q 43.453125 49.515625 46.15625 45.71875 
Q 48.875 41.9375 50.015625 36.8125 
Q 51.171875 31.6875 51.171875 25.734375 
L 51.171875 24.5625 
z
M 42.09375 31.296875 
Q 41.359375 39.65625 37.84375 43.484375 
Q 34.328125 47.3125 27.734375 47.3125 
Q 25.53125 47.3125 23.109375 46.609375 
Q 20.703125 45.90625 18.65625 44.09375 
Q 16.609375 42.28125 15.1875 39.171875 
Q 13.765625 36.078125 13.578125 31.296875 
z
" id="LiberationSans-65"/>
     </defs>
     <g style="fill:#262626;" transform="translate(1045.35625 65.12875)scale(0.1 -0.1)">
      <use xlink:href="#LiberationSans-73"/>
      <use x="50" xlink:href="#LiberationSans-61"/>
      <use x="105.615234" xlink:href="#LiberationSans-6d"/>
      <use x="188.916016" xlink:href="#LiberationSans-70"/>
      <use x="244.53125" xlink:href="#LiberationSans-6c"/>
      <use x="266.748047" xlink:href="#LiberationSans-65"/>
     </g>
    </g>
   </g>
  </g>
 </g>
 <defs>
  <clipPath id="p882b35b059">
   <rect height="217.44" width="948.6" x="153" y="34.56"/>
  </clipPath>
 </defs>
</svg>
